<svg width="196" height="195" viewBox="0 0 196 195" fill="none" xmlns="http://www.w3.org/2000/svg">
<path d="M124.866 28.0988C124.265 26.8984 123.472 25.8027 122.519 24.8542C121.582 24.0045 120.947 22.8756 120.709 21.6367C120.73 20.4914 121.188 19.3969 121.989 18.5744C122.806 17.7007 123.556 16.7669 124.232 15.7808C124.559 15.31 124.75 14.7583 124.782 14.1866C124.814 13.6149 124.687 13.0454 124.415 12.541C124.328 12.3954 124.213 12.2684 124.076 12.1673C123.94 12.0663 123.785 11.9931 123.619 11.9522C123.454 11.9112 123.283 11.903 123.115 11.928C122.947 11.9529 122.785 12.0106 122.639 12.0977C121.261 12.9183 119.438 16.6771 117.827 16.9555C116.835 17.0156 116.902 14.7769 116.731 13.9388C116.47 12.6448 115.454 10.5554 113.78 11.1597C113.434 11.2864 113.144 11.5302 112.961 11.8482C112.778 12.1663 112.714 12.5383 112.779 12.8989C113.058 15.5082 113.984 17.9235 113.221 17.8071C112.686 17.7266 112.485 17.0651 111.358 14.4732C111.065 13.8049 110.851 12.9921 110.106 12.6962C109.856 12.5977 109.585 12.5638 109.319 12.5977C109.052 12.6316 108.799 12.7323 108.582 12.8902C108.326 13.1265 108.128 13.419 108.005 13.7445C107.883 14.07 107.838 14.4195 107.875 14.7652C107.748 17.7063 107.905 13.4528 106.841 51.7542C108.377 44.3822 116.243 42.1367 121.646 46.2155C120.697 39.184 119.929 32.0875 119.494 27.0018C120.147 27.5796 120.694 28.2671 121.108 29.0329C121.79 29.9835 122.927 30.8827 124.166 30.3327C124.363 30.2354 124.538 30.0994 124.681 29.933C124.823 29.7666 124.93 29.5732 124.996 29.3645C125.061 29.1557 125.083 28.936 125.061 28.7185C125.039 28.501 124.973 28.2902 124.866 28.0988ZM110.144 41.0221C110.09 41.478 109.364 41.481 109.421 41.0221C109.492 40.424 109.505 39.8206 109.462 39.2199C109.43 38.7572 110.153 38.7611 110.185 39.2199C110.228 39.8213 110.213 40.4237 110.144 41.0221ZM113.865 21.5135L113.239 20.1264C113.049 19.7093 113.672 19.3426 113.863 19.7636L114.489 21.1507C114.679 21.5707 114.056 21.9364 113.865 21.5145V21.5135ZM117.636 20.8461C117.587 21.302 116.865 21.3059 116.913 20.8461C116.979 20.2137 117.045 19.5813 117.114 18.9488C117.163 18.4929 117.886 18.489 117.838 18.9488L117.636 20.8461Z" fill="white"/>
<path d="M127.427 55.2695C126.842 54.0162 126.201 52.7863 125.603 51.5369C123.965 48.1177 121.862 45.4822 118.135 44.5025C116.092 43.947 113.918 44.1268 111.996 45.0102C110.073 45.8936 108.526 47.4238 107.626 49.3311C106.692 51.7425 106.273 54.3214 106.397 56.903C106.411 58.8992 106.336 60.8955 106.306 62.8917C106.774 64.0072 107.017 65.2042 107.019 66.4128V75.8548C109.794 72.2279 113.451 69.3638 117.646 67.5322C121.899 65.762 127.154 65.2711 131.257 67.699C131.827 68.0385 132.374 68.4149 132.896 68.8223C131.331 64.2061 129.504 59.6813 127.427 55.2695Z" fill="black"/>
<path d="M139.573 77.754C137.927 73.6188 135.018 70.1015 131.257 67.6971C127.153 65.2721 121.897 65.7571 117.646 67.5303C113.45 69.3618 109.793 72.226 107.018 75.8528V103.861C107.365 103.848 106.67 103.876 120.947 103.876C120.256 103.391 112.39 97.8214 109.176 95.4856C108.803 95.214 109.164 94.5913 109.54 94.8648C112.673 97.1431 115.823 99.3984 118.989 101.631C119.438 101.102 129.714 88.9818 131.047 87.4046C128.748 84.8826 126.361 82.4411 123.989 79.986C123.927 79.9174 123.894 79.8278 123.896 79.7357C123.898 79.6435 123.936 79.5557 124.002 79.4903C124.067 79.4251 124.155 79.3874 124.248 79.3851C124.341 79.3827 124.431 79.4159 124.5 79.4777C127.945 82.8097 132.909 88.3144 136.005 91.9209C137.671 90.43 142.216 86.3288 142.411 86.1523C141.026 81.9503 140.013 78.8676 139.573 77.754Z" fill="#004F9E"/>
<path d="M173.503 171.643C173.345 171.23 148.95 105.597 148.924 105.522C147.795 106.972 144.126 111.624 142.781 112.894C142.102 113.52 141.281 113.972 140.388 114.212C139.495 114.452 138.556 114.473 137.653 114.273C136.045 113.935 134.519 113.286 133.162 112.364C131.582 111.297 121.283 104.119 120.94 103.879C117.88 103.879 107.21 103.868 107.008 103.873L106.996 172.099H137.749C137.845 172.099 137.936 172.061 138.004 171.994C138.072 171.927 138.11 171.836 138.11 171.74L134.057 133.277L140.613 171.835C140.633 171.911 140.679 171.979 140.742 172.026C140.805 172.074 140.882 172.1 140.961 172.099C175.476 172.159 173.222 172.143 173.366 172.021C173.433 171.988 173.485 171.93 173.511 171.86C173.537 171.789 173.534 171.712 173.503 171.643ZM130.33 145.4C130.235 145.398 130.144 145.36 130.077 145.293C130.009 145.226 129.971 145.136 129.969 145.041L129.53 141.702C129.53 141.655 129.539 141.608 129.557 141.565C129.575 141.521 129.601 141.482 129.635 141.448C129.668 141.415 129.708 141.388 129.752 141.37C129.795 141.352 129.842 141.343 129.89 141.343C129.937 141.343 129.984 141.353 130.027 141.372C130.071 141.39 130.11 141.417 130.143 141.451C130.21 141.518 130.249 141.608 130.252 141.702L130.691 145.041C130.692 145.088 130.682 145.135 130.664 145.179C130.646 145.222 130.62 145.262 130.586 145.295C130.552 145.329 130.513 145.355 130.469 145.373C130.425 145.391 130.378 145.4 130.33 145.4ZM155.619 144.188L154.969 141.202C154.871 140.75 155.566 140.559 155.666 141.008L156.316 143.994C156.414 144.448 155.717 144.64 155.619 144.188Z" fill="white"/>
<path d="M107.02 90.0295C107.02 86.584 107.011 66.2092 107.007 66.1073C106.778 58.2794 96.0502 52.6447 88.297 51.2983C83.6439 50.6785 78.9208 50.8068 74.3087 51.6786C69.2894 52.602 64.2291 54.5953 61.1384 58.6364L62.7627 59.3687C63.1868 59.5627 62.8183 60.1796 62.3981 59.9895L60.7084 59.2281C57.2715 64.6426 56.4281 69.3811 51.8456 70.9893C51.7537 71.0156 51.6758 71.0766 51.6285 71.1592C51.5811 71.2418 51.5681 71.3396 51.5921 71.4316L59.8436 95.2771C59.8619 95.3367 59.8952 95.3906 59.9404 95.4338C59.9855 95.4769 60.041 95.5079 60.1015 95.5237C60.1621 95.5395 60.2257 95.5397 60.2863 95.5242C60.347 95.5088 60.4026 95.4781 60.4481 95.4353C64.076 92.6038 66.5418 88.7617 68.6878 84.7216L72.2514 100.763C75.9272 101.35 80.5233 101.922 83.2348 99.3987C84.1745 98.3986 84.8045 97.1501 85.0493 95.8029C85.3808 94.4478 85.6099 93.0714 85.7386 91.6823C86.2684 86.5632 86.2429 81.4022 85.6625 76.2884C85.6157 75.8277 86.345 75.8325 86.385 76.2884C86.947 81.2827 86.9823 86.3218 86.4903 91.3234H106.658C106.726 91.3254 106.791 91.3455 106.848 91.3818C106.904 91.418 106.95 91.4689 106.98 91.5291C107.05 91.6629 107.02 116.259 107.02 90.0295Z" fill="#EBF2F2"/>
<path d="M174.994 73.5385C176.377 73.4881 177.724 72.5501 177.447 71.1407C177.437 71.0891 177.416 71.0403 177.385 70.9981C176.93 69.8117 175.398 69.7177 174.295 69.7157C172.694 69.7157 171.093 69.6886 169.492 69.6808C175.656 61.0022 175.326 61.558 175.83 60.4192C175.979 60.0908 176.016 59.7229 175.935 59.3717C175.854 59.0204 175.659 58.7053 175.381 58.4744C174.164 57.6363 172.051 59.4677 170.975 60.493C170.293 61.1458 165.691 65.2304 164.101 66.6476C162.78 60.7616 162.817 60.8179 162.492 60.1428C162.368 59.888 162.177 59.6714 161.939 59.5161C161.701 59.3609 161.425 59.2727 161.141 59.2611C160.83 59.279 160.529 59.3763 160.267 59.5435C160.005 59.7106 159.791 59.9421 159.645 60.2155C159.343 60.8754 159.217 61.6012 159.279 62.3233V70.3336C152.328 77.1614 144.889 83.9873 136.008 91.9229C134.622 90.3108 131.788 87.1408 131.788 87.1408C131.72 87.074 131.628 87.0365 131.532 87.0365C131.437 87.0365 131.345 87.074 131.277 87.1408L118.797 101.862C118.759 101.902 118.73 101.949 118.713 102.001C118.696 102.053 118.691 102.108 118.698 102.162C118.705 102.216 118.724 102.268 118.754 102.314C118.784 102.36 118.823 102.398 118.87 102.427C118.87 102.427 131.591 111.296 133.17 112.363C134.528 113.285 136.054 113.934 137.662 114.272C138.565 114.472 139.504 114.451 140.397 114.211C141.29 113.971 142.111 113.519 142.79 112.893C145.806 110.035 162.445 88.2456 168.709 77.2866C170.499 78.1925 172.266 79.2809 174.356 79.147C175.352 79.083 176.561 78.4554 176.398 77.2817C176.293 76.7975 176.001 76.3736 175.586 76.1003C174.26 75.2153 172.886 74.4057 171.468 73.6753C174.532 73.5705 174.23 73.6142 174.994 73.5385ZM164.533 71.8584L166.212 71.1639C166.641 70.9854 166.827 71.6819 166.407 71.8565L164.728 72.5471C164.294 72.7295 164.109 72.033 164.533 71.8584ZM167.15 75.4717C166.712 75.8572 166.196 76.1444 165.636 76.3137C165.544 76.3394 165.445 76.3275 165.361 76.2807C165.277 76.2338 165.216 76.1559 165.19 76.0639C165.164 75.9719 165.176 75.8735 165.223 75.7903C165.27 75.707 165.349 75.6458 165.441 75.6201C165.882 75.4882 166.289 75.2651 166.636 74.9634C166.987 74.6598 167.499 75.1661 167.149 75.4717H167.15ZM140.8 109.428L137.653 110.668C137.22 110.839 137.033 110.143 137.458 109.976L140.604 108.738C141.036 108.565 141.231 109.261 140.799 109.428H140.8Z" fill="white"/>
<path d="M175.952 41.6332L174.18 50.2245C174.087 50.6765 174.783 50.8695 174.877 50.4185L176.65 41.8252C176.742 41.3713 176.046 41.1782 175.952 41.6322V41.6332Z" fill="black"/>
<path d="M186.629 43.615C186.691 43.5464 186.724 43.4568 186.722 43.3646C186.719 43.2725 186.681 43.1847 186.616 43.1193C186.55 43.0541 186.462 43.0164 186.369 43.014C186.277 43.0117 186.187 43.0449 186.118 43.1067C183.541 45.5948 178.052 51.1849 177.818 51.4264C177.756 51.495 177.722 51.5846 177.725 51.6767C177.727 51.7689 177.765 51.8567 177.83 51.9221C177.896 51.9875 177.984 52.0254 178.077 52.0277C178.17 52.0301 178.26 51.9968 178.329 51.9347C180.426 49.9132 185.929 44.3386 186.629 43.615Z" fill="black"/>
<path d="M91.4551 126.987C96.0932 138.058 94.7633 163.355 94.8393 174.935C94.8401 175.03 94.8784 175.121 94.9461 175.188C95.0138 175.256 95.1053 175.294 95.201 175.294H106.643C106.738 175.294 106.83 175.255 106.897 175.188C106.965 175.121 107.004 175.03 107.004 174.935C107.01 174.1 107.019 91.7571 107.019 91.6824C107.008 105.631 104.459 121.951 91.4551 126.987Z" fill="#004F9E"/>
<path d="M63.4658 124.315L39.8152 174.154C39.7683 174.238 39.7568 174.338 39.7832 174.43C39.8097 174.523 39.872 174.602 39.9566 174.649C40.0843 174.72 39.237 174.855 53.7236 174.695C53.8023 174.693 53.8786 174.667 53.941 174.619C54.0039 174.572 54.0497 174.506 54.0717 174.431C58.7809 161.364 67.9098 139.794 76.4577 128.279C71.9084 127.814 67.4947 126.468 63.4658 124.315Z" fill="#004F9E"/>
<path d="M60.3936 95.4791C60.4132 95.4663 60.4316 95.4516 60.4484 95.4353L60.3926 95.4781L60.3936 95.4791Z" fill="white"/>
<path d="M107.019 91.6823C107.015 91.5924 106.979 91.5068 106.916 91.4415C106.854 91.3763 106.77 91.3357 106.68 91.3273C106.582 91.3079 107.188 91.6697 86.0994 91.3273C85.4666 91.3176 85.9473 92.2207 85.0493 95.8068C84.8052 97.154 84.1755 98.4025 83.2358 99.4026C78.277 104.017 66.1265 98.5868 56.0918 98.0582C57.6252 97.3759 59.0694 96.5104 60.3926 95.4809C60.3449 95.5112 60.2908 95.5301 60.2346 95.5362C60.1784 95.5423 60.1215 95.5354 60.0684 95.5161C60.0153 95.4968 59.9674 95.4655 59.9284 95.4247C59.8894 95.384 59.8604 95.3348 59.8436 95.281C59.8436 95.281 59.5336 94.3896 51.5922 71.4355C51.5681 71.3435 51.5812 71.2457 51.6285 71.1631C51.6759 71.0805 51.7538 71.0195 51.8457 70.9932C48.4566 72.1727 44.0681 71.4278 42.0772 68.2219C40.0063 64.8851 41.4083 60.4939 43.9989 57.8429C47.0965 54.6807 51.7989 53.6564 56.0402 53.1627C57.1898 53.1287 58.3226 52.8796 59.3795 52.4284C59.8215 52.1995 60.1884 51.8495 60.4369 51.4198C60.6853 50.9901 60.8049 50.4986 60.7816 50.0034C60.4559 47.4591 56.63 47.6249 52.4327 46.5269C51.9305 46.4664 51.4587 46.2554 51.08 45.9219C50.7012 45.5884 50.4334 45.1482 50.312 44.6597C50.0761 43.3181 50.5889 42.3743 51.5698 37.3973C51.8848 36.2309 51.8672 35.0002 51.5191 33.8432C51.351 33.3901 51.0826 32.9804 50.7338 32.6446C50.3849 32.3087 49.9645 32.0553 49.5038 31.9032C47.2466 31.1931 45.9158 33.9887 45.4604 35.7221C44.6171 38.9405 45.1787 39.4081 44.5342 42.2832C44.3002 43.0592 43.6109 43.8643 42.7499 43.3046C42.0148 42.6706 41.5411 41.7886 41.42 40.8282C40.5299 37.0907 41.15 35.3962 40.212 33.6036C39.9889 33.1738 39.6676 32.802 39.2739 32.5182C38.8802 32.2343 38.4251 32.0463 37.9451 31.9691C37.5123 31.9233 37.0756 32.0079 36.6918 32.212C36.3079 32.4161 35.9945 32.7303 35.7923 33.1137C35.4064 33.9055 35.2228 34.7798 35.258 35.659C35.2805 36.9045 35.4433 41.4305 35.4433 41.4305C35.5115 42.0407 35.5008 42.6566 35.414 43.2648C35.3034 43.6505 35.0552 43.9828 34.716 44.1995C34.3768 44.4163 33.9698 44.5026 33.5713 44.4424C31.4019 44.3289 30.7438 41.7943 30.2495 40.1045C29.7152 38.3003 28.8562 36.2245 26.759 35.821C26.342 35.7346 25.9105 35.7479 25.4997 35.8599C25.089 35.9719 24.7109 36.1793 24.3965 36.4651C24.0854 36.8655 23.8764 37.335 23.7874 37.8333C23.6984 38.3317 23.7321 38.844 23.8856 39.3266C23.9656 39.7243 26.7404 50.5611 26.7658 50.6581C25.2487 52.9338 23.6458 55.1531 22.2086 57.4831C19.0638 62.3885 17.2437 68.018 16.9241 73.8276C16.7057 81.896 21.2005 89.4785 27.7964 94.0501C33.9682 98.3503 41.4374 100.411 48.9539 99.8876C47.0633 101.731 46.2638 104.3 43.7279 110.679C42.9888 112.532 42.1874 114.375 41.5156 116.253C41.1002 117.417 40.7629 119.029 41.7106 120.036C42.8338 121.222 44.5712 120.491 45.5131 119.476C46.5505 118.357 46.841 116.627 48.1027 115.701C48.3572 115.515 48.7988 115.275 49.0777 115.538C49.5896 116.015 49.1391 118.151 49.1118 119.515C49.0855 120.78 49.4589 122.503 50.9204 122.864C53.0976 123.4 54.5825 119.983 55.3625 117.893C57.7533 120.561 60.5943 122.793 63.7573 124.489C72.4055 129.083 84.4858 129.667 91.4473 126.992C103.554 122.336 106.583 107.754 106.962 94.861C107.001 93.7989 107.029 92.7406 107.019 91.6823ZM32.8751 91.6358C32.0141 91.5796 31.1756 91.3376 30.418 90.9267C29.6604 90.5159 29.0017 89.9459 28.4876 89.2564C28.2098 88.8849 28.8357 88.5289 29.1116 88.8936C29.5562 89.4806 30.1228 89.9652 30.7728 90.3144C31.4228 90.6636 32.1409 90.8692 32.8781 90.917C33.3383 90.9471 33.3392 91.6659 32.8751 91.6358ZM37.5941 53.9668C37.5615 54.02 37.5156 54.0639 37.461 54.0944C37.4064 54.1249 37.3448 54.1409 37.2821 54.1409C37.2195 54.1409 37.1579 54.1249 37.1033 54.0944C37.0486 54.0639 37.0028 54.02 36.9701 53.9668C36.3567 53.1872 35.5504 52.5792 34.6301 52.2024C33.3724 51.5661 32.0474 51.0655 30.736 50.5534C30.308 50.3856 30.4932 49.6949 30.931 49.8608C32.3368 50.3945 33.7207 50.9834 35.0796 51.6262C35.8964 52.0076 36.6367 52.5335 37.2646 53.1782C38.7058 51.1005 40.7552 49.5148 43.1341 48.6367C43.5709 48.4756 43.7581 49.1702 43.3291 49.3302C40.9539 50.2009 38.9366 51.8318 37.5941 53.9668ZM54.7073 117.123C54.6588 117.2 54.5825 117.256 54.4939 117.279C54.4053 117.302 54.3111 117.291 54.2306 117.248C52.3292 116.195 50.721 114.688 49.5506 112.862C49.298 112.474 49.923 112.112 50.1746 112.5C51.2873 114.213 52.8046 115.63 54.5942 116.627C54.6746 116.678 54.7319 116.759 54.7541 116.851C54.7647 116.897 54.766 116.945 54.758 116.991C54.7499 117.038 54.7327 117.083 54.7073 117.123ZM94.8335 117.869L91.8285 121.469C91.5311 121.826 91.0222 121.315 91.3176 120.961L94.3216 117.361C94.6199 117.005 95.1279 117.515 94.8335 117.869Z" fill="white"/>
<path d="M86.4406 29.6246C86.222 29.0993 85.9 28.6228 85.4936 28.223C85.0873 27.8232 84.6047 27.5083 84.0743 27.2966C83.8196 27.2165 83.5488 27.2005 83.2864 27.2502C83.0239 27.2998 82.7779 27.4134 82.5705 27.5809C82.363 27.7483 82.2005 27.9644 82.0977 28.2097C81.9948 28.455 81.9547 28.7218 81.981 28.9863C82.0824 29.8883 82.3526 30.7634 82.7776 31.5665C82.4851 31.3725 82.1867 31.1844 81.8776 31.0136C81.204 30.5328 80.4138 30.2389 79.5883 30.162C79.2753 30.1783 78.9814 30.3172 78.7709 30.5484C78.5605 30.7796 78.4505 31.0842 78.4651 31.3958C78.5023 31.7422 78.625 32.074 78.8223 32.3618C79.0196 32.6495 79.2855 32.8841 79.5961 33.0448C79.7482 33.1418 79.9072 33.2252 80.0651 33.3135C79.7073 33.3659 79.3504 33.4163 78.9926 33.4716C78.5442 33.4919 78.1114 33.6412 77.7466 33.9013C77.0641 34.5163 77.299 35.9092 79.0063 36.303C81.1249 36.788 82.9823 36.5426 87.1573 36.5669C87.2523 36.5644 87.3428 36.5257 87.41 36.4587C87.4771 36.3917 87.5158 36.3016 87.518 36.207C87.5005 33.9789 87.5239 31.6403 86.4406 29.6246Z" fill="black"/>
<path d="M190.23 51.0694C190.656 50.888 190.289 50.2682 189.866 50.4486L180.186 54.574C179.76 54.7554 180.127 55.3752 180.551 55.1948L190.23 51.0694Z" fill="black"/>
<path d="M140.58 180.793C132.265 176.627 122.699 175.654 113.709 178.059C111.209 178.716 108.785 179.629 106.475 180.786C106.416 180.808 106.366 180.848 106.331 180.9C106.297 180.952 106.279 181.013 106.28 181.076C106.28 181.117 106.29 181.158 106.306 181.196C106.323 181.272 106.366 181.34 106.427 181.389C106.488 181.437 106.564 181.463 106.643 181.463H140.397C140.475 181.46 140.551 181.433 140.612 181.385C140.674 181.337 140.718 181.271 140.739 181.196C140.76 181.121 140.755 181.041 140.727 180.968C140.697 180.896 140.646 180.835 140.58 180.793Z" fill="black"/>
<path d="M53.9058 180.193C48.5418 177.559 42.6405 176.189 36.6588 176.188C30.6771 176.187 24.7753 177.555 19.4103 180.187C19.3709 180.203 19.3351 180.226 19.3052 180.256C19.2753 180.286 19.2519 180.321 19.2365 180.361C19.2212 180.4 19.2141 180.442 19.2158 180.484C19.2175 180.526 19.228 180.567 19.2465 180.605C19.2624 180.68 19.3045 180.748 19.3653 180.795C19.4262 180.842 19.5019 180.866 19.579 180.863H53.7235C53.8017 180.861 53.8769 180.833 53.9383 180.785C53.9997 180.737 54.044 180.67 54.0648 180.595C54.0855 180.52 54.0813 180.44 54.0526 180.368C54.024 180.295 53.9725 180.234 53.9058 180.193Z" fill="black"/>
<path d="M177.279 177.792C171.917 175.154 166.015 173.781 160.033 173.78C154.05 173.779 148.148 175.15 142.784 177.785C142.745 177.801 142.709 177.825 142.679 177.855C142.65 177.885 142.626 177.921 142.61 177.96C142.595 177.999 142.588 178.041 142.59 178.083C142.591 178.125 142.601 178.167 142.62 178.204C142.637 178.279 142.679 178.346 142.739 178.393C142.8 178.44 142.876 178.464 142.953 178.461H177.097C177.175 178.459 177.251 178.432 177.312 178.384C177.374 178.336 177.418 178.27 177.439 178.195C177.46 178.119 177.455 178.039 177.427 177.967C177.397 177.895 177.346 177.834 177.279 177.792Z" fill="black"/>
<path d="M106.851 183.791C104.303 181.782 101.271 180.472 98.0559 179.992C94.8409 179.512 91.5556 179.878 88.5271 181.054C86.7494 181.748 85.0718 182.672 83.5381 183.804C83.2017 184.054 83.4874 184.562 83.8072 184.461H106.669C106.747 184.458 106.822 184.43 106.882 184.381C106.944 184.334 106.988 184.267 107.009 184.192C107.029 184.117 107.025 184.037 106.996 183.965C106.967 183.893 106.917 183.832 106.851 183.791Z" fill="black"/>
<path d="M11.0019 74.8905C11.3704 79.0261 12.601 83.0399 14.6153 86.676C14.8395 87.0815 15.4635 86.7187 15.2393 86.3132C13.2842 82.7896 12.0888 78.8993 11.7293 74.8905C11.6834 74.4346 10.961 74.4288 11.0019 74.8905Z" fill="black"/>
<path d="M12.5181 92.2963C8.71812 86.6713 6.46984 80.152 5.99824 73.391C5.96704 72.9322 5.24359 72.9283 5.27674 73.391C5.74666 80.2794 8.02725 86.9242 11.8902 92.66C12.1515 93.0422 12.7784 92.6823 12.5181 92.2972V92.2963Z" fill="black"/>
<path d="M155.619 144.187C155.716 144.639 156.414 144.448 156.316 143.993C156.099 142.998 155.881 142.003 155.666 141.008C155.568 140.556 154.87 140.747 154.968 141.202L155.619 144.187Z" fill="#004F9E"/>
<path d="M130.33 145.4C130.378 145.4 130.425 145.391 130.469 145.373C130.513 145.355 130.552 145.329 130.586 145.295C130.653 145.228 130.691 145.136 130.691 145.041L130.252 141.702C130.25 141.608 130.211 141.518 130.143 141.451C130.076 141.384 129.986 141.345 129.891 141.342C129.843 141.342 129.796 141.351 129.752 141.369C129.708 141.387 129.668 141.413 129.635 141.447C129.601 141.48 129.574 141.52 129.556 141.564C129.538 141.608 129.529 141.655 129.53 141.702L129.969 145.041C129.972 145.135 130.011 145.225 130.078 145.291C130.145 145.358 130.236 145.397 130.33 145.4Z" fill="#004F9E"/>
<path d="M84.4858 39.8329C83.6114 39.5141 82.6455 39.554 81.8007 39.9438C80.9558 40.3335 80.3012 41.0412 79.9808 41.9111C79.6604 42.781 79.7005 43.7419 80.0923 44.5825C80.484 45.423 81.1954 46.0742 82.0698 46.393C82.5027 46.5508 82.9627 46.6223 83.4234 46.6032C83.8841 46.5842 84.3366 46.4751 84.7549 46.2821C85.1732 46.0891 85.5492 45.8161 85.8615 45.4785C86.1737 45.1409 86.4161 44.7455 86.5747 44.3148C86.7334 43.884 86.8052 43.4264 86.7861 42.9681C86.767 42.5097 86.6573 42.0596 86.4633 41.6434C86.2693 41.2272 85.9949 40.8531 85.6556 40.5425C85.3163 40.2318 84.9188 39.9907 84.4858 39.8329Z" fill="white"/>
<path d="M118.301 56.3383C117.868 56.1805 117.408 56.109 116.947 56.128C116.487 56.147 116.034 56.256 115.616 56.4489C115.198 56.6418 114.822 56.9148 114.51 57.2522C114.198 57.5896 113.955 57.9849 113.797 58.4156C113.638 58.8462 113.566 59.3037 113.585 59.7619C113.604 60.2201 113.714 60.6701 113.908 61.0862C114.102 61.5023 114.376 61.8763 114.715 62.1869C115.054 62.4976 115.452 62.7387 115.885 62.8965C116.757 63.2087 117.718 63.1648 118.558 62.7743C119.398 62.3838 120.049 61.6785 120.368 60.8124C120.687 59.9463 120.649 58.9898 120.262 58.1517C119.874 57.3136 119.169 56.662 118.301 56.3393V56.3383Z" fill="white"/>
<path d="M18.5972 45.6509H14.3832C14.2874 45.6509 14.1955 45.6887 14.1278 45.7561C14.06 45.8235 14.022 45.915 14.022 46.0103C14.022 46.1056 14.06 46.197 14.1278 46.2644C14.1955 46.3318 14.2874 46.3696 14.3832 46.3696H18.5991C18.6917 46.3649 18.7789 46.3249 18.8427 46.258C18.9065 46.1912 18.9421 46.1025 18.9421 46.0103C18.9421 45.9181 18.9065 45.8294 18.8427 45.7625C18.7789 45.6956 18.6917 45.6557 18.5991 45.6509H18.5972Z" fill="black"/>
<path d="M23.871 21.4911C23.5356 21.171 23.0237 21.6783 23.3601 21.9994C24.4482 23.0373 26.9393 25.4196 27.0982 25.569C27.4336 25.891 27.9455 25.3837 27.6091 25.0617L23.871 21.4911Z" fill="black"/>
<path d="M53.0138 19.3174L50.3033 23.3497C50.0439 23.7377 50.6699 24.0966 50.9273 23.7125L53.6378 19.6802C53.8962 19.2941 53.2712 18.9342 53.0138 19.3174Z" fill="black"/>
<path d="M60.998 39.5312L64.547 37.3361C64.937 37.0917 64.5791 36.4689 64.1823 36.7153L60.6333 38.9143C60.2394 39.1549 60.5982 39.7766 60.998 39.5312Z" fill="black"/>
<path d="M62.3981 59.9894C62.8183 60.1834 63.1859 59.5597 62.7628 59.3686L59.1007 57.7196C58.6814 57.5256 58.3119 58.1493 58.736 58.3404L62.3981 59.9894Z" fill="black"/>
<path d="M101.451 29.0018C102.513 32.4802 103.106 36.0836 103.214 39.7174C103.228 40.1791 103.951 40.181 103.937 39.7174C103.829 36.019 103.227 32.3514 102.148 28.8107C102.01 28.3693 101.312 28.5575 101.451 29.0018Z" fill="black"/>
<path d="M100.499 40.6099C101.046 36.5972 100.208 32.5186 98.1211 29.0417C98.0703 28.9642 97.9915 28.909 97.901 28.8876C97.8105 28.8661 97.7151 28.8799 97.6346 28.9263C97.5542 28.973 97.4951 29.0489 97.4697 29.138C97.4442 29.2272 97.4544 29.3226 97.4981 29.4045C99.4525 32.7974 100.252 36.728 99.7767 40.6099C99.7172 41.0677 100.441 41.0629 100.499 40.6099Z" fill="black"/>
<path d="M174.295 69.6555C172.735 69.6555 171.17 69.6293 169.607 69.6215C175.692 61.0574 175.423 61.522 175.887 60.4356C176.041 60.0946 176.077 59.7127 175.991 59.349C175.905 58.9852 175.701 58.6598 175.41 58.4229C174.654 57.9049 173.655 58.3918 172.973 58.8109C171.827 59.5587 172.32 59.2396 164.137 66.534C162.802 60.584 162.878 60.811 162.543 60.1126C162.404 59.8381 162.189 59.6086 161.924 59.4507C161.659 59.2927 161.354 59.2128 161.045 59.2202C160.736 59.2279 160.435 59.3227 160.178 59.4936C159.921 59.6644 159.718 59.9043 159.593 60.1854C159.287 60.8532 159.158 61.5879 159.219 62.3194V70.3044C153.627 75.7965 147.575 81.408 142.441 86.0436C142.066 84.9087 140.068 78.8472 139.634 77.7346C138.223 74.2259 135.922 71.1413 132.954 68.7825C131.378 64.1728 129.552 59.6518 127.483 55.2393C126.898 53.9851 126.258 52.7552 125.66 51.5068C124.778 49.4477 123.422 47.6229 121.703 46.1786C120.756 39.1529 119.999 32.1669 119.566 27.1161C120.157 27.6862 120.659 28.34 121.057 29.0561C121.76 30.0319 122.921 30.9418 124.191 30.3782C124.497 30.2284 124.75 29.9895 124.916 29.6933C125.083 29.397 125.155 29.0574 125.123 28.7195C125.102 28.4956 125.036 28.2782 124.929 28.0803C124.324 26.8697 123.527 25.7648 122.566 24.8085C121.641 23.9699 121.012 22.8564 120.774 21.6337C120.797 20.5037 121.25 19.4244 122.042 18.6141C122.861 17.7361 123.612 16.798 124.29 15.8079C124.623 15.3282 124.816 14.7664 124.848 14.1845C124.881 13.6026 124.751 13.0231 124.473 12.5099C124.322 12.2574 124.091 12.0614 123.817 11.9517C123.543 11.842 123.24 11.8248 122.955 11.9026C122.766 11.9541 122.591 12.0458 122.441 12.1713C120.978 13.3819 120.264 15.1066 118.688 16.4539C118.454 16.6841 118.156 16.8383 117.833 16.8962C116.907 16.9563 116.963 14.7515 116.795 13.9222C116.526 12.5943 115.484 10.502 113.773 11.1024C113.415 11.2332 113.115 11.4847 112.924 11.8131C112.733 12.1415 112.664 12.526 112.729 12.8998C112.852 14.0502 113.374 16.4267 113.456 17.1542C113.475 17.3269 113.523 17.7682 113.246 17.7498C112.969 17.7314 112.707 17.3017 112.589 17.0921C112.499 16.9321 112.414 16.7362 111.419 14.444C111.119 13.7563 110.898 12.9444 110.131 12.6389C109.874 12.5382 109.595 12.5031 109.321 12.537C109.047 12.5709 108.785 12.6726 108.56 12.8329C108.295 13.0744 108.09 13.3745 107.962 13.709C107.834 14.0435 107.787 14.4032 107.823 14.7593C107.674 18.2203 107.842 14.0696 106.789 51.7483C106.467 53.4468 106.32 55.1737 106.35 56.9019C106.34 58.8041 106.295 60.7053 106.262 62.6065C103.547 56.5527 94.9475 52.4787 88.3224 51.2391C83.6592 50.6061 78.9235 50.7346 74.3019 51.6193C69.2855 52.5573 64.235 54.5293 61.1297 58.5616L59.1407 57.6653C58.6532 57.4441 58.2212 58.1668 58.7156 58.3889L60.6305 59.2532C57.6733 63.948 56.7597 67.8396 53.5783 70.0444C50.2009 72.3501 44.4786 71.9194 42.1259 68.1879C40.0921 64.8608 41.4659 60.5132 44.0379 57.8865C47.1228 54.7349 51.8057 53.7155 56.0363 53.2237C57.1964 53.1896 58.3396 52.9378 59.4059 52.4816C59.857 52.2477 60.2316 51.8905 60.4855 51.4519C60.7395 51.0134 60.8621 50.5118 60.8391 50.0062C60.5115 47.4066 56.6466 47.5695 52.4444 46.4715C51.9524 46.4128 51.4902 46.2064 51.1192 45.8797C50.7481 45.5531 50.486 45.1217 50.3676 44.6431C50.3017 43.497 50.4505 42.3487 50.8064 41.2568C51.638 37.3603 52.2279 35.4785 51.5737 33.8275C51.4045 33.3634 51.1314 32.9437 50.7749 32.6001C50.4185 32.2566 49.9881 31.9983 49.5164 31.8449C47.2213 31.1232 45.8816 33.942 45.399 35.7045C44.5449 39.1189 45.1124 39.4138 44.4728 42.2666C44.2495 43.0105 43.6011 43.7895 42.7763 43.2511C42.0553 42.6237 41.5917 41.7543 41.4737 40.8086C40.5835 37.0557 41.2075 35.3505 40.2598 33.5705C40.0334 33.1309 39.7056 32.7507 39.3034 32.4611C38.9011 32.1715 38.4357 31.9806 37.9451 31.904C37.5008 31.8576 37.0527 31.9449 36.6588 32.1547C36.2649 32.3645 35.9434 32.687 35.7358 33.0806C35.3452 33.8818 35.159 34.7663 35.1937 35.656C35.2161 36.9024 35.3789 41.4265 35.3789 41.4265C35.4471 42.0315 35.4376 42.6427 35.3507 43.2453C35.2447 43.6188 35.0046 43.9407 34.6758 44.1497C34.3471 44.3587 33.9527 44.4404 33.5674 44.3792C31.4331 44.2677 30.7935 41.7427 30.3031 40.086C29.7639 38.2634 28.8903 36.1691 26.7707 35.7608C26.3435 35.6719 25.9012 35.6853 25.4802 35.8C25.0593 35.9147 24.6718 36.1273 24.3497 36.4204C24.0309 36.8282 23.8165 37.3071 23.7249 37.8157C23.6334 38.3243 23.6675 38.8475 23.8242 39.3401C23.9042 39.7368 26.6712 50.5465 26.6966 50.6444C23.3816 55.6128 20.6369 58.9573 18.4812 65.1877C16.4316 70.5371 16.327 76.4313 18.1858 81.8493C20.0541 86.8064 23.3954 91.08 27.7652 94.1014C33.8984 98.3946 41.3304 100.456 48.8115 99.9389C46.9766 101.803 46.1693 104.382 43.6713 110.662C42.9342 112.517 42.1308 114.359 41.461 116.238C41.0369 117.425 40.7063 119.051 41.6755 120.076C42.8201 121.287 44.6005 120.555 45.5618 119.515C46.5953 118.402 46.8888 116.674 48.1397 115.751C49.8879 114.464 49.0952 117.825 49.0601 119.514C49.0328 120.807 49.4238 122.552 50.9126 122.92C53.1064 123.461 54.5981 120.119 55.3976 118.005C57.6897 120.545 60.3918 122.685 63.3926 124.339L39.7625 174.124C39.7202 174.197 39.7012 174.282 39.7079 174.367C39.7147 174.451 39.747 174.532 39.8006 174.598C39.8357 174.641 39.8786 174.678 39.9283 174.705C40.0784 174.788 39.237 174.923 53.7245 174.759C53.816 174.756 53.9041 174.724 53.9768 174.669C54.0495 174.614 54.1031 174.537 54.1301 174.45C54.8936 172.145 59.2128 160.947 64.0498 150.454C67.4896 143.03 71.6548 134.866 76.4849 128.346C79.97 128.773 83.4965 128.741 86.973 128.249C88.495 128.005 89.988 127.607 91.4288 127.061C91.4063 127.089 91.5341 127.239 91.9757 128.535C95.6807 139.904 94.7964 158.61 94.7789 174.936C94.7806 175.047 94.8257 175.153 94.9045 175.231C94.9834 175.309 95.0897 175.354 95.201 175.355H106.643C106.754 175.355 106.861 175.31 106.94 175.232C107.018 175.153 107.063 175.047 107.064 174.936V172.16H137.757C137.868 172.159 137.975 172.114 138.053 172.036C138.132 171.958 138.177 171.852 138.178 171.741L134.322 135.15C134.538 136.419 140.562 171.824 140.562 171.853C140.587 171.941 140.64 172.019 140.714 172.074C140.787 172.129 140.876 172.16 140.969 172.16C165.035 172.19 171.231 172.203 172.833 172.16C173.299 172.147 173.757 172.052 173.564 171.63C173.407 171.215 149.017 105.601 148.994 105.535C154.551 98.3849 164.242 85.2114 168.733 77.367C170.513 78.2729 172.275 79.3419 174.355 79.21C175.388 79.144 176.624 78.4883 176.457 77.2768C176.347 76.7749 176.045 76.3354 175.615 76.0516C174.355 75.2052 173.047 74.4309 171.699 73.7324C173.892 73.6557 174.229 73.6751 174.993 73.6014C177.957 73.4918 179.158 69.6632 174.295 69.6555ZM61.3919 59.6014L62.3669 60.0418C62.8544 60.263 63.2864 59.5393 62.793 59.3172L61.9155 58.9205C64.4856 55.7602 68.333 53.9298 72.2798 52.922C76.8738 51.8166 81.6136 51.4343 86.3266 51.789C94.4259 52.7416 106.314 58.6052 106.201 66.5553V91.268H86.5547C87.0385 86.2861 87.0016 81.2676 86.4446 76.2932C86.3929 75.7606 85.5485 75.7558 85.6022 76.2932C86.2164 81.9657 86.3373 90.2709 84.9899 95.7902C84.7437 97.126 84.1197 98.3644 83.191 99.3598C80.656 101.72 76.4947 101.331 73.0666 100.834C72.7965 99.6197 69.2358 83.5905 69.2348 83.5779C69.2107 83.4998 69.1643 83.4302 69.1014 83.3777C69.0385 83.3251 68.9617 83.2917 68.8802 83.2814C68.7987 83.2712 68.716 83.2846 68.6419 83.3199C68.5678 83.3553 68.5056 83.4112 68.4626 83.4809C66.3098 87.6325 63.9776 91.5319 60.3896 94.4739L52.4746 71.5693C57.3554 69.5817 58.6658 63.4659 61.391 59.6014H61.3919ZM72.1735 100.692C66.5887 99.7924 62.2977 98.4247 56.2985 98.0163C57.795 97.3447 59.2024 96.4921 60.4891 95.4778C64.0693 92.6842 66.5341 88.8876 68.6645 84.8932C68.7347 85.2113 71.8761 99.354 72.1745 100.692H72.1735ZM38.9328 98.2462C23.5278 94.3371 13.9377 80.956 19.1052 65.9908C20.2935 62.4654 21.9592 59.1175 24.0563 56.0396C24.9338 54.7155 27.3878 51.1702 27.5195 50.9335C27.5848 50.6988 27.5653 50.4485 27.4639 50.2273C27.4639 50.2273 25.2311 41.5759 24.7339 39.5418C24.578 39.1525 24.5084 38.7343 24.5299 38.3158C24.5515 37.8972 24.6636 37.4882 24.8587 37.1168C25.0497 36.9021 25.2917 36.7383 25.5627 36.6406C25.8337 36.5428 26.1249 36.5141 26.4099 36.5571C28.0323 36.6939 28.823 38.2488 29.2764 39.6165C29.7893 41.1685 30.0935 42.8738 31.244 44.1193C31.6912 44.6289 32.2884 44.9854 32.9509 45.1383C33.6133 45.2911 34.3073 45.2326 34.9343 44.9709C36.6893 44.2172 36.2408 41.9794 36.1892 40.4478C36.0078 35.0556 35.8557 34.2301 36.7235 33.1534C36.9631 32.9193 37.2763 32.7744 37.6106 32.7429C37.945 32.7115 38.28 32.7954 38.5594 32.9807C40.2169 33.9313 39.9946 36.1817 40.1389 37.8065C40.2344 38.7668 40.3807 39.7203 40.5776 40.6651C40.7258 41.475 41.0066 42.2549 41.4064 42.9756C41.5721 43.2822 41.7986 43.552 42.0723 43.7688C42.346 43.9855 42.6612 44.1447 42.9986 44.2366C43.3481 44.2955 43.7072 44.2529 44.033 44.1139C44.3588 43.9749 44.6374 43.7454 44.8355 43.4529C45.2225 42.8369 45.4478 42.1337 45.4907 41.4091C45.791 38.8725 45.711 35.9257 47.1784 33.716C47.3531 33.3735 47.621 33.0868 47.9517 32.8887C48.2824 32.6906 48.6625 32.589 49.0484 32.5956C49.4124 32.6692 49.7531 32.829 50.0416 33.0616C50.3302 33.2941 50.5581 33.5925 50.7059 33.9313C51.3348 35.4251 50.9555 36.5319 50.3062 39.5709C49.5944 42.8971 49.3146 43.6129 49.5974 45.0621C50.0556 46.842 51.8945 47.2271 53.4593 47.5521C57.5222 48.3969 57.6343 48.3582 58.7536 48.782C59.06 48.8761 59.3368 49.047 59.5574 49.2784C59.7781 49.5098 59.9351 49.7939 60.0133 50.1032C60.0115 50.4952 59.8877 50.877 59.659 51.1963C59.4303 51.5155 59.1079 51.7564 58.736 51.886C57.8675 52.1857 56.9589 52.3547 56.0402 52.3875C51.756 52.8861 47.3334 53.8823 44.0633 56.7147C40.799 59.5219 39.0186 64.6571 41.4015 68.6137C43.3203 71.6576 47.584 73.1038 51.6761 71.8603C51.6761 71.8603 59.6106 94.8396 59.6857 95.0365C58.0136 96.2876 56.157 97.2738 54.1818 97.9601C52.7311 97.9094 51.2945 98.2581 50.0303 98.9679C46.3192 99.4499 42.5492 99.2047 38.9328 98.2462ZM53.4291 173.912H40.7902L64.1297 124.733C67.6943 126.539 71.5468 127.716 75.5158 128.211C67.2185 139.49 58.1744 160.932 53.4291 173.912ZM87.8681 127.221C84.3896 127.847 80.8385 127.971 77.3244 127.589C68.6469 126.836 61.0253 123.259 55.541 116.913C55.4806 116.854 55.404 116.815 55.3209 116.8C55.2379 116.785 55.1522 116.795 55.0749 116.829C55.0237 116.851 54.9774 116.883 54.9384 116.923C54.4387 118.384 53.755 119.776 52.9036 121.066C52.6387 121.44 52.2962 121.753 51.8993 121.984C50.8132 122.554 49.9493 121.346 49.9152 120.104C49.8421 117.653 50.5499 116.001 49.6988 115.043C49.4167 114.784 49.0451 114.644 48.6615 114.651C48.2779 114.658 47.9119 114.812 47.6396 115.081C47.0419 115.572 46.5547 116.183 46.2092 116.874C45.5891 118.053 44.8881 119.669 43.3603 119.862C43.0681 119.9 42.7716 119.836 42.5222 119.68C42.2729 119.523 42.0864 119.285 41.9953 119.006C41.8342 118.359 41.8657 117.679 42.086 117.049C42.3785 116.103 42.0743 116.94 46.2892 106.344C47.3617 103.636 48.4829 100.094 51.6088 99.1464C53.38 98.7406 55.2106 98.6587 57.0113 98.9048C66.8432 99.7274 77.1811 104.178 82.7513 100.734C83.911 100.009 84.7985 98.9246 85.2765 97.6477C85.9219 95.8591 86.3226 93.9922 86.468 92.0974H106.228C106.376 98.9249 105.428 105.732 103.42 112.263C100.84 119.995 95.8874 125.582 87.869 127.225V127.221H87.8681ZM106.221 174.511H95.6242C95.6388 160.35 96.6782 137.628 92.1951 126.737C100.399 123.262 104.36 114.783 105.904 106.011C106.025 105.351 106.165 104.452 106.279 103.658C106.194 105.542 106.221 115.001 106.221 174.515V174.511ZM138.819 77.9577C139.354 79.3332 141.373 85.4878 141.757 86.6625C141.488 86.9059 137.662 90.3582 136.01 91.8335C132.97 88.296 127.97 82.7466 124.545 79.4331C124.465 79.3587 124.359 79.3182 124.249 79.32C124.14 79.3219 124.035 79.366 123.958 79.443C123.881 79.52 123.836 79.6239 123.834 79.7328C123.832 79.8418 123.873 79.9471 123.948 80.0267C126.343 82.4335 128.684 84.8934 130.968 87.4045L118.981 101.55C115.831 99.3246 112.694 97.079 109.573 94.8134C109.134 94.4943 108.714 95.2218 109.147 95.537C112.347 97.865 120.12 103.368 120.759 103.816C120.759 103.816 107.249 103.805 107.079 103.809V77.8132C107.235 75.3668 114.606 68.0317 122.747 66.9695C125.036 66.6123 127.38 66.8632 129.541 67.697C133.666 69.5885 137.194 73.8536 138.819 77.9616V77.9577ZM108.716 14.0822C108.725 13.9659 108.76 13.8531 108.819 13.7521C108.878 13.651 108.958 13.5642 109.055 13.4979C109.152 13.4316 109.262 13.3875 109.378 13.3688C109.493 13.3501 109.612 13.3572 109.725 13.3897C109.876 13.4325 110.01 13.5189 110.112 13.638C110.641 14.639 111.103 15.674 111.493 16.7361C111.831 17.5121 112.333 18.6762 113.357 18.5859C114.196 18.5074 114.358 17.6353 114.26 16.9573C114.12 15.9805 113.591 13.2451 113.553 12.8562C113.511 12.6884 113.521 12.5118 113.583 12.3501C113.645 12.1884 113.755 12.0494 113.899 11.9521C114.581 11.5641 115.209 12.2586 115.501 12.7989C116.378 14.4169 115.836 15.1764 116.46 16.7759C116.561 17.0325 116.73 17.257 116.948 17.4256C117.167 17.5942 117.428 17.7006 117.703 17.7333C120.261 17.8895 122.9 10.7493 123.873 13.1743C124.055 13.6438 124.063 14.1637 123.895 14.638C123.295 16.578 121.288 17.3822 120.122 20.1991C118.964 23.5941 123.01 25.7222 124.111 28.3063C124.223 28.4762 124.282 28.6759 124.278 28.8793C124.274 29.0827 124.209 29.2803 124.09 29.4461C123.371 30.095 122.275 29.4315 121.799 28.6613C121.066 27.6525 120.491 26.3692 119.186 25.9987C119.092 25.9733 118.991 25.9813 118.902 26.0213C118.813 26.0613 118.741 26.1308 118.698 26.2179C118.669 26.2755 118.653 26.3388 118.653 26.4032C119.202 32.9264 119.926 39.0927 120.773 45.5558C119.154 44.5284 117.251 44.0326 115.334 44.1382C113.416 44.2439 111.58 44.9456 110.084 46.1446C109.092 46.9401 108.277 47.9324 107.691 49.0585C108.721 12.3188 108.65 14.5692 108.716 14.0822ZM107.175 58.3744C107.212 55.2636 107.045 51.9161 108.613 49.1012C109.406 47.7299 110.58 46.6149 111.993 45.8893C113.406 45.1638 115 44.8584 116.583 45.0097C120.101 45.3803 122.654 47.5715 124.285 50.7085C127.198 56.2624 129.695 62.0231 131.754 67.9434C124.001 62.9654 112.205 68.2878 107.077 75.653C107.075 57.9379 107.086 65.9258 107.175 58.3744ZM172.55 171.32H141.328L132.933 121.931C132.854 121.47 132.055 121.572 132.105 122.042C132.151 122.486 137.202 170.791 137.278 171.318H107.073V104.654H121.96C124.113 106.161 131.547 111.364 133.14 112.414C134.494 113.353 136.028 114.005 137.646 114.329C138.559 114.535 139.509 114.515 140.413 114.272C141.317 114.029 142.148 113.57 142.833 112.934C144.085 111.749 147.318 107.665 148.384 106.309C151.583 115.337 172.513 171.222 172.55 171.32ZM176.032 72.4772C175.472 72.722 174.862 72.8329 174.25 72.8012C172.862 72.8516 171.473 72.9001 170.085 72.9467C169.695 72.9603 169.477 73.5345 169.871 73.7285C171.78 74.6415 173.611 75.7071 175.347 76.9149C175.421 76.9732 175.483 77.0459 175.528 77.1286C175.574 77.2113 175.601 77.3023 175.61 77.3961C175.619 77.4896 175.609 77.584 175.58 77.6736C175.552 77.7632 175.506 77.8462 175.445 77.9179C175.282 78.0773 175.087 78.2003 174.873 78.279C174.659 78.3576 174.431 78.3899 174.203 78.3738C172.189 78.4088 170.82 77.5163 168.779 76.4493C168.682 76.3957 168.568 76.3814 168.461 76.4094C168.353 76.4374 168.261 76.5056 168.202 76.5997C161.261 88.3765 147.072 107.125 142.768 111.787C142.399 112.278 141.933 112.689 141.399 112.995C140.865 113.302 140.274 113.497 139.662 113.57C136.376 113.983 133.528 111.673 131.009 109.937C127.222 107.313 123.441 104.68 119.668 102.037L131.536 88.0331C132.935 89.5851 134.315 91.1516 135.674 92.7318C135.755 92.8079 135.861 92.8503 135.972 92.8503C136.083 92.8503 136.19 92.8079 136.27 92.7318C141.549 87.8313 146.985 83.1016 152.235 78.1711C152.466 77.9548 159.814 70.9495 160.001 70.6963C160.079 70.4577 160.06 70.9349 160.06 62.5017C159.933 61.75 160.097 60.9788 160.519 60.3425C160.916 59.8575 161.678 59.9448 161.938 60.8033C162.15 61.4823 162.319 62.1719 162.445 62.8713C162.788 64.3923 163.136 65.9122 163.475 67.4303C163.506 67.5364 163.577 67.6264 163.674 67.6808C163.771 67.7352 163.885 67.7497 163.992 67.7213C164.063 67.7026 164.128 67.6662 164.18 67.6156C165.576 66.3206 171.745 60.8139 172.359 60.2959C172.931 59.7476 173.618 59.3316 174.371 59.0776C175.162 58.8768 175.284 59.6237 175.073 60.2086C174.678 61.0962 175.206 60.2853 168.434 69.8204C168.398 69.8844 168.379 69.9566 168.38 70.03C168.38 70.1034 168.399 70.1755 168.435 70.2394C168.472 70.3027 168.525 70.3553 168.589 70.3924C168.652 70.4294 168.724 70.4495 168.798 70.4509C170.435 70.4509 172.071 70.4809 173.708 70.4887C174.343 70.4548 174.98 70.4857 175.608 70.5808C175.842 70.596 176.067 70.6752 176.258 70.8098C176.449 70.9444 176.599 71.129 176.692 71.3433C176.713 71.5769 176.661 71.8113 176.543 72.0144C176.425 72.2174 176.247 72.3791 176.032 72.4772Z" fill="black"/>
<path d="M174.936 50.4311L176.707 41.8379C176.816 41.3112 176.003 41.0861 175.895 41.6148L174.122 50.209C174.013 50.7357 174.826 50.9617 174.936 50.4321V50.4311Z" fill="black"/>
<path d="M177.776 51.3835C177.703 51.4634 177.665 51.5679 177.667 51.6754C177.67 51.7829 177.714 51.8853 177.791 51.9614C177.867 52.0375 177.97 52.0816 178.078 52.0845C178.186 52.0874 178.291 52.049 178.372 51.9771C180.466 49.9547 185.971 44.3811 186.672 43.6574C186.744 43.5774 186.783 43.4729 186.78 43.3654C186.777 43.2578 186.732 43.1556 186.656 43.0796C186.579 43.0036 186.476 42.9597 186.368 42.9569C186.26 42.9542 186.155 42.9928 186.075 43.0648C183.499 45.5528 178.009 51.142 177.776 51.3835Z" fill="black"/>
<path d="M77.7046 33.8566C76.9968 34.5006 77.2171 35.9498 78.9916 36.3592C80.9728 36.816 82.5426 36.6288 87.1572 36.624C87.2684 36.622 87.3745 36.5772 87.4532 36.4991C87.5319 36.421 87.5772 36.3155 87.5794 36.2049C87.5794 33.9671 87.5794 31.6197 86.4933 29.5934C85.9882 28.6544 85.2053 27.4904 84.0899 27.2402C83.8374 27.1763 83.5745 27.1646 83.3173 27.2056C83.06 27.2466 82.814 27.3396 82.5942 27.4788C82.3619 27.6521 82.178 27.8817 82.0601 28.1457C81.9421 28.4098 81.8941 28.6994 81.9205 28.9872C82.0112 29.832 82.2549 30.6536 82.6401 31.4122C81.7255 30.8302 80.4999 30.0454 79.5883 30.1027C79.4086 30.1118 79.2329 30.1595 79.0734 30.2425C78.914 30.3256 78.7744 30.4419 78.6644 30.5836C78.5544 30.7254 78.4765 30.8891 78.436 31.0636C78.3955 31.238 78.3935 31.4192 78.43 31.5945C78.4966 31.9122 78.633 32.2113 78.8293 32.4703C79.0257 32.7294 79.2772 32.9421 79.5659 33.0932C79.6702 33.1582 79.7784 33.2154 79.8857 33.2775C79.5825 33.3211 79.2802 33.3648 78.978 33.4104C78.5197 33.4336 78.0771 33.5888 77.7046 33.8566ZM81.3297 33.906C81.4083 33.8824 81.4783 33.8366 81.5313 33.7742C81.5843 33.7117 81.618 33.6354 81.6283 33.5543C81.6386 33.4733 81.6251 33.391 81.5894 33.3174C81.5537 33.2438 81.4974 33.1821 81.4272 33.1397C81.0029 32.941 80.5878 32.7235 80.1831 32.4879C79.7609 32.2396 79.053 31.7749 79.2695 31.1745C79.5132 30.4955 80.9036 31.3763 81.2439 31.5625C82.0648 31.999 82.8429 32.5083 83.5702 33.0854C83.9115 33.357 84.5228 33.0078 84.2313 32.5771C83.5908 31.6457 83.1217 30.6085 82.8458 29.5139C82.7483 29.1171 82.6508 28.5633 82.9803 28.2432C83.1313 28.1251 83.3119 28.0504 83.5025 28.0271C83.6931 28.0039 83.8864 28.033 84.0616 28.1112C84.8847 28.5863 85.5195 29.3274 85.8605 30.2113C86.2427 31.0125 86.4894 31.87 86.5898 32.7527C86.7019 33.7615 86.7497 34.7781 86.7321 35.7946C85.2696 35.8043 78.9058 36.1516 78.3003 35.0739C78.1833 34.8799 78.1053 34.6607 78.2194 34.5288C78.4222 34.2843 78.8522 34.2785 79.1466 34.2378C79.8759 34.1165 80.6023 34.0108 81.3297 33.906Z" fill="black"/>
<path d="M190.412 50.5475C190.353 50.4535 190.261 50.3855 190.153 50.3576C190.046 50.3296 189.932 50.3437 189.835 50.3971L180.156 54.5215C180.059 54.5778 179.989 54.6699 179.961 54.7776C179.932 54.8852 179.948 54.9997 180.005 55.0958C180.063 55.1896 180.155 55.2576 180.263 55.2856C180.37 55.3136 180.484 55.2995 180.581 55.2461L190.261 51.1217C190.356 51.0645 190.426 50.9725 190.454 50.8652C190.482 50.7579 190.467 50.6439 190.412 50.5475Z" fill="black"/>
<path d="M140.611 180.741C132.281 176.566 122.698 175.591 113.692 178.001C111.188 178.659 108.761 179.575 106.448 180.733C106.402 180.751 106.36 180.778 106.325 180.812C106.29 180.847 106.262 180.888 106.244 180.933C106.225 180.978 106.217 181.027 106.219 181.076C106.219 181.125 106.231 181.173 106.253 181.218C106.271 181.306 106.321 181.385 106.392 181.44C106.464 181.495 106.552 181.523 106.643 181.52H140.397C140.488 181.516 140.574 181.484 140.646 181.429C140.717 181.372 140.768 181.295 140.792 181.208C140.816 181.121 140.811 181.029 140.778 180.945C140.746 180.861 140.687 180.789 140.611 180.741ZM108.568 180.666C113.298 178.612 118.404 177.553 123.566 177.556C128.727 177.559 133.832 178.624 138.559 180.684C105.62 180.684 112.056 180.69 108.568 180.666Z" fill="black"/>
<path d="M53.9361 180.141C48.5634 177.503 42.6523 176.13 36.6605 176.128C30.6688 176.127 24.7571 177.497 19.3831 180.134C19.3367 180.151 19.2945 180.177 19.2592 180.212C19.2239 180.246 19.1964 180.288 19.1784 180.333C19.1601 180.379 19.1515 180.428 19.1532 180.477C19.1548 180.526 19.1667 180.574 19.1881 180.619C19.2074 180.706 19.2571 180.784 19.3283 180.839C19.3996 180.894 19.488 180.923 19.5781 180.919H53.7226C53.8129 180.916 53.8998 180.884 53.9707 180.828C54.0415 180.772 54.0926 180.695 54.1165 180.609C54.1404 180.522 54.1359 180.43 54.1037 180.346C54.0714 180.262 54.0131 180.19 53.9371 180.141H53.9361ZM21.5418 180.066C26.3288 178.01 31.4882 176.952 36.702 176.956C41.9158 176.959 47.0738 178.023 51.8584 180.084C16.4074 180.084 25.0908 180.09 21.5418 180.066Z" fill="black"/>
<path d="M150.085 175.01C147.556 175.67 145.101 176.584 142.757 177.736C142.677 177.782 142.614 177.852 142.578 177.936C142.542 178.02 142.535 178.114 142.557 178.203C142.579 178.292 142.629 178.371 142.7 178.429C142.772 178.487 142.86 178.521 142.952 178.524H177.096C177.187 178.521 177.275 178.489 177.347 178.433C177.419 178.377 177.47 178.3 177.495 178.212C177.519 178.124 177.513 178.031 177.48 177.947C177.446 177.862 177.386 177.791 177.309 177.743C168.87 173.567 159.191 172.596 150.085 175.01ZM144.917 177.667C149.705 175.613 154.864 174.555 160.077 174.558C165.291 174.561 170.449 175.626 175.234 177.685C139.782 177.685 148.464 177.695 144.915 177.667H144.917Z" fill="black"/>
<path d="M83.8189 184.521H106.669C106.76 184.517 106.847 184.485 106.918 184.428C106.989 184.372 107.04 184.295 107.065 184.208C107.089 184.12 107.084 184.028 107.051 183.943C107.018 183.859 106.958 183.788 106.882 183.739C104.324 181.732 101.285 180.423 98.0633 179.942C94.842 179.46 91.5501 179.822 88.5126 180.993C86.7247 181.68 85.0401 182.608 83.5059 183.751C83.1208 184.046 83.4445 184.639 83.8189 184.521ZM105.351 183.682C82.7386 183.682 87.13 183.688 85.1166 183.667C88.0971 181.639 91.6247 180.555 95.236 180.557C98.8472 180.56 102.373 181.649 105.351 183.682Z" fill="black"/>
<path d="M15.291 86.2822C13.3395 82.7682 12.1442 78.8888 11.781 74.8905C11.7332 74.357 10.8898 74.3521 10.9376 74.8905C11.3076 79.0377 12.5421 83.0628 14.5627 86.709C14.8249 87.1794 15.5533 86.7565 15.291 86.2822Z" fill="black"/>
<path d="M11.8415 92.6899C12.1427 93.1361 12.873 92.7171 12.5698 92.267C8.77847 86.6495 6.53474 80.1408 6.06265 73.3908C6.0256 72.8554 5.18515 72.8515 5.21927 73.3908C5.69179 80.2894 7.9752 86.944 11.8415 92.6899Z" fill="black"/>
<path d="M94.2797 117.318L91.2747 120.919C90.9306 121.331 91.5234 121.928 91.8705 121.512L94.8754 117.912C95.2196 117.499 94.6258 116.903 94.2797 117.318Z" fill="black"/>
<path d="M32.8751 90.8577C32.1487 90.8082 31.4415 90.6046 30.8007 90.2606C30.16 89.9166 29.6007 89.4402 29.1603 88.8634C29.1022 88.7693 29.0099 88.7012 28.9025 88.6732C28.7952 88.6452 28.6811 88.6595 28.5841 88.713C28.5364 88.7407 28.4946 88.7775 28.4612 88.8212C28.4278 88.865 28.4033 88.9149 28.3893 88.968C28.3752 89.0212 28.3719 89.0766 28.3794 89.131C28.3869 89.1855 28.4051 89.2379 28.433 89.2853C28.9527 89.9843 29.6194 90.5621 30.3866 90.9784C31.1538 91.3947 32.003 91.6395 32.8751 91.6958C33.4172 91.7307 33.4152 90.8907 32.8751 90.8577Z" fill="black"/>
<path d="M155.563 144.203C155.677 144.73 156.491 144.507 156.376 143.98L155.725 140.995C155.61 140.467 154.797 140.69 154.912 141.218C155.127 142.212 155.345 143.207 155.563 144.203Z" fill="black"/>
<path d="M129.891 141.282C129.835 141.282 129.78 141.293 129.729 141.314C129.678 141.335 129.631 141.366 129.592 141.405C129.553 141.444 129.522 141.49 129.501 141.541C129.48 141.592 129.469 141.647 129.469 141.702L129.908 145.041C129.911 145.151 129.957 145.256 130.035 145.334C130.114 145.412 130.219 145.457 130.33 145.46C130.386 145.46 130.44 145.449 130.491 145.428C130.543 145.408 130.59 145.377 130.629 145.338C130.668 145.299 130.699 145.252 130.719 145.201C130.741 145.15 130.752 145.096 130.751 145.041L130.313 141.702C130.309 141.592 130.263 141.487 130.185 141.409C130.107 141.331 130.001 141.286 129.891 141.282Z" fill="black"/>
<path d="M43.1185 48.5774C40.751 49.4515 38.7073 51.0225 37.2598 53.0811C36.6401 52.4558 35.9138 51.9448 35.1148 51.5718C33.7577 50.9121 32.3682 50.3207 30.9515 49.7996C30.4474 49.6056 30.2281 50.4127 30.7273 50.6086C32.0347 51.1208 33.3539 51.6203 34.6078 52.2576C35.5178 52.6308 36.3149 53.2324 36.9214 54.0036C36.9599 54.0654 37.0136 54.1163 37.0774 54.1517C37.1412 54.187 37.213 54.2056 37.2861 54.2056C37.3591 54.2056 37.4309 54.187 37.4948 54.1517C37.5586 54.1163 37.6123 54.0654 37.6507 54.0036C38.9882 51.8863 40.9872 50.2642 43.3408 49.3864C43.8478 49.2011 43.6333 48.3941 43.1185 48.5774Z" fill="black"/>
<path d="M80.5312 40.8279C80.0429 41.4072 79.7529 42.1261 79.7032 42.8805C79.6535 43.6348 79.8468 44.3852 80.2549 45.0229C80.663 45.6605 81.2647 46.1522 81.9728 46.4265C82.6808 46.7009 83.4583 46.7436 84.1924 46.5485C84.9265 46.3534 85.579 45.9306 86.0552 45.3415C86.5314 44.7525 86.8066 44.0278 86.8407 43.2726C86.8748 42.5174 86.6661 41.771 86.2449 41.1419C85.8237 40.5127 85.212 40.0334 84.4984 39.7736C83.8077 39.5281 83.0583 39.4975 82.3497 39.6858C81.641 39.8741 81.0068 40.2725 80.5312 40.8279ZM85.8371 42.186C86.0203 42.6909 86.0491 43.2385 85.9197 43.7597C85.7902 44.2809 85.5085 44.7522 85.1099 45.1142C84.7114 45.4761 84.214 45.7124 83.6806 45.7933C83.1471 45.8742 82.6015 45.7959 82.1128 45.5685C81.624 45.3411 81.2139 44.9746 80.9343 44.5154C80.6547 44.0563 80.5182 43.525 80.542 42.9886C80.5658 42.4523 80.7488 41.935 81.0679 41.5021C81.387 41.0692 81.8279 40.7401 82.3349 40.5564C83.0167 40.3147 83.7669 40.3502 84.4225 40.6553C85.0782 40.9604 85.5865 41.5104 85.8371 42.186Z" fill="black"/>
<path d="M115.86 62.9605C116.401 63.1565 116.98 63.22 117.55 63.1457C118.121 63.0714 118.664 62.8615 119.136 62.5337C119.607 62.2059 119.992 61.7699 120.258 61.2627C120.524 60.7554 120.663 60.1919 120.663 59.6198C120.656 58.893 120.429 58.1852 120.01 57.5894C119.592 56.9935 119.002 56.5375 118.318 56.2811C117.877 56.1206 117.409 56.048 116.94 56.0676C116.471 56.0871 116.011 56.1984 115.585 56.395C115.159 56.5916 114.776 56.8698 114.459 57.2136C114.141 57.5573 113.894 57.96 113.733 58.3986C113.572 58.8372 113.499 59.303 113.518 59.7697C113.538 60.2363 113.65 60.6945 113.847 61.1181C114.045 61.5417 114.325 61.9224 114.67 62.2386C115.016 62.5547 115.42 62.8 115.861 62.9605H115.86ZM116.153 57.0639C116.566 56.9154 117.008 56.8679 117.444 56.9255C117.879 56.983 118.294 57.1439 118.653 57.3946C119.013 57.6452 119.306 57.9783 119.509 58.3656C119.712 58.7529 119.818 59.1831 119.819 59.6198C119.814 60.1776 119.639 60.7207 119.317 61.1776C118.996 61.6344 118.542 61.9835 118.017 62.1787C117.509 62.3628 116.957 62.3926 116.431 62.2643C115.906 62.136 115.43 61.8554 115.065 61.458C114.7 61.0607 114.462 60.5644 114.38 60.0322C114.299 59.5 114.378 58.9557 114.608 58.4684C114.761 58.1449 114.975 57.8543 115.24 57.6133C115.505 57.3723 115.815 57.1856 116.153 57.0639Z" fill="black"/>
<path d="M54.6264 116.574C52.8463 115.583 51.3367 114.174 50.2291 112.469C49.9366 112.017 49.2054 112.437 49.4998 112.892C50.6822 114.72 52.2959 116.233 54.2003 117.299C54.2965 117.351 54.4095 117.364 54.515 117.335C54.6205 117.305 54.7102 117.235 54.7648 117.141C54.8202 117.047 54.8367 116.936 54.8109 116.83C54.785 116.724 54.7189 116.632 54.6264 116.574Z" fill="black"/>
<path d="M19.0039 45.9963C19.0005 45.89 18.9566 45.789 18.8811 45.7137C18.8056 45.6384 18.7041 45.5945 18.5973 45.5908H14.3833C14.275 45.596 14.1728 45.6425 14.098 45.7206C14.0232 45.7987 13.9814 45.9024 13.9814 46.0103C13.9814 46.1182 14.0232 46.222 14.098 46.3001C14.1728 46.3782 14.275 46.4247 14.3833 46.4299H18.5992C18.7106 46.4256 18.8158 46.3775 18.8916 46.2963C18.9675 46.215 19.0078 46.1071 19.0039 45.9963Z" fill="black"/>
<path d="M27.6521 25.017L23.914 21.4455C23.524 21.0721 22.9253 21.6647 23.3173 22.0391L27.0554 25.6087C27.4484 25.987 28.0441 25.3944 27.6521 25.017Z" fill="black"/>
<path d="M50.979 23.7425L53.6895 19.7102C53.9917 19.2601 53.2624 18.8372 52.9611 19.2863L50.2516 23.3196C49.9494 23.7696 50.6787 24.1896 50.979 23.7425Z" fill="black"/>
<path d="M61.0283 39.5824L64.5783 37.3835C65.0375 37.0983 64.6143 36.3727 64.1522 36.6589L60.6032 38.8588C60.143 39.143 60.5661 39.8696 61.0283 39.5824Z" fill="black"/>
<path d="M103.995 39.7174C103.885 36.0139 103.283 32.3411 102.203 28.7952C102.046 28.2802 101.228 28.5042 101.39 29.0183C102.451 32.4915 103.043 36.0893 103.151 39.7174C103.156 39.8255 103.202 39.9276 103.281 40.0022C103.36 40.0767 103.465 40.1179 103.573 40.1171C103.682 40.1177 103.786 40.0764 103.865 40.0018C103.944 39.9273 103.99 39.8253 103.995 39.7174Z" fill="black"/>
<path d="M100.137 41.0288C100.249 41.0273 100.355 40.9827 100.434 40.9044C100.513 40.8262 100.558 40.7205 100.56 40.6097C101.105 36.5864 100.263 32.498 98.1728 29.0114C98.1284 28.9446 98.0657 28.8918 97.9922 28.8592C97.9186 28.8266 97.8372 28.8155 97.7575 28.8274C97.6779 28.8392 97.6033 28.8734 97.5425 28.9259C97.4817 28.9784 97.4372 29.0471 97.4143 29.1239C97.3839 29.2274 97.3947 29.3386 97.4445 29.4343C99.3932 32.818 100.19 36.7377 99.7163 40.6087C99.7156 40.6919 99.7401 40.7734 99.7865 40.8426C99.8329 40.9117 99.8991 40.9655 99.9766 40.9967C100.028 41.018 100.082 41.0288 100.137 41.0288Z" fill="black"/>
<path d="M140.59 108.678L137.444 109.915C136.946 110.109 137.163 110.923 137.668 110.724L140.814 109.487C141.314 109.291 141.096 108.479 140.59 108.678Z" fill="black"/>
<path d="M166.713 71.3987C166.683 71.2917 166.612 71.2009 166.515 71.1463C166.417 71.0918 166.302 71.0778 166.195 71.1077L164.516 71.8022C164.41 71.8354 164.322 71.9072 164.267 72.0029C164.213 72.0987 164.197 72.2113 164.223 72.3182C164.253 72.4252 164.325 72.516 164.422 72.5705C164.519 72.6251 164.634 72.639 164.742 72.6092L166.421 71.9147C166.527 71.8822 166.616 71.8107 166.67 71.7147C166.725 71.6187 166.74 71.5056 166.713 71.3987Z" fill="black"/>
<path d="M166.595 74.9217C166.256 75.2161 165.857 75.4345 165.425 75.5619C164.908 75.7191 165.133 76.5319 165.65 76.3719C166.219 76.1997 166.745 75.9072 167.191 75.5144C167.601 75.1584 167.002 74.5667 166.595 74.9217Z" fill="black"/>
<path d="M113.814 21.5455C114.036 22.0363 114.763 21.6105 114.541 21.1216L113.914 19.7345C113.693 19.2437 112.966 19.6695 113.187 20.1584L113.814 21.5455Z" fill="black"/>
<path d="M117.695 20.8461C117.761 20.2137 117.827 19.5813 117.896 18.9488C117.954 18.4124 117.11 18.4153 117.053 18.9488L116.856 20.8461C116.795 21.3845 117.636 21.3796 117.695 20.8461Z" fill="black"/>
<path d="M109.782 41.4429C109.893 41.4405 109.999 41.3956 110.078 41.3175C110.156 41.2395 110.202 41.1343 110.204 41.0239C110.274 40.4254 110.287 39.8211 110.245 39.2207C110.207 38.6852 109.368 38.6813 109.402 39.2207C109.445 39.8221 109.431 40.4254 109.361 41.0239C109.362 41.1347 109.407 41.2407 109.485 41.3191C109.564 41.3974 109.671 41.4419 109.782 41.4429Z" fill="black"/>
</svg>
