<svg width="16" height="16" viewBox="0 0 16 16" fill="none" xmlns="http://www.w3.org/2000/svg">
<g clip-path="url(#clip0_81_1838)">
<path d="M3.83511 4.6483L5.50393 6.31712L4.57345 7.2476L1.3161 3.99026L4.57345 0.73291L5.50393 1.66339L3.83511 3.33221H8.55465C9.95085 3.33221 11.2899 3.88685 12.2771 4.87411C13.2644 5.86138 13.819 7.2004 13.819 8.5966C13.819 9.99281 13.2644 11.3318 12.2771 12.3191C11.2899 13.3064 9.95085 13.861 8.55465 13.861H2.6322V12.5449H8.55465C9.6018 12.5449 10.6061 12.1289 11.3465 11.3885C12.087 10.648 12.5029 9.64376 12.5029 8.5966C12.5029 7.54945 12.087 6.54518 11.3465 5.80473C10.6061 5.06429 9.6018 4.6483 8.55465 4.6483H3.83511Z" fill="#939393"/>
</g>
<defs>
<clipPath id="clip0_81_1838">
<rect width="15.7932" height="15.7932" fill="white" transform="translate(0 0.0419922)"/>
</clipPath>
</defs>
</svg>
