<svg width="24" height="25" viewBox="0 0 24 25" fill="none" xmlns="http://www.w3.org/2000/svg">
<g clip-path="url(#clip0_81_1752)">
<path d="M5 18.3948H19V11.4258C19 7.54278 15.866 4.39478 12 4.39478C8.134 4.39478 5 7.54278 5 11.4258V18.3948ZM12 2.39478C16.97 2.39478 21 6.43778 21 11.4258V20.3948H3V11.4258C3 6.43778 7.03 2.39478 12 2.39478ZM9.5 21.3948H14.5C14.5 22.0578 14.2366 22.6937 13.7678 23.1625C13.2989 23.6314 12.663 23.8948 12 23.8948C11.337 23.8948 10.7011 23.6314 10.2322 23.1625C9.76339 22.6937 9.5 22.0578 9.5 21.3948Z" fill="#09121F"/>
</g>
<defs>
<clipPath id="clip0_81_1752">
<rect width="24" height="24" fill="white" transform="translate(0 0.394775)"/>
</clipPath>
</defs>
</svg>
