<svg width="158" height="158" viewBox="0 0 158 158" fill="none" xmlns="http://www.w3.org/2000/svg">
<path d="M106.448 72.4022H56.7471C60.771 75.9841 62.8026 80.0386 63.8615 83.8341C66.4622 93.156 62.206 101.281 64.254 106.06C65.6702 109.364 70.7797 111.603 73.9197 113.958C76.4317 115.842 78.4821 120.124 78.8746 121.858L84.4678 126.372H100.658C105.957 112.683 111.418 108.723 119.793 105.373C117.88 104.637 114.936 99.9761 114.642 96.1979C114.642 88.446 114.947 83.3372 112.483 78.9773C111.334 76.945 108.279 74.1692 106.448 72.4029V72.4022Z" fill="white"/>
<path d="M121.97 90.0034C121.97 89.9061 121.842 43.4804 121.826 43.4011C121.833 44.2452 121.62 45.0767 121.208 45.8134C120.002 48.0067 117.362 48.9613 114.937 49.1779C113.856 49.2745 46.2069 49.2282 44.8716 49.1379C43.3943 49.066 41.9493 48.6804 40.6326 48.0067C39.4401 47.3671 38.5319 46.3022 38.0884 45.0237C37.7823 44.0181 38.0288 40.2776 37.8592 63.4634C37.9223 63.4229 37.9979 63.4064 38.0722 63.4168C38.1464 63.4271 38.2145 63.4638 38.2641 63.52C38.3137 63.5763 38.3416 63.6484 38.3426 63.7234C38.3436 63.7984 38.3178 63.8713 38.2698 63.9289C38.1332 64.0694 37.9919 64.2036 37.8537 64.3426C37.838 66.9331 37.7352 90.8654 37.7344 91.4188C37.6229 93.3813 38.236 94.817 40.8508 95.774C42.8344 96.463 44.9019 96.881 46.9974 97.0166C51.4499 97.3793 51.7859 97.3181 63.8505 97.3134C64.4346 91.4117 64.663 86.752 62.5655 81.1902C61.6886 78.5891 60.2023 76.2353 58.2307 74.3254H57.5713C57.147 74.323 56.7382 74.1656 56.4219 73.8828C56.1055 73.6 55.9034 73.2113 55.8537 72.79C55.8039 72.3686 55.9098 71.9435 56.1516 71.5948C56.3933 71.2461 56.7542 70.9977 57.1663 70.8965C57.7511 70.8165 58.3438 70.8008 58.9317 70.8486C58.9317 70.8486 106.734 70.8534 106.986 70.8486C107.249 70.8323 107.513 70.8768 107.757 70.9787C108.001 71.0806 108.219 71.2373 108.392 71.4365C108.566 71.6357 108.692 71.8722 108.76 72.1277C108.828 72.3832 108.836 72.6508 108.784 72.9101C108.715 73.257 108.541 73.5743 108.285 73.8191C110.078 75.2254 111.573 76.9738 112.684 78.9629C113.795 80.952 114.5 83.142 114.757 85.4057C115.241 89.2702 114.358 92.1928 115.071 96.7819C116.053 96.6648 117.024 96.4703 117.976 96.2002C119.135 95.9694 120.202 95.4049 121.045 94.5761C122.114 93.313 121.971 91.5467 121.97 90.0034ZM64.0947 65.1024C64.0947 65.1857 64.0616 65.2656 64.0027 65.3245C63.9438 65.3834 63.864 65.4164 63.7807 65.4164C63.6974 65.4164 63.6175 65.3834 63.5586 65.3245C63.4998 65.2656 63.4667 65.1857 63.4667 65.1024V62.8401C63.4667 62.7568 63.4998 62.6769 63.5586 62.618C63.6175 62.5592 63.6974 62.5261 63.7807 62.5261C63.864 62.5261 63.9438 62.5592 64.0027 62.618C64.0616 62.6769 64.0947 62.7568 64.0947 62.8401V65.1024ZM104.152 65.1024C104.152 65.1857 104.119 65.2656 104.06 65.3245C104.002 65.3834 103.922 65.4164 103.838 65.4164C103.755 65.4164 103.675 65.3834 103.616 65.3245C103.558 65.2656 103.524 65.1857 103.524 65.1024V62.8401C103.524 62.7568 103.558 62.6769 103.616 62.618C103.675 62.5592 103.755 62.5261 103.838 62.5261C103.922 62.5261 104.002 62.5592 104.06 62.618C104.119 62.6769 104.152 62.7568 104.152 62.8401V65.1024Z" fill="#EBF2F2"/>
<path d="M103.441 41.3217C103.396 41.3266 103.351 41.3214 103.308 41.3064C103.265 41.2915 103.226 41.2672 103.194 41.2353C102.271 40.2988 101.334 39.3749 100.405 38.4462C97.2711 38.458 94.1374 38.4753 91.0037 38.4972C92.1755 39.2863 93.1007 40.3903 93.6727 41.682H106.988C107.283 41.6638 107.578 41.7213 107.845 41.8489C108.112 41.9766 108.342 42.1702 108.513 42.4114C108.684 42.6527 108.791 42.9336 108.824 43.2277C108.856 43.5217 108.813 43.8192 108.698 44.0919C108.561 44.4202 108.326 44.6986 108.026 44.8895C107.726 45.0803 107.374 45.1746 107.018 45.1595C106.783 45.1548 57.5737 45.1595 57.5737 45.1595C57.1485 45.1587 56.7383 45.0021 56.4207 44.7192C56.1032 44.4364 55.9003 44.047 55.8504 43.6247C55.8005 43.2024 55.9071 42.7765 56.15 42.4275C56.3929 42.0785 56.7553 41.8306 57.1686 41.7307C57.6608 41.6631 55.2485 41.682 80.7548 41.682C81.3153 40.4158 82.2148 39.3292 83.3539 38.542C80.9118 38.5577 78.4704 38.5718 76.0283 38.5859C76.2041 39.3411 76.3352 40.1057 76.4208 40.8766C76.4213 40.9186 76.4129 40.9604 76.3963 40.999C76.3796 41.0376 76.355 41.0723 76.3241 41.1008C76.2931 41.1293 76.2565 41.151 76.2167 41.1644C76.1768 41.1779 76.1345 41.1828 76.0926 41.1788C76.0314 41.1788 66.372 38.6197 66.3123 38.604C64.8844 38.604 50.1696 38.5789 48.7236 38.5436C45.8662 38.4729 42.3369 38.4494 40.1671 40.2902C37.2665 42.7464 37.9024 47.9047 44.6667 48.4911C47.6851 48.754 46.3019 48.4817 112.459 48.5994C114.009 48.6789 115.562 48.5268 117.067 48.148C118.458 47.797 119.679 46.9621 120.51 45.793C120.86 45.2535 121.085 44.6428 121.169 44.0053C121.252 43.3678 121.193 42.7197 120.994 42.1082C120.714 41.4294 120.298 40.8152 119.771 40.3034C119.245 39.7916 118.619 39.393 117.932 39.1323C116.618 38.6337 115.219 38.3972 113.813 38.436C111.359 38.4501 108.904 38.414 106.449 38.4258C103.382 41.4897 103.601 41.3162 103.441 41.3217Z" fill="white"/>
<path d="M38.55 46.0403C39.0618 46.8648 39.7789 47.5424 40.631 48.0067C41.9478 48.6801 43.3928 49.0655 44.87 49.1371C48.01 49.3507 49.2786 49.1316 109.691 49.2211C111.429 49.2211 113.203 49.3326 114.935 49.1779C118.582 48.853 121.816 46.9226 121.824 43.4004C121.836 42.6639 121.657 41.9371 121.305 41.2903C119.827 38.6605 116.92 37.8206 113.941 37.8143C112.184 37.8143 107.603 37.7986 107.069 37.8002L106.441 38.4282C108.896 38.4164 111.351 38.4517 113.806 38.4384C115.211 38.3991 116.61 38.6362 117.924 39.1347C118.611 39.3951 119.237 39.7934 119.763 40.3052C120.29 40.8169 120.706 41.431 120.986 42.1098C121.185 42.7213 121.244 43.3694 121.161 44.0069C121.077 44.6443 120.852 45.2551 120.502 45.7946C119.671 46.9637 118.45 47.7985 117.059 48.1496C115.554 48.5286 114.001 48.681 112.451 48.6018C110.695 48.6018 46.2893 48.6355 44.6589 48.4934C43.1748 48.4099 41.7357 47.9542 40.474 47.1684C37.2241 44.9963 37.7877 39.5539 44.169 38.7029C46.4235 38.4015 46.064 38.5977 66.3115 38.6048L63.9322 37.9768C60.9939 37.9689 49.1483 37.8433 46.17 37.9124C43.4225 37.9768 40.1192 38.6064 38.6065 41.1702C38.158 41.9011 37.9159 42.7399 37.9059 43.5974C37.8959 44.455 38.1185 45.2992 38.55 46.0403Z" fill="black"/>
<path d="M83.3515 38.542C83.704 38.2986 84.0761 38.0867 84.4654 37.9092C81.9322 37.9249 76.23 37.9563 75.9089 37.9579L76.0228 38.5859C78.4673 38.5734 80.9102 38.5584 83.3515 38.542Z" fill="black"/>
<path d="M103.526 62.8401V65.1024C103.526 65.1857 103.559 65.2656 103.618 65.3245C103.677 65.3833 103.757 65.4164 103.84 65.4164C103.923 65.4164 104.003 65.3833 104.062 65.3245C104.121 65.2656 104.154 65.1857 104.154 65.1024V62.8401C104.154 62.7568 104.121 62.6769 104.062 62.618C104.003 62.5591 103.923 62.5261 103.84 62.5261C103.757 62.5261 103.677 62.5591 103.618 62.618C103.559 62.6769 103.526 62.7568 103.526 62.8401Z" fill="black"/>
<path d="M119.946 24.4826C117.881 22.3631 111.304 15.8767 110.125 14.7047C108.634 16.3014 108.18 18.6791 107.938 20.8379C107.894 21.2351 107.267 21.2382 107.31 20.8379C107.562 18.592 108.062 15.9144 109.691 14.2729C108.827 13.4094 105.726 10.3259 105.044 9.64692C104.995 9.69088 104.942 9.73327 104.893 9.7788C104.598 10.0535 104.155 9.61159 104.45 9.33606C104.499 9.29053 104.55 9.24814 104.6 9.20418C104.279 8.88233 103.959 8.56048 103.635 8.24255C103.576 8.18407 103.497 8.15125 103.414 8.15125C103.331 8.15125 103.251 8.18407 103.192 8.24255C98.1621 13.199 95.5897 16.2252 87.1784 24.7786C87.1203 24.8376 87.0877 24.9171 87.0877 24.9999C87.0877 25.0828 87.1203 25.1623 87.1784 25.2213C88.666 26.7309 90.1755 28.2185 91.6741 29.717C92.1829 28.9823 92.73 28.2748 93.3132 27.5975C93.5808 27.2945 94.0197 27.7388 93.7567 28.0403C93.1718 28.7171 92.6277 29.4279 92.127 30.1692C92.127 30.1692 102.269 40.2957 103.196 41.2377C103.255 41.2947 103.334 41.3265 103.417 41.3265C103.499 41.3265 103.579 41.2947 103.638 41.2377L115.041 29.8301C114.963 29.7987 114.884 29.7712 114.806 29.7382C114.435 29.5812 114.755 29.0396 115.12 29.1966C115.316 29.2806 115.444 29.3222 115.522 29.3536C115.522 29.3536 118.731 26.1076 119.947 24.9301C120.004 24.8696 120.036 24.7895 120.036 24.7062C120.035 24.6229 120.003 24.5429 119.946 24.4826ZM96.4265 30.4141C97.3109 28.7996 98.368 27.2859 99.579 25.8996C99.8451 25.595 100.286 26.0393 100.023 26.3423C98.8482 27.69 97.8238 29.1614 96.9673 30.7304C96.7742 31.0853 96.2334 30.7681 96.4265 30.4141Z" fill="#3694A8"/>
<path d="M144.806 41.4967C144.184 40.7973 140.662 37.2915 121.691 18.1767C123.08 14.1394 119.929 7.90812 115.097 6.59717C113.234 6.14023 111.288 6.15112 109.431 6.62885C107.573 7.10659 105.863 8.03633 104.452 9.33525C104.157 9.61 104.601 10.0527 104.896 9.77799C106.142 8.63774 107.633 7.79909 109.254 7.32678C110.876 6.85448 112.584 6.76116 114.248 7.05404C118.816 7.85317 122.054 13.2948 121.28 17.3297C118.773 11.6259 112.103 11.1635 109.304 14.707C107.975 16.3869 107.546 18.7498 107.313 20.8371C107.267 21.2374 107.895 21.2343 107.941 20.8371C108.183 18.6626 108.636 16.3155 110.128 14.7039C111.844 12.8505 115.462 12.4274 118.027 14.2329C121.151 16.4364 121.775 20.2224 121.926 24.0768C121.99 25.2806 121.773 26.483 121.291 27.5881C120.233 29.9242 117.512 30.2131 115.121 29.1934C114.755 29.0364 114.435 29.5757 114.807 29.7343C115.565 30.1008 116.388 30.3126 117.228 30.357C118.069 30.4015 118.91 30.2779 119.702 29.9933C123.174 28.5018 122.877 23.2345 121.933 19.3016L144.171 41.7102C141.219 44.661 123.405 62.3557 121.89 63.8676V64.7484C139.415 47.2248 143.61 43.1899 144.61 42.1608C144.869 41.897 145.042 41.7628 144.806 41.4967Z" fill="black"/>
<path d="M72.8239 20.8198C72.809 20.7671 72.7807 20.7193 72.7416 20.681C72.7026 20.6427 72.6543 20.6152 72.6014 20.6013C72.5485 20.5875 72.4929 20.5876 72.44 20.6019C72.3872 20.6161 72.3391 20.6438 72.3003 20.6824C71.7696 21.1809 65.0327 27.2976 64.1363 28.114C64.4892 28.9162 64.7762 29.7458 64.9943 30.5946C65.0095 30.6723 64.9947 30.7528 64.9531 30.8201C64.9114 30.8874 64.8459 30.9365 64.7696 30.9575C64.6933 30.9786 64.6118 30.97 64.5416 30.9336C64.4713 30.8971 64.4174 30.8355 64.3906 30.761C64.1995 30.0088 63.9515 29.2722 63.6488 28.5575L56.1089 35.4208C56.0703 35.4596 56.0426 35.5078 56.0284 35.5607C56.0142 35.6136 56.0141 35.6692 56.0281 35.7221C56.0421 35.775 56.0696 35.8234 56.108 35.8624C56.1464 35.9013 56.1943 35.9296 56.247 35.9444C56.9009 36.1249 75.1804 40.9817 75.9764 41.1591C76.0287 41.1815 76.086 41.1897 76.1425 41.1828C76.1989 41.1759 76.2525 41.1541 76.2978 41.1197C76.3431 41.0853 76.3785 41.0396 76.4004 40.9871C76.4223 40.9345 76.4298 40.8772 76.4223 40.8208C76.427 40.7776 72.8317 20.8637 72.8239 20.8206V20.8198Z" fill="#3694A8"/>
<path d="M100.036 126.686C100.128 126.476 100.221 126.267 100.314 126.058H84.4858C84.7614 126.269 85.0353 126.482 85.3164 126.686H100.036Z" fill="black"/>
<path d="M117.125 102.339C113.495 96.7898 115.356 90.1919 114.757 85.4057C114.499 83.1445 113.794 80.9572 112.682 78.9715C111.57 76.9857 110.074 75.2411 108.281 73.8395C108.534 73.5927 108.706 73.2749 108.774 72.9281C108.843 72.5814 108.805 72.222 108.665 71.8974C108.524 71.573 108.288 71.299 107.988 71.1117C107.688 70.9245 107.339 70.8327 106.985 70.8487C106.733 70.8534 58.9317 70.8487 58.9317 70.8487C58.3432 70.801 57.7513 70.817 57.1662 70.8966C56.7542 70.9978 56.3933 71.2461 56.1516 71.5948C55.9098 71.9435 55.8039 72.3686 55.8536 72.79C55.9034 73.2114 56.1055 73.6 56.4218 73.8828C56.7382 74.1656 57.147 74.323 57.5713 74.3254H58.2393C60.2012 76.2421 61.6822 78.5954 62.5615 81.1934C63.8843 84.7016 64.5672 88.4782 64.1135 94.2731C63.5028 102.066 62.976 103.326 63.7265 105.765C65.5524 110.672 71.5404 111.608 74.9308 115.193C76.5437 116.889 77.7446 118.934 78.4405 121.169C78.7019 121.338 78.9571 121.513 79.2043 121.695C78.6712 119.567 77.6894 117.577 76.325 115.86C73.3231 112.049 70.2993 111.584 67.2284 109.229C65.4401 107.857 64.0358 106.041 63.9863 103.719C63.9031 99.794 65.2965 94.233 64.7297 87.7568C64.2956 82.7854 61.8668 75.8248 57.4245 72.9305C57.346 72.8779 105.545 72.9093 105.674 72.9007C109.173 74.7296 111.852 77.8142 113.172 81.5357C114.141 84.2115 114.496 87.0706 114.212 89.9022C113.996 94.1255 114.163 99.2091 116.584 102.657C117.315 103.608 118.158 104.467 119.096 105.215C119.326 105.138 119.559 105.065 119.793 104.995C118.811 104.208 117.916 103.318 117.125 102.339Z" fill="black"/>
<path d="M63.4675 62.8401V65.1024C63.4675 65.1857 63.5006 65.2656 63.5594 65.3245C63.6183 65.3833 63.6982 65.4164 63.7815 65.4164C63.8647 65.4164 63.9446 65.3833 64.0035 65.3245C64.0624 65.2656 64.0955 65.1857 64.0955 65.1024V62.8401C64.0955 62.7568 64.0624 62.6769 64.0035 62.618C63.9446 62.5591 63.8647 62.5261 63.7815 62.5261C63.6982 62.5261 63.6183 62.5591 63.5594 62.618C63.5006 62.6769 63.4675 62.7568 63.4675 62.8401Z" fill="black"/>
<path d="M128.619 93.8704C128.049 94.1622 127.567 94.6006 127.222 95.1406C126.877 95.6806 126.682 96.3026 126.657 96.9429C126.694 97.6609 126.97 98.3459 127.441 98.889C127.912 99.4321 128.551 99.802 129.257 99.94C129.703 99.9878 130.155 99.9457 130.585 99.8161C131.016 99.6866 131.416 99.4723 131.762 99.1858C132.108 98.8994 132.393 98.5465 132.601 98.1481C132.808 97.7497 132.934 97.3137 132.971 96.8659C131.691 95.5832 129.864 95.5047 128.619 93.8704Z" fill="white"/>
<path d="M148.67 128.434C148.319 123.348 146.664 118.438 143.862 114.178C137.021 115.748 131.052 110.036 132.033 104.885C125.761 102.946 119.298 104.374 113.664 107.759C108.745 110.713 106.319 114.039 103.583 119.277C101.544 123.2 99.7103 127.227 98.0883 131.34C101.108 131.533 104.125 130.922 106.832 129.57C109.754 127.952 112.586 126.176 115.315 124.251C117.829 122.772 120.81 122.298 123.659 122.925C126.507 123.552 129.014 125.233 130.675 127.631C132.336 130.029 133.029 132.966 132.615 135.853C132.201 138.741 130.711 141.365 128.443 143.199H147.114C147.183 143.199 147.25 143.177 147.304 143.135C147.359 143.093 147.398 143.035 147.416 142.968C148.054 138.627 148.986 132.776 148.67 128.434Z" fill="#3694A8"/>
<path d="M132.514 131.981C132.157 130.17 131.37 128.471 130.221 127.026C129.072 125.581 127.594 124.432 125.911 123.675C124.227 122.918 122.386 122.576 120.543 122.677C118.7 122.777 116.908 123.316 115.316 124.251C112.585 126.174 109.754 127.95 106.833 129.57C104.128 130.922 101.112 131.533 98.093 131.34C92.6577 131.09 88.2232 129.016 84.051 125.727C80.9047 123.247 77.8652 119.654 74.2345 119.802C73.4056 119.836 72.4149 119.994 71.9698 120.787C71.8757 120.956 71.8178 121.143 71.7997 121.335C71.7815 121.528 71.8036 121.722 71.8645 121.905C71.9254 122.089 72.0238 122.258 72.1534 122.401C72.283 122.545 72.441 122.66 72.6174 122.739C74.2267 123.739 77.2976 124.752 76.5338 126.598C76.2865 127.197 75.288 127.179 74.7526 127.147C72.1237 126.99 70.1706 125.577 67.8054 125.645C67.5919 125.65 67.3822 125.702 67.1915 125.798C67.0007 125.893 66.8337 126.031 66.7025 126.199C66.5987 126.369 66.5304 126.559 66.5017 126.756C66.473 126.954 66.4844 127.155 66.5353 127.347C66.7464 128.179 67.5306 128.677 68.172 129.159C68.957 129.749 70.2993 130.626 71.3606 131.499C71.6958 131.775 72.3607 132.211 72.3286 132.712C72.2775 133.497 71.4235 133.266 70.9438 133.12C67.6625 132.122 66.4002 131.109 65.3373 131.888C65.0327 132.109 64.8176 132.433 64.7311 132.799C64.6447 133.166 64.6927 133.552 64.8663 133.886C66.2919 136.618 77.2646 145.026 89.0812 149.586C91.8775 150.692 94.8108 151.415 97.801 151.734C104.786 152.405 111.834 151.536 118.447 149.187C121.308 148.108 124 146.625 126.44 144.782C127.382 144.1 128.282 143.361 129.135 142.571C130.548 141.235 131.598 139.563 132.189 137.711C132.78 135.859 132.892 133.888 132.514 131.981ZM104.195 148.991C105.547 149.261 106.949 149.124 108.224 148.599C108.598 148.446 108.76 149.054 108.391 149.203C107.008 149.762 105.49 149.898 104.028 149.596C103.633 149.513 103.801 148.912 104.195 148.991ZM74.5886 134.094L76.8478 135.318C77.2034 135.511 76.8863 136.052 76.5338 135.859L74.2738 134.635C73.915 134.441 74.2345 133.901 74.5886 134.094ZM80.2013 129.913C79.454 129.525 78.8129 128.961 78.3338 128.268C78.103 127.935 78.6478 127.624 78.8747 127.954C79.2987 128.554 79.8626 129.042 80.5177 129.374C80.8772 129.556 80.5585 130.097 80.2013 129.913Z" fill="white"/>
<path d="M101.573 76.9041H108.01C108.093 76.9041 108.173 76.871 108.232 76.8122C108.291 76.7533 108.324 76.6734 108.324 76.5901C108.324 76.5068 108.291 76.427 108.232 76.3681C108.173 76.3092 108.093 76.2761 108.01 76.2761H101.573C101.49 76.2761 101.41 76.3092 101.351 76.3681C101.292 76.427 101.259 76.5068 101.259 76.5901C101.259 76.6734 101.292 76.7533 101.351 76.8122C101.41 76.871 101.49 76.9041 101.573 76.9041Z" fill="black"/>
<path d="M101.573 79.515H108.01C108.093 79.515 108.173 79.4819 108.232 79.4231C108.291 79.3642 108.324 79.2843 108.324 79.201C108.324 79.1177 108.291 79.0379 108.232 78.979C108.173 78.9201 108.093 78.887 108.01 78.887H101.573C101.49 78.887 101.41 78.9201 101.351 78.979C101.292 79.0379 101.259 79.1177 101.259 79.201C101.259 79.2843 101.292 79.3642 101.351 79.4231C101.41 79.4819 101.49 79.515 101.573 79.515Z" fill="black"/>
<path d="M108.812 43.2041C108.75 42.7693 108.529 42.3731 108.191 42.0918C107.854 41.8106 107.424 41.6643 106.986 41.6812C106.734 41.6874 93.6703 41.6812 93.6703 41.6812C93.9953 42.4206 94.1845 43.2119 94.2285 44.0173C94.2285 44.1006 94.1954 44.1805 94.1365 44.2394C94.0776 44.2982 93.9978 44.3313 93.9145 44.3313C93.9145 44.3313 82.0264 44.3824 80.5106 44.3769C80.4273 44.3769 80.3475 44.3438 80.2886 44.2849C80.2297 44.226 80.1966 44.1461 80.1966 44.0629C80.2312 43.2415 80.4195 42.4339 80.7516 41.682C55.86 41.682 57.6679 41.6615 57.1655 41.7306C56.7521 41.8305 56.3898 42.0784 56.1468 42.4275C55.9039 42.7765 55.7973 43.2024 55.8472 43.6247C55.8971 44.047 56.1 44.4364 56.4176 44.7192C56.7351 45.002 57.1453 45.1587 57.5705 45.1595H107.015C107.267 45.1652 107.516 45.1172 107.747 45.0187C107.979 44.9203 108.186 44.7736 108.356 44.5885C108.526 44.4035 108.655 44.1842 108.734 43.9455C108.812 43.7067 108.839 43.454 108.812 43.2041Z" fill="black"/>
<path d="M101.573 82.1259H108.01C108.072 82.1267 108.134 82.1088 108.186 82.0744C108.238 82.0401 108.279 81.9908 108.303 81.9331C108.327 81.8754 108.333 81.8118 108.32 81.7506C108.307 81.6894 108.277 81.6334 108.232 81.5898C108.203 81.5606 108.168 81.5375 108.13 81.5217C108.092 81.506 108.051 81.4979 108.01 81.4979H101.573C101.49 81.4979 101.41 81.531 101.351 81.5899C101.292 81.6488 101.259 81.7286 101.259 81.8119C101.259 81.8952 101.292 81.9751 101.351 82.034C101.41 82.0928 101.49 82.1259 101.573 82.1259Z" fill="black"/>
<path d="M110.45 85.7809C110.534 85.7809 110.614 85.7478 110.673 85.6889C110.731 85.63 110.764 85.5502 110.764 85.4669C110.764 85.3836 110.731 85.3037 110.673 85.2449C110.614 85.186 110.534 85.1529 110.45 85.1529H68.4985C68.4152 85.1529 68.3354 85.186 68.2765 85.2449C68.2176 85.3037 68.1845 85.3836 68.1845 85.4669C68.1845 85.5502 68.2176 85.63 68.2765 85.6889C68.3354 85.7478 68.4152 85.7809 68.4985 85.7809C77.0699 85.9277 101.906 85.9277 110.45 85.7809Z" fill="black"/>
<path d="M99.893 110.498C99.7847 110.348 97.3873 108.306 96.7106 107.706C95.6108 106.756 94.7317 105.577 94.1351 104.252C93.6419 102.81 93.2952 101.321 93.1004 99.8097C92.6112 96.7948 92.4373 93.7373 92.5815 90.6864C92.5815 90.6031 92.5485 90.5233 92.4896 90.4644C92.4307 90.4055 92.3508 90.3724 92.2675 90.3724C86.5504 90.3449 71.9439 90.3622 70.3574 90.381C70.2745 90.3823 70.1954 90.4157 70.1367 90.4744C70.0781 90.533 70.0446 90.6121 70.0434 90.695C69.7765 93.8704 69.5222 97.0535 69.249 100.227C69.1165 101.585 69.2335 102.957 69.5944 104.273C70.0895 105.562 70.9368 106.685 72.0397 107.515C73.88 108.906 75.9299 109.996 78.1124 110.743C78.4107 110.883 78.7279 110.975 79.0544 111.017C80.1471 111.052 77.1924 110.61 99.6638 111.017C99.7232 111.016 99.7809 110.997 99.8302 110.964C99.8795 110.931 99.9185 110.885 99.9425 110.83C99.966 110.776 99.9747 110.716 99.966 110.657C99.9572 110.598 99.9319 110.543 99.893 110.498ZM88.8889 93.5422L90.5767 92.2289C90.8907 91.984 91.3373 92.4244 91.0194 92.6717L89.3316 93.985C89.0176 94.2291 88.571 93.7887 88.8889 93.5422ZM93.3501 107.901L95.2961 108.466C95.372 108.492 95.4351 108.545 95.4727 108.616C95.5102 108.687 95.5193 108.769 95.498 108.847C95.4768 108.924 95.4268 108.99 95.3583 109.032C95.2898 109.073 95.208 109.087 95.1297 109.07C94.4765 108.898 93.8305 108.7 93.1836 108.504C93.1093 108.477 93.0476 108.424 93.0109 108.354C92.9749 108.283 92.9666 108.202 92.9877 108.125C93.0088 108.049 93.0577 107.983 93.1248 107.941C93.192 107.9 93.2725 107.885 93.3501 107.901ZM80.4305 108.45L79.2373 109.606C78.9477 109.888 78.5041 109.445 78.7946 109.164L79.9878 108.007C80.2775 107.722 80.721 108.165 80.4305 108.446V108.45ZM73.2666 94.5235L71.2963 93.105C70.9713 92.8695 71.2845 92.3278 71.6103 92.5641L73.5806 93.9826C73.908 94.2165 73.5948 94.7598 73.2666 94.5235Z" fill="#3694A8"/>
<path d="M71.6126 92.5641C71.2845 92.3286 70.9712 92.871 71.2986 93.105L73.2689 94.5235C73.5971 94.759 73.9103 94.2165 73.5829 93.9826L71.6126 92.5641Z" fill="black"/>
<path d="M79.9878 108.003L78.7946 109.16C78.5041 109.441 78.9476 109.884 79.2373 109.603L80.4305 108.446C80.721 108.165 80.2774 107.722 79.9878 108.003Z" fill="black"/>
<path d="M90.5767 92.2281L88.8889 93.5414C88.571 93.7887 89.0177 94.2291 89.3317 93.9841L91.0194 92.6708C91.3373 92.4236 90.8915 91.9832 90.5767 92.2281Z" fill="black"/>
<path d="M95.2961 108.465L93.35 107.9C93.27 107.878 93.1844 107.888 93.1122 107.929C93.04 107.97 92.9871 108.038 92.965 108.118C92.9429 108.199 92.9536 108.284 92.9946 108.356C93.0356 108.428 93.1036 108.481 93.1836 108.504C93.8305 108.699 94.4765 108.896 95.1296 109.07C95.208 109.086 95.2898 109.072 95.3583 109.031C95.4267 108.989 95.4767 108.923 95.498 108.846C95.5193 108.769 95.5102 108.686 95.4727 108.615C95.4351 108.545 95.3719 108.491 95.2961 108.465Z" fill="black"/>
<path d="M99.791 91.3073H111.54C111.623 91.3073 111.703 91.2742 111.762 91.2154C111.821 91.1565 111.854 91.0766 111.854 90.9933C111.854 90.91 111.821 90.8302 111.762 90.7713C111.703 90.7124 111.623 90.6793 111.54 90.6793H99.791C99.7077 90.6793 99.6278 90.7124 99.569 90.7713C99.5101 90.8302 99.477 90.91 99.477 90.9933C99.477 91.0766 99.5101 91.1565 99.569 91.2154C99.6278 91.2742 99.7077 91.3073 99.791 91.3073Z" fill="black"/>
<path d="M99.3993 93.4221C99.316 93.4221 99.2361 93.4552 99.1772 93.5141C99.1183 93.573 99.0853 93.6528 99.0853 93.7361C99.0853 93.8194 99.1183 93.8993 99.1772 93.9581C99.2361 94.017 99.316 94.0501 99.3993 94.0501H111.674C111.757 94.0501 111.837 94.017 111.896 93.9581C111.954 93.8993 111.988 93.8194 111.988 93.7361C111.988 93.6528 111.954 93.573 111.896 93.5141C111.837 93.4552 111.757 93.4221 111.674 93.4221H99.3993Z" fill="black"/>
<path d="M73.9936 80.0567C73.1489 78.7928 72.3615 77.4897 71.5648 76.1945C71.5371 76.1472 71.4975 76.1081 71.45 76.0809C71.4025 76.0537 71.3487 76.0394 71.2939 76.0394C71.2392 76.0394 71.1854 76.0537 71.1379 76.0809C71.0904 76.1081 71.0508 76.1472 71.0231 76.1945C70.2797 77.4976 69.5779 78.8242 68.8424 80.1312C68.8152 80.179 68.8009 80.2329 68.8009 80.2878C68.8009 80.3428 68.8152 80.3967 68.8424 80.4445C68.8697 80.4922 68.9091 80.532 68.9566 80.5597C69.0042 80.5874 69.0582 80.602 69.1132 80.6022C70.4564 80.6022 73.7227 80.5277 73.7227 80.5277C73.7778 80.5275 73.8318 80.5128 73.8793 80.4852C73.9269 80.4575 73.9664 80.4179 73.9938 80.3702C74.0213 80.3225 74.0357 80.2684 74.0356 80.2134C74.0356 80.1584 74.0211 80.1043 73.9936 80.0567Z" fill="#3694A8"/>
<path d="M81.02 77.6773C80.7406 77.188 80.3101 76.8024 79.7931 76.5783C79.2186 76.2386 78.5708 76.042 77.9044 76.0053C76.741 75.9527 75.3508 76.9873 75.7542 78.2818C75.9977 78.7465 76.343 79.1503 76.7644 79.463C77.1858 79.7756 77.6723 79.989 78.1877 80.0873C79.0677 80.3228 80.2484 80.4115 80.8222 79.5605C81.0044 79.2856 81.1175 78.9708 81.1519 78.6428C81.1864 78.3148 81.1411 77.9833 81.02 77.6765V77.6773Z" fill="#3694A8"/>
<path d="M87.4814 76.021C87.3424 75.8852 87.4029 75.864 82.8208 75.9292C82.7591 75.9298 82.6989 75.9484 82.6477 75.9829C82.5965 76.0174 82.5565 76.0661 82.5327 76.1231C82.5093 76.1801 82.5032 76.2428 82.515 76.3034C82.5269 76.3639 82.5562 76.4197 82.5995 76.4637C83.2918 77.338 83.766 78.3646 83.9826 79.4585C84.001 79.5246 84.0405 79.5829 84.095 79.6244C84.1496 79.6659 84.2163 79.6884 84.2849 79.6885H88.8747C88.916 79.6886 88.9569 79.6806 88.995 79.6648C89.0331 79.6491 89.0678 79.6259 89.0969 79.5967C89.1554 79.5375 89.1884 79.4577 89.1887 79.3745C89.0632 78.0813 88.4533 76.8833 87.4814 76.021Z" fill="#3694A8"/>
<path d="M54.8937 131.087L41.8501 109.371C41.8287 109.335 41.8001 109.304 41.7661 109.279C41.7327 109.254 41.6943 109.236 41.6535 109.226C41.6127 109.216 41.5703 109.215 41.5291 109.223C41.4877 109.229 41.4481 109.244 41.4129 109.267C41.3344 109.318 41.8054 108.679 34.6509 118.672C35.2004 120.743 36.8575 121.929 38.8452 122.714C39.2165 122.86 39.0563 123.459 38.6787 123.317C37.5501 122.918 36.5088 122.305 35.6117 121.512C35.1431 121.073 34.7613 120.55 34.4861 119.97L32.4136 122.865C33.0829 123.326 33.7904 123.729 34.5284 124.069C34.8942 124.24 34.5755 124.781 34.2144 124.609C33.2597 124.192 32.3688 123.642 31.5682 122.976L25.7631 131.088C25.7218 131.139 25.7018 131.204 25.7073 131.269C25.7129 131.334 25.7436 131.394 25.793 131.437C25.8194 131.476 25.8555 131.508 25.8976 131.529C25.9398 131.551 25.9867 131.561 26.034 131.559H54.6229C54.6779 131.559 54.7319 131.544 54.7795 131.516C54.827 131.488 54.8665 131.449 54.8939 131.401C54.9213 131.353 54.9357 131.299 54.9356 131.244C54.9356 131.189 54.9212 131.135 54.8937 131.087Z" fill="#3694A8"/>
<path d="M34.1995 119.302L31.9371 122.462C32.0886 122.607 32.2472 122.743 32.4136 122.869L34.486 119.974C34.3769 119.756 34.2812 119.532 34.1995 119.302Z" fill="#3694A8"/>
<path d="M40.3908 107.836C39.3202 108.51 38.2973 109.256 37.3293 110.07C34.3463 107.083 16.2521 88.9916 14.6428 87.3839C17.6596 84.3687 38.1308 64.0694 38.2713 63.9328C38.3188 63.8751 38.3441 63.8024 38.3428 63.7278C38.3415 63.6531 38.3136 63.5814 38.2642 63.5254C38.2147 63.4695 38.147 63.4329 38.073 63.4224C37.9991 63.4119 37.9239 63.4281 37.8608 63.4681C37.7744 63.5167 14.4081 86.7284 13.9819 87.1617C13.9234 87.2206 13.8906 87.3001 13.8906 87.3831C13.8906 87.4661 13.9234 87.5456 13.9819 87.6045L36.615 110.238C34.4494 111.678 32.6017 113.546 31.1859 115.728C29.5751 118.307 29.4801 121.524 32.0541 123.379C32.7359 123.857 33.4604 124.27 34.2184 124.614C34.5811 124.785 34.8998 124.245 34.5324 124.073C33.5497 123.653 32.6398 123.08 31.8367 122.374C31.455 121.984 31.1549 121.522 30.9539 121.015C30.753 120.507 30.6552 119.965 30.6663 119.419C30.6922 117.098 32.2135 115.092 33.7419 113.49C34.4626 112.739 35.2396 112.044 36.0663 111.411C34.9429 112.715 34.1929 114.298 33.8958 115.993C33.7238 116.984 33.7898 118.001 34.0881 118.962C34.3865 119.922 34.9087 120.798 35.6118 121.516C36.5088 122.309 37.5501 122.922 38.6788 123.322C39.0563 123.464 39.2165 122.865 38.8452 122.718C36.8827 121.944 35.1643 120.726 34.6509 118.676C34.2352 116.944 34.4948 115.117 35.377 113.569C36.4694 111.609 38.0667 109.976 40.0031 108.841C40.9481 108.081 42.0692 107.571 43.2632 107.358C43.795 107.278 44.3385 107.366 44.8184 107.609C45.2982 107.851 45.6908 108.237 45.9416 108.713C46.3625 109.609 46.4611 110.624 46.2209 111.584C45.9806 112.545 45.4161 113.393 44.6228 113.986L44.9462 114.524C49.0172 111.537 46.7289 103.87 40.3908 107.836Z" fill="black"/>
<path d="M144.879 32.488C144.64 32.1701 144.094 32.4825 144.338 32.802C146.322 35.4256 147.395 38.6248 147.395 41.9139C147.395 45.203 146.322 48.4022 144.338 51.0258C144.098 51.35 144.642 51.6632 144.879 51.3398C146.911 48.6172 148.008 45.311 148.008 41.9139C148.008 38.5168 146.911 35.2107 144.879 32.488Z" fill="black"/>
<path d="M150.186 32.4244C149.914 32.1253 149.472 32.5697 149.742 32.868C151.471 34.7486 152.548 37.1367 152.813 39.6778C153.022 42.1465 152.743 44.6322 151.99 46.9925C151.577 48.3628 151.09 49.7098 150.531 51.0274C150.491 51.0997 150.48 51.1846 150.501 51.2645C150.522 51.3444 150.573 51.4133 150.643 51.4568C150.715 51.4985 150.8 51.5102 150.881 51.4891C150.961 51.4681 151.03 51.4161 151.072 51.3445C153.907 44.6579 155.088 37.8244 150.186 32.4244Z" fill="black"/>
<path d="M90.8796 38.4117C90.5726 39.1905 90.3397 39.9966 90.1841 40.8193C90.1103 41.2165 89.5067 41.0469 89.5805 40.6529C89.7438 39.776 89.9942 38.918 90.3278 38.0914C85.7026 35.6234 80.3968 39.327 80.2013 44.0629C80.2013 44.1462 80.2344 44.226 80.2933 44.2849C80.3521 44.3438 80.432 44.3769 80.5153 44.3769C82.0311 44.3824 93.9192 44.3314 93.9192 44.3314C94.0024 44.3314 94.0823 44.2983 94.1412 44.2394C94.2001 44.1805 94.2332 44.1006 94.2332 44.0174C94.1509 42.886 93.8047 41.7896 93.2224 40.8161C92.64 39.8427 91.8376 39.0192 90.8796 38.4117Z" fill="#EBF2F2"/>
<path d="M12.7635 95.1452C11.6294 93.2799 10.8901 91.2018 10.5914 89.0394C10.2927 86.8769 10.441 84.6762 11.0271 82.5734C11.4385 81.1599 12.0217 79.8022 12.7635 78.5306C12.7965 78.4596 12.8018 78.3788 12.7783 78.304C12.7548 78.2293 12.7042 78.1661 12.6364 78.1267C12.5687 78.0874 12.4886 78.0748 12.4121 78.0914C12.3355 78.1081 12.268 78.1527 12.2226 78.2166C10.6546 80.8198 9.82605 83.8013 9.82605 86.8402C9.82605 89.8792 10.6546 92.8607 12.2226 95.4639C12.4369 95.8046 12.9778 95.4906 12.7635 95.1452Z" fill="black"/>
<path d="M5.56348 82.5734C5.97489 81.1598 6.55833 79.8021 7.30068 78.5307C7.33486 78.4594 7.34091 78.3779 7.31762 78.3024C7.29433 78.2268 7.24342 78.1629 7.17504 78.1232C7.10667 78.0836 7.02586 78.0712 6.94874 78.0885C6.87163 78.1058 6.80389 78.1516 6.75903 78.2167C5.19109 80.8197 4.36255 83.8011 4.36255 86.8399C4.36255 89.8787 5.19109 92.86 6.75903 95.4631C6.9702 95.8069 7.51106 95.4929 7.30068 95.1491C6.1663 93.2833 5.42683 91.2045 5.12802 89.0414C4.82921 86.8783 4.97742 84.6769 5.56348 82.5734Z" fill="black"/>
<path d="M58.7135 99.312C53.0352 99.3545 47.3625 98.946 41.7488 98.0905C41.3563 98.03 41.1844 98.6337 41.5824 98.6942C43.7427 99.0239 45.9109 99.2876 48.0877 99.4862C48.0092 100.795 48.1293 102.415 49.4458 103.052C49.7155 103.199 50.0156 103.281 50.3226 103.293C50.6296 103.305 50.9352 103.246 51.2155 103.12C51.4958 102.995 51.7433 102.806 51.9387 102.569C52.134 102.332 52.2719 102.053 52.3416 101.753C52.4814 101.11 52.5567 100.456 52.5677 99.7987C54.352 99.8874 55.9793 99.9604 58.6907 99.9392C59.3305 99.9345 59.1272 99.3096 58.7135 99.312Z" fill="#EBF2F2"/>
<path d="M149.613 107.453C149.205 104.941 146.538 104.491 144.908 103.342C144.105 102.775 143.517 101.953 143.238 101.011C142.894 99.8521 143.193 98.6808 143.193 97.5018C143.193 93.5438 139.968 90.4014 136.232 89.4273C133.788 88.8582 131.249 88.8338 128.795 89.3558C128.743 89.3695 128.694 89.397 128.656 89.4355C128.618 89.474 128.59 89.5221 128.577 89.5748C128.211 91.1511 128.403 90.8261 128.178 91.0663C125.46 93.9394 122.647 97.5175 123.565 101.732C123.747 102.557 124.048 103.35 124.46 104.087C127.013 103.863 129.584 104.133 132.033 104.885C131.484 107.773 133.188 110.73 135.53 112.469C136.713 113.339 138.07 113.942 139.509 114.237C140.947 114.532 142.432 114.512 143.862 114.178C147.884 113.254 150.033 110.041 149.613 107.453ZM129.258 99.94C126.627 99.4156 125.341 95.8384 128.617 93.8704C129.195 94.5656 129.924 95.12 130.749 95.4914C131.559 95.8278 132.309 96.2918 132.971 96.8659C132.935 97.3137 132.809 97.7496 132.601 98.1479C132.394 98.5463 132.108 98.8991 131.762 99.1856C131.416 99.472 131.016 99.6863 130.586 99.8159C130.156 99.9455 129.704 99.9877 129.258 99.94Z" fill="black"/>
<path d="M144.565 81.1015L141.46 87.4357C141.283 87.7968 141.824 88.1147 142.001 87.7497L145.106 81.4155C145.28 81.0607 144.739 80.7396 144.565 81.1015Z" fill="black"/>
<path d="M143.711 89.5599L150.3 84.9331C150.628 84.7031 150.315 84.1599 149.986 84.3922L143.397 89.019C143.067 89.249 143.38 89.7923 143.711 89.5599Z" fill="black"/>
<path d="M152.023 90.6165L144.666 91.6511C144.268 91.7069 144.437 92.3113 144.833 92.2556L152.189 91.2209C152.583 91.1644 152.415 90.5592 152.023 90.6165Z" fill="black"/>
<path d="M64.3906 30.761C64.4174 30.8355 64.4713 30.8971 64.5416 30.9336C64.6118 30.97 64.6933 30.9786 64.7696 30.9575C64.8459 30.9365 64.9114 30.8874 64.9531 30.8201C64.9947 30.7528 65.0095 30.6723 64.9943 30.5946C64.4341 28.4077 63.4158 26.3648 62.0066 24.6011C61.7546 24.2871 61.3142 24.7314 61.563 25.0439C62.8998 26.7279 63.8636 28.6766 64.3906 30.761Z" fill="black"/>
<path d="M59.8997 14.8302C61.2733 16.1534 62.4252 17.6888 63.3113 19.3778C63.4981 19.7349 64.0397 19.4186 63.8521 19.0638C62.9404 17.3277 61.7554 15.7495 60.3424 14.3899C60.0519 14.1073 59.6084 14.5508 59.8997 14.831V14.8302Z" fill="black"/>
<path d="M52.7035 19.1666C52.6325 19.1336 52.5517 19.1283 52.4769 19.1518C52.4022 19.1753 52.339 19.2259 52.2996 19.2937C52.2603 19.3614 52.2477 19.4414 52.2644 19.518C52.281 19.5945 52.3256 19.6621 52.3895 19.7074C53.9019 20.6223 55.1179 21.9544 55.8914 23.5437C56.0657 23.9072 56.6073 23.5893 56.4331 23.2297C55.6313 21.5281 54.3304 20.1109 52.7035 19.1666Z" fill="black"/>
<path d="M93.7582 28.041C94.0236 27.7396 93.5824 27.2952 93.3147 27.5983C92.1578 28.9234 91.1678 30.3855 90.367 31.9519C90.1865 32.3114 90.7266 32.6285 90.9079 32.2659C91.6756 30.7427 92.6333 29.3231 93.7582 28.041Z" fill="black"/>
<path d="M100.405 38.4462L99.7768 37.8182C97.1683 37.8284 91.5414 37.8621 91.1042 37.8653C91.423 37.148 91.805 36.4605 92.2456 35.8109C92.4732 35.4765 91.9316 35.1625 91.7047 35.4969C91.197 36.2437 90.7649 37.0391 90.4149 37.8715H89.8906C90.0295 37.9343 90.1873 38.0144 90.3247 38.0874C89.9925 38.9148 89.7422 39.7727 89.5773 40.6489C89.5028 41.0414 90.1072 41.2117 90.181 40.8153C90.3366 39.9927 90.5695 39.1866 90.8765 38.4077L90.9896 38.4862C90.9896 38.4862 92.8068 38.4799 100.405 38.4462Z" fill="black"/>
<path d="M99.579 25.8988C98.3679 27.2854 97.3109 28.7994 96.4265 30.4141C96.2333 30.7674 96.7742 31.0853 96.9673 30.7281C97.8238 29.159 98.8482 27.6877 100.023 26.34C100.286 26.0393 99.8451 25.5942 99.579 25.8996V25.8988Z" fill="black"/>
<path d="M103.838 65.5028C103.944 65.5031 104.047 65.4625 104.123 65.3893C104.2 65.3162 104.246 65.2162 104.251 65.1103V62.8361C104.249 62.782 104.237 62.7287 104.214 62.6794C104.192 62.6302 104.16 62.586 104.119 62.5496C104.062 62.4954 103.989 62.459 103.911 62.445C103.833 62.431 103.752 62.4399 103.679 62.4706C103.606 62.5013 103.543 62.5525 103.499 62.6181C103.454 62.6836 103.429 62.7607 103.427 62.8401V65.1064C103.432 65.2127 103.477 65.3132 103.553 65.387C103.63 65.4608 103.732 65.5023 103.838 65.5028Z" fill="black"/>
<path d="M63.7807 65.502C63.8866 65.5019 63.9884 65.4612 64.0652 65.3881C64.1419 65.315 64.1876 65.2153 64.1928 65.1095V62.8361C64.1928 62.727 64.1495 62.6224 64.0723 62.5453C63.9952 62.4681 63.8906 62.4248 63.7815 62.4248C63.6724 62.4248 63.5677 62.4681 63.4906 62.5453C63.4135 62.6224 63.3701 62.727 63.3701 62.8361V65.1024C63.3728 65.2095 63.4172 65.3114 63.4939 65.3862C63.5706 65.461 63.6735 65.5028 63.7807 65.5028V65.502Z" fill="black"/>
<path d="M101.569 77.0022H108.016C108.125 77.0016 108.229 76.9581 108.306 76.8811C108.383 76.8041 108.427 76.6998 108.428 76.5909C108.427 76.4819 108.384 76.3774 108.307 76.3003C108.23 76.2232 108.125 76.1798 108.016 76.1796H101.572C101.463 76.18 101.359 76.2235 101.282 76.3005C101.205 76.3776 101.161 76.4819 101.161 76.5909C101.161 76.6999 101.204 76.8044 101.282 76.8815C101.359 76.9586 101.463 77.002 101.572 77.0022H101.569Z" fill="black"/>
<path d="M101.569 79.6132H108.016C108.125 79.6132 108.23 79.5699 108.307 79.4927C108.384 79.4156 108.428 79.311 108.428 79.2019C108.428 79.0928 108.384 78.9881 108.307 78.911C108.23 78.8339 108.125 78.7905 108.016 78.7905H101.572C101.463 78.7909 101.359 78.8344 101.282 78.9115C101.205 78.9885 101.161 79.0929 101.161 79.2019C101.161 79.2559 101.171 79.3094 101.192 79.3594C101.213 79.4094 101.243 79.4547 101.281 79.493C101.319 79.5312 101.365 79.5615 101.415 79.5821C101.465 79.6027 101.518 79.6133 101.572 79.6132H101.569Z" fill="black"/>
<path d="M101.57 82.2241H108.016C108.122 82.2191 108.222 82.1736 108.295 82.0971C108.369 82.0205 108.41 81.9188 108.41 81.8128C108.411 81.7064 108.37 81.604 108.296 81.5271C108.223 81.4503 108.123 81.4049 108.016 81.4006H101.572C101.466 81.4049 101.365 81.4503 101.292 81.5271C101.218 81.604 101.178 81.7064 101.178 81.8128C101.178 81.9189 101.219 82.021 101.292 82.0977C101.366 82.1743 101.466 82.2196 101.572 82.2241H101.57Z" fill="black"/>
<path d="M68.4985 85.8791C70.3268 85.9113 110.081 85.8853 110.451 85.8791C110.56 85.8791 110.664 85.8357 110.741 85.7586C110.819 85.6814 110.862 85.5768 110.862 85.4677C110.862 85.3586 110.819 85.254 110.741 85.1769C110.664 85.0997 110.56 85.0564 110.451 85.0564C109.508 85.0399 71.4407 85.0289 68.5056 85.1616C67.836 85.1914 68.0943 85.872 68.4985 85.8791Z" fill="black"/>
<path d="M99.9527 110.42C97.2633 107.926 95.3997 106.915 94.2277 104.225C93.7357 102.789 93.3907 101.307 93.1978 99.8018C92.7057 96.7915 92.532 93.7378 92.6797 90.6911C92.6779 90.5826 92.6339 90.4792 92.5572 90.4025C92.4804 90.3259 92.3768 90.2822 92.2684 90.2805C86.5544 90.2539 71.922 90.2711 70.3567 90.2892C70.2494 90.2898 70.1466 90.3322 70.07 90.4074C69.9935 90.4826 69.9493 90.5846 69.9469 90.6919C69.8393 91.973 69.3189 98.3291 69.1525 100.223C69.0191 101.597 69.1383 102.983 69.5042 104.313C70.006 105.619 70.8644 106.757 71.9816 107.598C73.8275 108.994 75.8834 110.087 78.0724 110.837C79.0223 111.282 77.8165 111.368 99.6599 111.12C99.7186 111.12 99.7767 111.108 99.8302 111.084C99.8837 111.06 99.9314 111.024 99.97 110.98C100.009 110.936 100.037 110.884 100.054 110.828C100.071 110.772 100.075 110.713 100.067 110.654C100.057 110.577 100.025 110.504 99.9739 110.444L99.9527 110.42ZM93.2692 103.983C94.1265 106.741 96.0568 108.09 98.5798 110.294C96.2719 110.294 79.487 110.304 79.0639 110.294C78.2843 110.051 77.5194 109.763 76.7733 109.431C75.5747 108.911 74.4222 108.291 73.3279 107.577C72.2287 106.902 71.3069 105.974 70.6393 104.87C69.6549 103.17 69.8841 100.729 70.1753 97.6368C70.2256 97.0983 70.7358 91.1071 70.7358 91.1071C74.3814 91.1071 91.167 91.0985 91.8319 91.0985C91.6907 95.44 92.1748 99.7791 93.2692 103.983Z" fill="black"/>
<path d="M73.6403 93.9033L71.6699 92.4848C71.2382 92.1708 70.8064 92.8773 71.239 93.185C73.3585 94.715 73.2721 94.6805 73.4315 94.6805C73.518 94.6709 73.5997 94.6356 73.666 94.5791C73.7322 94.5225 73.7798 94.4473 73.8028 94.3633C73.8255 94.2792 73.8221 94.1902 73.7931 94.1081C73.764 94.0259 73.7108 93.9545 73.6403 93.9033Z" fill="black"/>
<path d="M79.9195 107.933L78.7263 109.089C78.6547 109.164 78.6142 109.263 78.6129 109.367C78.6116 109.471 78.6496 109.571 78.7192 109.648C78.7889 109.724 78.8851 109.772 78.9883 109.781C79.0916 109.789 79.1943 109.758 79.2758 109.694C79.443 109.562 79.7406 109.25 80.4957 108.517C80.8819 108.143 80.3026 107.562 79.9195 107.933Z" fill="black"/>
<path d="M90.5162 92.1504L88.83 93.4637C88.4054 93.7926 88.9776 94.3845 89.3929 94.0619L91.0806 92.7486C91.499 92.4204 90.9307 91.827 90.5162 92.1504Z" fill="black"/>
<path d="M93.1554 108.598C93.8014 108.793 94.4585 108.99 95.1045 109.165C95.1562 109.178 95.2101 109.181 95.2629 109.173C95.3158 109.166 95.3666 109.147 95.4123 109.12C95.4805 109.079 95.5356 109.019 95.5708 108.947C95.606 108.876 95.6199 108.795 95.6109 108.716C95.6016 108.637 95.5695 108.562 95.5185 108.501C95.4675 108.44 95.3998 108.394 95.3235 108.371L93.3728 107.804C93.3198 107.791 93.2646 107.788 93.2106 107.797C93.1567 107.805 93.105 107.825 93.0588 107.854C93.0088 107.886 92.9661 107.927 92.9336 107.977C92.9011 108.026 92.8796 108.082 92.8704 108.14C92.8613 108.198 92.8647 108.258 92.8806 108.315C92.8964 108.372 92.9243 108.425 92.9623 108.47C93.0125 108.53 93.08 108.574 93.1554 108.598Z" fill="black"/>
<path d="M99.3907 91.0082C99.3944 91.1124 99.4374 91.2113 99.5111 91.285C99.5848 91.3587 99.6837 91.4017 99.7879 91.4054H111.543C111.652 91.4054 111.757 91.3621 111.834 91.285C111.911 91.2078 111.955 91.1032 111.955 90.9941C111.955 90.885 111.911 90.7804 111.834 90.7032C111.757 90.6261 111.652 90.5828 111.543 90.5828H99.7879C99.679 90.5871 99.5762 90.6342 99.5018 90.7138C99.4274 90.7935 99.3875 90.8993 99.3907 91.0082Z" fill="black"/>
<path d="M99.3961 93.324C99.2899 93.3282 99.1894 93.3736 99.1159 93.4505C99.0424 93.5273 99.0016 93.6297 99.0021 93.7361C99.002 93.8423 99.0429 93.9444 99.1164 94.021C99.1898 94.0977 99.2901 94.143 99.3961 94.1474H111.674C111.779 94.1424 111.879 94.0969 111.953 94.0204C112.026 93.9439 112.067 93.8421 112.068 93.7361C112.068 93.6297 112.027 93.5273 111.954 93.4505C111.88 93.3736 111.78 93.3282 111.674 93.324H99.3961Z" fill="black"/>
<path d="M69.1132 80.7004L73.7267 80.6266C73.7997 80.6261 73.8713 80.6061 73.9342 80.5689C73.997 80.5316 74.0488 80.4783 74.0844 80.4145C74.1199 80.3506 74.1378 80.2785 74.1364 80.2054C74.1349 80.1324 74.114 80.061 74.076 79.9986C73.2478 78.7583 72.4604 77.4576 71.6488 76.1388C71.6113 76.0789 71.5592 76.0296 71.4974 75.9954C71.4356 75.9612 71.3661 75.9432 71.2955 75.9432C71.2249 75.9432 71.1554 75.9612 71.0936 75.9954C71.0318 76.0296 70.9798 76.0789 70.9423 76.1388C70.5309 76.8586 69.0904 79.4907 68.7607 80.0764C68.7238 80.1389 68.704 80.2101 68.7033 80.2827C68.7026 80.3554 68.721 80.4269 68.7567 80.4902C68.7925 80.5534 68.8442 80.6062 68.9068 80.6431C68.9694 80.68 69.0406 80.6998 69.1132 80.7004ZM69.8197 79.8668C70.246 79.1069 70.7806 78.15 71.3167 77.1648C71.8691 78.05 72.4244 78.9333 72.9825 79.8149L69.8197 79.8668Z" fill="black"/>
<path d="M78.1596 80.1791C79.1549 80.4484 80.3222 80.4704 80.9016 79.6124C81.0933 79.3227 81.2121 78.9908 81.2476 78.6452C81.2831 78.2996 81.2344 77.9506 81.1057 77.6279C80.8175 77.1227 80.3743 76.7236 79.8418 76.4896C79.2536 76.1429 78.5909 75.942 77.9091 75.904C76.6304 75.8428 75.2441 76.9787 75.6625 78.3132C76.1131 79.5103 77.5583 80.0167 78.1596 80.1791ZM77.855 76.7251C78.368 76.7466 78.8686 76.8891 79.3159 77.1412C79.7146 77.2982 80.0624 77.5612 80.323 77.9019C80.4035 78.0861 80.4411 78.2861 80.433 78.487C80.4248 78.6879 80.3711 78.8842 80.2759 79.0613C79.8049 79.9287 78.0614 79.4083 77.2144 78.8768C76.8836 78.6978 76.6163 78.4209 76.449 78.084C76.212 77.3131 77.1257 76.7016 77.855 76.7259V76.7251Z" fill="black"/>
<path d="M83.8846 79.4782C83.9081 79.5661 83.9591 79.6438 84.0313 79.7003C84.1037 79.7558 84.1922 79.7861 84.2833 79.7867H88.874C88.9825 79.7851 89.0861 79.7412 89.1628 79.6644C89.2395 79.5875 89.2832 79.4839 89.2846 79.3753C89.1472 78.0555 88.5262 76.8332 87.5411 75.9441C87.3747 75.7793 87.3605 75.7659 82.817 75.8311C82.7377 75.8335 82.6607 75.8585 82.5952 75.9032C82.5297 75.9479 82.4783 76.0104 82.4471 76.0833C82.416 76.1563 82.4063 76.2366 82.4192 76.3148C82.4322 76.3931 82.4672 76.466 82.5202 76.525C83.1932 77.3931 83.6598 78.403 83.8846 79.4782ZM83.6106 76.6522H87.0842C87.7366 77.28 88.1951 78.0818 88.4054 78.9624H84.5981C84.3931 78.1459 84.0606 77.3668 83.6129 76.6537L83.6106 76.6522Z" fill="black"/>
<path d="M104.009 149.692C105.489 149.998 107.027 149.859 108.428 149.291C108.92 149.093 108.679 148.303 108.187 148.506C106.931 149.028 105.548 149.165 104.214 148.899C103.693 148.791 103.486 149.585 104.009 149.692Z" fill="black"/>
<path d="M144.26 50.9701C143.94 51.4034 144.653 51.8258 144.96 51.4019C147.017 48.667 148.13 45.3375 148.13 41.9151C148.13 38.4928 147.017 35.1632 144.96 32.4284C144.646 32.01 143.939 32.4347 144.262 32.8633C146.233 35.4701 147.299 38.6489 147.299 41.917C147.299 45.185 146.232 48.3637 144.26 50.9701Z" fill="black"/>
<path d="M152.715 39.6912C152.925 42.1471 152.647 44.6203 151.896 46.9682C151.485 48.3322 151 49.6731 150.445 50.985C150.403 51.0563 150.383 51.1385 150.388 51.221C150.393 51.3036 150.423 51.3827 150.474 51.4482C150.516 51.5024 150.571 51.5451 150.634 51.5725C150.697 51.6 150.766 51.6111 150.835 51.605C150.903 51.5989 150.969 51.5758 151.026 51.5377C151.083 51.4996 151.13 51.4477 151.162 51.3869C154.719 43.0047 154.432 36.9602 150.259 32.3624C149.898 31.966 149.317 32.5446 149.67 32.9378C151.38 34.8059 152.447 37.1726 152.715 39.6912Z" fill="black"/>
<path d="M11.1244 82.6001C11.5327 81.1937 12.1127 79.843 12.8514 78.5785C12.9005 78.4847 12.9115 78.3756 12.8823 78.2739C12.853 78.1722 12.7858 78.0856 12.6944 78.0321C12.6031 77.9786 12.4947 77.9623 12.3916 77.9866C12.2886 78.0109 12.1989 78.0738 12.141 78.1625C10.5556 80.7781 9.71741 83.7782 9.71741 86.8368C9.71741 89.8953 10.5556 92.8954 12.141 95.511C12.2009 95.5954 12.2904 95.6542 12.3916 95.6756C12.4928 95.6971 12.5984 95.6797 12.6874 95.6269C12.7764 95.5741 12.8423 95.4898 12.8719 95.3906C12.9016 95.2915 12.8929 95.1848 12.8475 95.0918C11.7237 93.2372 10.9912 91.1723 10.6948 89.0241C10.3985 86.8758 10.5447 84.6897 11.1244 82.6001Z" fill="black"/>
<path d="M5.65773 82.6001C6.06542 81.1935 6.64549 79.8428 7.38473 78.5786C7.43651 78.4844 7.4495 78.3738 7.42092 78.2703C7.39235 78.1667 7.32447 78.0784 7.23174 78.0242C7.13902 77.9699 7.02878 77.954 6.92451 77.9799C6.82024 78.0057 6.73018 78.0712 6.67352 78.1625C5.08839 80.7782 4.25031 83.7783 4.25031 86.8368C4.25031 89.8953 5.08839 92.8953 6.67352 95.511C6.73438 95.5931 6.82353 95.6497 6.92373 95.6699C7.02392 95.6901 7.12804 95.6724 7.21594 95.6203C7.30384 95.5681 7.36928 95.4852 7.39958 95.3876C7.42989 95.29 7.42292 95.1846 7.38002 95.0918C6.25606 93.2372 5.52345 91.1723 5.22726 89.0241C4.93107 86.8758 5.07756 84.6896 5.65773 82.6001Z" fill="black"/>
<path d="M58.9341 99.2123C53.187 99.2764 47.4443 98.8687 41.7638 97.9932C41.2402 97.9147 41.0401 98.7114 41.5684 98.7915C43.6879 99.1149 45.8474 99.3787 47.9834 99.5765C47.8837 101.461 48.3476 102.63 49.4034 103.14C49.6866 103.293 50.0013 103.379 50.3229 103.391C50.6446 103.403 50.9647 103.341 51.2584 103.209C51.5519 103.076 51.8109 102.878 52.0154 102.629C52.2199 102.381 52.3643 102.088 52.4375 101.775C52.5709 101.159 52.6463 100.532 52.6635 99.9023C55.1905 100.027 57.3005 100.073 58.9349 100.036C59.0161 100.035 59.0954 100.011 59.1627 99.9652C59.2301 99.9198 59.2825 99.8555 59.3135 99.7804C59.3445 99.7054 59.3527 99.6228 59.337 99.5431C59.3213 99.4634 59.2825 99.3901 59.2254 99.3324C59.148 99.2554 59.0433 99.2122 58.9341 99.2123ZM51.8424 99.8607C51.7985 101.044 51.7718 102.416 50.5864 102.544C50.2516 102.579 49.9145 102.501 49.6296 102.321C49.3448 102.142 49.1287 101.871 49.0164 101.554C48.8103 100.941 48.7372 100.29 48.8021 99.6464L51.8424 99.8607Z" fill="black"/>
<path d="M143.332 100.983C142.993 99.8434 143.291 98.6989 143.291 97.5018C143.277 95.6134 142.567 93.7966 141.296 92.3993C138.508 89.2812 134.296 88.2238 128.771 89.2593C128.701 89.2766 128.636 89.313 128.585 89.3643C128.534 89.4157 128.498 89.4801 128.481 89.5505C128.378 89.9932 128.291 90.4705 128.206 90.8928C125.416 93.8758 122.527 97.4233 123.47 101.749C123.641 102.534 123.921 103.292 124.302 104.001C122.78 104.137 121.276 104.433 119.816 104.882C118.855 104.113 117.98 103.242 117.207 102.284C116.141 100.65 115.449 98.8002 115.182 96.8675C116.136 96.7488 117.079 96.5575 118.004 96.2952C119.182 96.0598 120.266 95.4842 121.121 94.6396C122.101 93.4778 122.086 91.8867 122.072 90.4791C122.072 90.3174 122.006 68.6993 121.988 64.7892C134.256 52.5213 144.527 42.3924 144.786 42.1184C145.144 41.7385 145.071 41.627 144.792 41.3334C144.792 41.3334 128.426 24.8233 121.803 18.1493C122.23 16.7465 122.239 15.2496 121.828 13.842C121.008 10.9508 118.815 7.50387 115.121 6.50221C113.291 6.05564 111.38 6.05558 109.549 6.50203C107.718 6.94849 106.022 7.82838 104.602 9.06759C104.602 9.06759 103.927 8.3917 103.703 8.17112C103.625 8.09536 103.521 8.05295 103.412 8.05295C103.304 8.05295 103.199 8.09536 103.122 8.17112C98.0758 13.1433 95.5559 16.1169 87.1078 24.7079C87.0316 24.7854 86.989 24.8897 86.989 24.9984C86.989 25.107 87.0316 25.2113 87.1078 25.2888C88.0953 26.2913 91.0618 29.2429 91.5477 29.728C91.079 30.4269 90.6545 31.1544 90.2768 31.9064C90.0413 32.3821 90.7541 32.7871 90.9935 32.3106C91.3372 31.6262 91.7204 30.9622 92.1412 30.3222L99.5422 37.7232C97.0074 37.7334 92.1765 37.7617 91.2573 37.7672C91.5603 37.1054 91.9183 36.4696 92.3272 35.8675C92.6279 35.4247 91.9222 35.004 91.6207 35.4404C91.1216 36.1744 90.6952 36.9553 90.3475 37.7719C89.8396 37.7719 89.944 37.7907 89.7454 37.7012C88.9116 37.3112 87.9993 37.1181 87.0791 37.1369C86.1588 37.1556 85.2551 37.3858 84.438 37.8096C82.017 37.8253 76.7638 37.8535 75.989 37.8567C75.7316 36.4311 72.9173 20.812 72.9126 20.7908C72.8928 20.7223 72.8556 20.6601 72.8046 20.6102C72.7536 20.5604 72.6906 20.5246 72.6217 20.5063C72.5528 20.4881 72.4803 20.488 72.4113 20.506C72.3423 20.5241 72.2792 20.5597 72.2281 20.6094C71.8238 20.9886 64.1654 27.9484 64.1654 27.9484C63.6139 26.7291 62.9124 25.5833 62.0773 24.5376C61.7421 24.1192 61.1517 24.6946 61.4814 25.1028C62.3128 26.1482 62.9993 27.3011 63.5224 28.5301L56.0296 35.351C55.9911 35.3904 55.9609 35.437 55.9407 35.4883C55.9205 35.5395 55.9108 35.5943 55.912 35.6493C55.9133 35.7044 55.9255 35.7586 55.948 35.8089C55.9705 35.8592 56.0028 35.9044 56.043 35.9421C56.1309 36.0457 56.0838 36.0049 63.1566 37.8732C62.2641 37.8677 48.2809 37.7625 46.1598 37.8119C42.3282 37.9014 39.7566 39.013 38.5147 41.1183C37.9672 42.0434 37.7239 43.117 37.8192 44.1877C37.8192 50.5619 37.7956 57.0342 37.7485 63.4257C36.5522 64.5718 14.12 86.8658 13.8971 87.0903C13.8215 87.1682 13.7792 87.2726 13.7792 87.3811C13.7792 87.4897 13.8215 87.5941 13.8971 87.672L36.4549 110.229C34.3085 111.653 32.4809 113.507 31.0878 115.674C29.7039 117.89 29.2823 120.999 31.4269 122.992L25.687 131.026C25.6475 131.088 25.6253 131.159 25.623 131.233C25.6206 131.306 25.6382 131.379 25.6737 131.443C25.7092 131.507 25.7614 131.561 25.8249 131.598C25.8883 131.635 25.9605 131.655 26.034 131.654H54.6237C54.696 131.653 54.7669 131.634 54.8292 131.597C54.8915 131.561 54.943 131.508 54.9785 131.445C55.0144 131.383 55.0333 131.312 55.0333 131.239C55.0333 131.167 55.0144 131.096 54.9785 131.034L45.0757 114.549C49.1397 111.456 46.758 103.735 40.3383 107.751C39.2883 108.41 38.2832 109.138 37.3294 109.93L14.7802 87.3831C16.643 85.5227 36.7649 65.5648 37.7501 64.5836C37.5931 93.9803 37.6049 92.2627 37.7014 92.9087C38.057 94.624 39.8045 95.4992 40.814 95.8697C42.8055 96.5619 44.8816 96.9815 46.9856 97.1171C51.3816 97.4759 51.6956 97.4201 63.7383 97.4146C63.6355 98.4634 63.3497 101.654 63.2987 102.198C62.5577 110.26 70.819 110.99 74.8594 115.26C76.3974 116.882 77.5602 118.822 78.2655 120.943C77.0761 120.131 75.6688 119.7 74.2291 119.704C73.4535 119.735 72.3663 119.877 71.8827 120.739C71.7818 120.918 71.7193 121.117 71.6992 121.322C71.6791 121.527 71.7018 121.734 71.7659 121.93C71.8299 122.126 71.9339 122.306 72.0713 122.46C72.2087 122.613 72.3765 122.737 72.5641 122.822C74.1537 123.81 77.165 124.812 76.442 126.56C76.2065 127.136 75.1145 127.071 74.7566 127.05C72.1724 126.893 70.1989 125.48 67.8015 125.547C67.5718 125.552 67.3461 125.608 67.1412 125.712C66.9363 125.816 66.7574 125.965 66.6177 126.147C66.5066 126.328 66.4334 126.53 66.4026 126.741C66.3719 126.951 66.3841 127.166 66.4387 127.371C66.7146 128.094 67.2325 128.7 67.9043 129.085C69.1376 129.997 70.268 130.729 71.2963 131.575C71.6205 131.843 72.2579 132.261 72.2289 132.706C72.1896 133.328 71.575 133.21 70.9729 133.026C67.6665 132.021 66.3971 130.991 65.2801 131.809C64.9594 132.046 64.7333 132.389 64.6423 132.777C64.5513 133.165 64.6012 133.573 64.7832 133.928C66.248 136.735 77.2411 145.118 89.0506 149.677C93.2667 151.335 97.7698 152.14 102.299 152.045C107.814 152.077 113.291 151.14 118.482 149.279C122.142 147.888 125.528 145.862 128.484 143.295H147.119C147.211 143.294 147.3 143.263 147.372 143.206C147.445 143.149 147.496 143.07 147.517 142.981C148.909 133.537 150.075 126.452 145.983 117.712C145.416 116.508 144.763 115.347 144.027 114.238C145.18 113.995 146.262 113.489 147.188 112.759C148.114 112.03 148.859 111.096 149.365 110.03C149.651 109.437 149.793 108.784 149.778 108.125C149.763 107.467 149.592 106.821 149.279 106.241C147.806 103.799 144.312 104.284 143.332 100.983ZM64.813 31.0601C64.9127 31.0292 64.9968 30.9613 65.0481 30.8704C65.0995 30.7795 65.1142 30.6725 65.0893 30.5711C64.9351 29.9539 64.7403 29.3476 64.5061 28.7562C65.5101 27.8432 71.3089 22.5704 72.2517 21.7179C72.597 23.6356 75.2982 38.6417 75.5965 40.309C69.1533 38.6071 58.6358 35.8259 57.1726 35.4318L63.8545 29.3496C64.0241 29.8206 64.1732 30.3026 64.2972 30.7909C64.3301 30.8949 64.4028 30.9816 64.4995 31.0321C64.5962 31.0825 64.7089 31.0926 64.813 31.0601ZM73.0367 132.503C72.8982 131.953 72.5571 131.474 72.0813 131.164C71.5177 130.684 71.0435 130.332 70.392 129.861C68.194 128.267 67.5024 127.963 67.2645 127.278C66.7527 125.807 69.3055 126.472 70.797 126.937C72.3898 127.432 73.9779 128.031 75.5212 127.855C75.8703 127.862 76.2145 127.77 76.5133 127.59C76.8122 127.409 77.0535 127.147 77.2089 126.834C77.3253 126.528 77.3739 126.201 77.3516 125.875C77.3292 125.548 77.2364 125.231 77.0794 124.944C76.3941 123.943 75.5353 123.487 73.9763 122.659C73.9763 122.659 73.5288 122.424 73.4637 122.391C72.8302 122.07 72.3239 121.763 72.5531 121.221C72.8585 120.501 74.0053 120.454 74.9136 120.542C78.0866 120.848 80.5185 123.97 84.4788 126.964C91.379 132.179 100.336 133.563 106.762 130.407C112.087 127.793 114.59 125.093 117.381 124.049C118.787 123.529 120.284 123.305 121.78 123.392C123.276 123.479 124.738 123.875 126.073 124.555C127.409 125.235 128.589 126.184 129.539 127.343C130.49 128.501 131.19 129.844 131.596 131.287C132.138 133.216 132.136 135.257 131.59 137.185C130.686 140.355 128.772 142.22 125.774 144.37C122.163 147.017 118.049 148.899 113.685 149.9C108.08 151.198 99.769 151.949 93.2504 150.16C80.148 146.565 66.4191 135.898 65.4441 133.399C65.4012 133.254 65.3979 133.1 65.4347 132.954C65.4715 132.807 65.547 132.673 65.6534 132.566C65.7597 132.459 65.8929 132.382 66.0391 132.344C66.1852 132.305 66.339 132.307 66.4843 132.349C68.3494 132.838 70.359 133.872 71.6723 134.012C71.8645 134.014 72.0549 133.975 72.2309 133.898C72.4069 133.82 72.5645 133.707 72.6934 133.564C72.8223 133.422 72.9195 133.253 72.9787 133.071C73.0379 132.888 73.0576 132.694 73.0367 132.503ZM40.2276 40.3647C42.4436 38.4886 46.2218 38.5804 48.7213 38.6377C50.1633 38.6731 64.8876 38.6982 66.2998 38.699C76.8188 41.5046 76.0927 41.3444 76.3117 41.2243C76.3629 41.1971 76.4074 41.1587 76.4418 41.112C76.4762 41.0652 76.4996 41.0113 76.5103 40.9543C76.5472 40.7722 76.5103 40.7188 76.1429 38.6778C78.4453 38.666 80.7461 38.6519 83.0454 38.637C82.0256 39.4039 81.2157 40.4155 80.6904 41.5784C56.6639 41.5784 57.6365 41.5548 57.1404 41.6294C56.7041 41.7352 56.3217 41.9972 56.0654 42.3658C55.8091 42.7344 55.6967 43.1841 55.7493 43.63C55.802 44.0758 56.0161 44.4869 56.3512 44.7857C56.6864 45.0844 57.1193 45.2501 57.5682 45.2514H107.011C107.323 45.2636 107.632 45.1966 107.91 45.0565C108.188 44.9164 108.426 44.708 108.601 44.4507C108.777 44.1934 108.884 43.8957 108.913 43.5857C108.941 43.2756 108.891 42.9633 108.766 42.6781C108.616 42.3351 108.365 42.0459 108.047 41.8494C107.728 41.6528 107.357 41.5583 106.983 41.5784H93.7316C93.194 40.3919 92.3603 39.3636 91.3107 38.5922C94.329 38.5726 97.3465 38.5561 100.365 38.5428C100.66 38.8387 102.505 40.6733 103.124 41.302C103.202 41.3777 103.307 41.42 103.415 41.42C103.524 41.42 103.629 41.3777 103.707 41.302L106.485 38.5231C107.662 38.5184 112.545 38.5412 113.809 38.5341C116.75 38.5161 120.022 39.4314 120.919 42.2299C121.616 44.4059 120.488 47.0106 117.036 48.0515C115.54 48.4297 113.996 48.5806 112.455 48.4989C112.213 48.4989 45.6017 48.4722 44.6722 48.3914C37.9738 47.812 37.4196 42.7425 40.2276 40.3647ZM89.484 40.6332C89.3858 41.1552 90.1818 41.3617 90.2807 40.8357C90.3891 40.2705 90.5335 39.7148 90.7141 39.1692C91.4565 39.6815 92.0845 40.3423 92.5583 41.1098C93.0322 41.8773 93.3416 42.7348 93.4671 43.628H80.9628C81.5625 39.407 86.1195 36.6415 89.9903 38.7265C89.7758 39.349 89.6066 39.9863 89.484 40.6332ZM94.3266 44.0087C94.2982 43.464 94.2028 42.9248 94.0425 42.4034C95.4296 42.4034 107.021 42.3979 107.157 42.4034C107.359 42.4199 107.551 42.4961 107.71 42.6223C107.869 42.7485 107.987 42.919 108.048 43.1123C108.089 43.2407 108.104 43.376 108.092 43.5102C108.075 43.6532 108.029 43.7912 107.957 43.9157C107.885 44.0403 107.788 44.1489 107.672 44.2348C107.557 44.3207 107.425 44.3823 107.285 44.4156C107.145 44.4489 106.999 44.4534 106.858 44.4287C101.493 44.4287 93.9169 44.424 93.9169 44.424C93.9169 44.424 94.3078 44.3635 94.3251 44.0126L94.3266 44.0087ZM57.5729 44.4303C57.4051 44.4279 57.2404 44.3841 57.0935 44.3028C56.9467 44.2216 56.8221 44.1054 56.7309 43.9645C56.6396 43.8235 56.5846 43.6623 56.5706 43.495C56.5566 43.3278 56.584 43.1596 56.6506 43.0055C56.7308 42.8221 56.8642 42.6671 57.0336 42.5604C57.2029 42.4538 57.4004 42.4004 57.6004 42.4073H80.3795C80.21 42.9438 80.1159 43.5013 80.1001 44.0637C80.1 44.1414 80.1221 44.2176 80.1638 44.2833C80.2055 44.3489 80.2651 44.4013 80.3356 44.4342L57.5729 44.4303ZM121.983 63.6337C121.897 43.2237 121.95 43.4953 121.924 43.3996C121.957 39.5758 117.797 37.7224 113.942 37.713C113.942 37.713 108.245 37.7005 107.308 37.6997L115.066 29.9431C116.545 30.5951 118.221 30.6457 119.737 30.0844C122.997 28.6855 123.1 23.8193 122.092 19.6046L144.033 41.7118C140.938 44.8024 124.336 61.2897 121.983 63.6337ZM121.198 27.5496C120.542 28.9972 118.711 30.3073 115.699 29.3057C116.273 28.7248 118.937 26.0346 120.012 24.9937C120.087 24.9156 120.129 24.8114 120.129 24.7028C120.129 24.5943 120.087 24.49 120.012 24.412C118.425 22.7808 110.551 14.9888 110.261 14.7015C110.732 14.2126 111.307 13.8369 111.944 13.6025C115.782 12.1895 119.516 14.3483 120.909 18.3125C121.455 20.1918 121.763 22.1324 121.824 24.0886C121.89 25.2759 121.676 26.4621 121.2 27.552L121.198 27.5496ZM121.23 17.0039C118.682 11.6549 112.5 11.242 109.691 14.1301C108.769 13.2132 105.975 10.4327 105.189 9.64927C106.416 8.58675 107.863 7.81106 109.427 7.37868C110.991 6.9463 112.632 6.86812 114.23 7.14983C117.736 7.76213 119.96 10.8331 120.871 13.5021C121.261 14.6258 121.385 15.8249 121.233 17.0047L121.23 17.0039ZM107.212 20.8245C107.152 21.356 107.975 21.374 108.034 20.8465C108.135 18.8977 108.719 17.0046 109.733 15.3374C111.876 17.4694 117.897 23.4661 119.14 24.7024L103.415 40.4315L92.6224 29.6377C92.9991 29.1068 93.4028 28.5956 93.8321 28.1062C94.183 27.7058 93.5966 27.1328 93.2418 27.5331C92.8493 27.9767 92.4568 28.4751 92.0344 29.0505L87.9815 24.9976C90.6466 22.3231 100.662 11.8151 103.419 9.04639C105.326 10.9508 107.236 12.8536 109.149 14.7533C107.851 16.4984 107.452 18.7019 107.214 20.8269L107.212 20.8245ZM38.6474 46.3637C40.81 49.3962 45.0844 49.364 48.8594 49.3349C51.3377 49.3145 113.925 49.364 114.945 49.2784C116.307 49.1567 119.549 48.6112 121.111 46.173C121.117 51.7331 121.253 90.0498 121.26 90.3104C121.358 93.7604 120.818 94.7582 117.262 95.6484C116.54 95.828 115.808 95.9664 115.07 96.0629C114.568 91.9204 115.284 88.8409 114.854 85.4002C114.328 80.8428 112.02 76.6786 108.435 73.816C108.681 73.5478 108.841 73.2125 108.895 72.8529C108.949 72.4932 108.895 72.1257 108.739 71.7971C108.584 71.4685 108.333 71.1938 108.021 71.0081C107.708 70.8223 107.347 70.7341 106.984 70.7545H58.942C58.343 70.7058 57.7409 70.7231 57.1451 70.8055C56.7088 70.9114 56.3263 71.1734 56.07 71.5421C55.8137 71.9108 55.7013 72.3605 55.7541 72.8064C55.8069 73.2523 56.0211 73.6635 56.3564 73.9621C56.6917 74.2608 57.1247 74.4264 57.5737 74.4275H58.1954C61.2883 77.1687 63.2924 82.5813 63.8474 86.4615C64.2547 89.8295 64.2454 93.2348 63.82 96.6006C57.3767 96.6006 52.0246 96.6571 47.7871 96.3651C45.6055 96.2455 43.4474 95.8528 41.3635 95.1962C40.2998 94.8461 38.5076 94.0062 38.459 92.3106C38.4331 91.3929 38.6434 48.225 38.6474 46.3637ZM107.771 73.3363C107.295 73.0033 106.799 72.6987 106.287 72.4241C106.103 72.3019 105.897 72.2183 105.68 72.1784H56.6466C56.7288 71.9954 56.8631 71.8407 57.0328 71.7337C57.2024 71.6266 57.3999 71.5719 57.6004 71.5763H107.157C107.353 71.5932 107.54 71.6663 107.695 71.7869C107.851 71.9075 107.968 72.0705 108.033 72.2562C108.098 72.442 108.108 72.6425 108.061 72.8337C108.015 73.0249 107.914 73.1986 107.771 73.334V73.3363ZM64.8279 87.7473C64.3852 82.6872 61.9807 75.9896 57.7339 73.0208C60.5292 72.9925 105.263 73.0011 105.638 72.9988C105.968 73.2139 106.31 73.4093 106.664 73.582C109.642 75.4442 111.903 78.2585 113.079 81.5678C114.048 84.2301 114.401 87.0768 114.114 89.8951C113.922 93.6631 113.957 99.0906 116.504 102.712C117.199 103.629 118.006 104.456 118.905 105.175C114.419 106.693 110.433 109.407 107.377 113.025C105.242 115.755 102.844 120.107 100.25 125.959H84.5188C82.605 124.489 80.9345 122.848 79.2915 121.635C78.7555 119.506 77.7703 117.515 76.4019 115.798C73.3868 111.969 70.3394 111.49 67.2881 109.15C65.2047 107.552 64.1269 105.724 64.0845 103.715C64.0005 99.7665 65.3978 94.2652 64.8279 87.7473ZM99.886 126.783C99.3404 128.033 98.8066 129.295 98.024 131.239C93.5451 130.988 89.2358 129.44 85.621 126.783H99.886ZM132.824 133.715C132.734 131.707 132.127 129.755 131.061 128.05C129.996 126.345 128.507 124.944 126.741 123.983C124.974 123.023 122.99 122.535 120.979 122.567C118.969 122.599 117.001 123.149 115.266 124.166C113.711 125.09 110.986 127.3 106.788 129.483C104.348 130.713 101.641 131.321 98.9095 131.252C101.463 124.927 105.225 116.62 108.742 112.661C111.956 109.301 115.998 106.848 120.462 105.547C124.177 104.437 128.137 104.45 131.844 105.584C131.525 110.294 136.703 115.416 143.148 114.415C145.937 118.595 147.59 123.429 147.945 128.441C148.245 132.696 147.385 138.239 146.761 142.474H129.375C130.532 141.338 131.437 139.971 132.031 138.462C132.625 136.953 132.895 135.336 132.824 133.715ZM129.762 99.2539C129.202 99.2333 128.665 99.0225 128.24 98.656C127.816 98.2896 127.529 97.7895 127.426 97.238C127.38 96.6672 127.509 96.096 127.798 95.6011C128.086 95.1063 128.519 94.7115 129.038 94.4701C130.191 95.5039 130.881 95.5502 132.267 96.4216C132.306 97.1286 132.065 97.8223 131.595 98.3522C131.125 98.8821 130.466 99.2052 129.759 99.2515L129.762 99.2539ZM131.759 99.323C132.453 98.7655 132.913 97.9676 133.047 97.0873C133.573 97.6866 133.88 98.4474 133.917 99.2445C134.011 101.164 132.372 102.771 131.961 104.761C129.775 104.098 127.491 103.822 125.21 103.944C124.615 102.954 124.251 101.843 124.143 100.693C123.854 97.3864 126 94.514 127.979 92.3482C127.987 92.8875 128.162 93.4111 128.482 93.846C123.998 96.654 128.321 102.067 131.755 99.3206L131.759 99.323ZM136.341 112.16C134.07 110.658 132.004 107.66 132.836 104.624C133.292 102.969 134.515 101.662 134.714 99.9046C134.799 99.064 134.643 98.2166 134.266 97.4609C133.888 96.7051 133.304 96.072 132.58 95.635C131.065 94.704 129.32 94.3963 128.812 92.6214C128.774 92.233 128.814 91.8409 128.93 91.4683L129.229 90.0184C137.797 88.5167 142.434 93.043 142.471 97.4562C142.482 98.5929 142.201 99.7241 142.458 100.884C142.673 101.848 143.164 102.73 143.871 103.421C144.631 104.075 145.488 104.607 146.411 104.998C147.275 105.335 148.025 105.914 148.57 106.666C149.387 108.033 148.783 109.833 147.821 111.012C145.308 114.085 140.051 114.612 136.338 112.158L136.341 112.16ZM35.4877 111.998C34.6841 113.011 34.1376 114.202 33.8948 115.472C33.652 116.741 33.7202 118.051 34.0936 119.288L31.927 122.316C31.5477 121.937 31.2491 121.485 31.0492 120.987C30.8492 120.49 30.7521 119.957 30.7636 119.421C30.7903 117.003 32.5157 114.918 33.8118 113.56C34.3385 113.006 34.8971 112.484 35.4846 111.996L35.4877 111.998ZM32.0746 123.514C32.7418 123.966 33.4428 124.363 34.1729 124.702C34.6517 124.927 35.0576 124.211 34.5732 123.984C33.8705 123.66 33.1953 123.279 32.5542 122.845L34.4743 120.163C35.4182 121.722 36.9037 122.878 38.6466 123.41C39.1474 123.598 39.3719 122.815 38.8821 122.625C36.8937 121.84 35.6275 120.787 35.0144 119.406C35.5961 118.594 40.814 111.321 41.5574 110.29C42.552 111.946 52.8221 129.048 53.8819 130.834C52.1195 130.834 27.3332 130.819 26.8425 130.821C28.5859 128.385 30.3299 125.949 32.0746 123.514ZM44.6526 113.843C43.691 112.241 42.7977 110.738 41.9357 109.32C41.8988 109.26 41.8471 109.21 41.7856 109.175C41.7242 109.14 41.6548 109.121 41.5841 109.12C41.5133 109.119 41.4436 109.137 41.3815 109.171C41.3194 109.205 41.267 109.254 41.2292 109.314L34.6996 118.436C33.8518 114.265 37.2901 111.204 37.4699 110.9C38.2951 110.191 39.16 109.529 40.0604 108.917C40.9952 108.171 42.1014 107.669 43.2789 107.458C43.7911 107.38 44.315 107.463 44.7777 107.696C45.2403 107.93 45.6187 108.302 45.8599 108.76C46.2607 109.62 46.3592 110.59 46.1396 111.512C45.9201 112.435 45.3952 113.256 44.6503 113.843H44.6526Z" fill="black"/>
<path d="M74.229 134.721C76.7772 136.102 76.5471 135.998 76.6853 135.998C76.7525 135.998 76.8186 135.981 76.8778 135.949C76.937 135.917 76.9877 135.872 77.0254 135.816C77.0631 135.761 77.0867 135.697 77.0942 135.63C77.1017 135.563 77.0928 135.496 77.0684 135.433C77.0352 135.349 76.9754 135.278 76.898 135.232L74.6388 134.007C74.1694 133.755 73.7533 134.465 74.229 134.721Z" fill="black"/>
<path d="M80.1558 130C80.6268 130.244 81.0397 129.529 80.5617 129.284C79.9214 128.959 79.3701 128.482 78.9556 127.895C78.651 127.462 77.9468 127.883 78.253 128.324C78.7417 129.029 79.3948 129.604 80.1558 130Z" fill="black"/>
<path d="M144.474 81.0608L141.369 87.3949C141.133 87.8738 141.851 88.2773 142.086 87.7976L145.192 81.4635C145.429 80.9823 144.71 80.5772 144.474 81.0608Z" fill="black"/>
<path d="M143.768 89.64L150.357 85.0132C150.787 84.711 150.37 84.0029 149.928 84.3114L143.339 88.9382C142.902 89.2452 143.334 89.9462 143.768 89.64Z" fill="black"/>
<path d="M152.004 90.5192L144.648 91.5538C144.121 91.6276 144.315 92.4252 144.842 92.353L152.198 91.3176C152.729 91.2438 152.53 90.4486 152.004 90.5192Z" fill="black"/>
<path d="M63.2242 19.4225C63.4722 19.8935 64.1866 19.4853 63.9393 19.0159C63.0238 17.2704 61.8331 15.6838 60.4131 14.3169C60.0276 13.9464 59.4507 14.5328 59.8337 14.9017C61.1995 16.217 62.3443 17.7437 63.2242 19.4233V19.4225Z" fill="black"/>
<path d="M52.3354 19.7907C53.8321 20.6954 55.0354 22.0135 55.8004 23.5862C56.0312 24.0658 56.751 23.6647 56.5187 23.185C55.7112 21.4644 54.3963 20.0322 52.7507 19.0811C52.6573 19.0314 52.5484 19.0197 52.4466 19.0484C52.3449 19.0771 52.2581 19.1439 52.2044 19.235C52.1506 19.326 52.1341 19.4343 52.1582 19.5372C52.1823 19.6402 52.2453 19.7299 52.3338 19.7876L52.3354 19.7907Z" fill="black"/>
<path d="M99.506 25.8344C98.2907 27.2266 97.2297 28.7463 96.3417 30.367C96.2888 30.4613 96.2754 30.5727 96.3043 30.6768C96.3333 30.781 96.4023 30.8694 96.4963 30.9228C96.5898 30.9768 96.7007 30.9919 96.8052 30.9647C96.9097 30.9375 96.9992 30.8703 97.0545 30.7776C97.908 29.215 98.9281 27.7495 100.097 26.4067C100.448 26.0063 99.8569 25.4317 99.506 25.8336V25.8344Z" fill="black"/>
</svg>
