<svg width="23" height="23" viewBox="0 0 23 23" fill="none" xmlns="http://www.w3.org/2000/svg">
<g clip-path="url(#clip0_694_451)">
<path d="M11.803 10.782C13.0186 10.782 14.1844 11.2649 15.0439 12.1244C15.9034 12.984 16.3863 14.1497 16.3863 15.3653V20.8653H7.21966V15.3653C7.21966 14.1497 7.70254 12.984 8.56208 12.1244C9.42162 11.2649 10.5874 10.782 11.803 10.782ZM5.65032 13.5375C5.50444 14.0295 5.41827 14.5373 5.39366 15.05L5.38632 15.3653V20.8653H2.63632V16.7403C2.63614 15.9498 2.92785 15.187 3.45549 14.5983C3.98313 14.0095 4.70955 13.6364 5.49541 13.5503L5.65124 13.5375H5.65032ZM17.9557 13.5375C18.7714 13.5872 19.5375 13.9463 20.0975 14.5414C20.6576 15.1366 20.9695 15.923 20.9697 16.7403V20.8653H18.2197V15.3653C18.2197 14.7301 18.128 14.1168 17.9557 13.5375ZM5.84466 8.03198C6.45244 8.03198 7.03534 8.27343 7.46511 8.7032C7.89488 9.13297 8.13632 9.71586 8.13632 10.3236C8.13632 10.9314 7.89488 11.5143 7.46511 11.9441C7.03534 12.3739 6.45244 12.6153 5.84466 12.6153C5.23687 12.6153 4.65397 12.3739 4.2242 11.9441C3.79443 11.5143 3.55299 10.9314 3.55299 10.3236C3.55299 9.71586 3.79443 9.13297 4.2242 8.7032C4.65397 8.27343 5.23687 8.03198 5.84466 8.03198ZM17.7613 8.03198C18.3691 8.03198 18.952 8.27343 19.3818 8.7032C19.8115 9.13297 20.053 9.71586 20.053 10.3236C20.053 10.9314 19.8115 11.5143 19.3818 11.9441C18.952 12.3739 18.3691 12.6153 17.7613 12.6153C17.1535 12.6153 16.5706 12.3739 16.1409 11.9441C15.7111 11.5143 15.4697 10.9314 15.4697 10.3236C15.4697 9.71586 15.7111 9.13297 16.1409 8.7032C16.5706 8.27343 17.1535 8.03198 17.7613 8.03198ZM11.803 2.53198C12.7754 2.53198 13.7081 2.91829 14.3957 3.60592C15.0833 4.29356 15.4697 5.22619 15.4697 6.19865C15.4697 7.17111 15.0833 8.10374 14.3957 8.79137C13.7081 9.47901 12.7754 9.86532 11.803 9.86532C10.8305 9.86532 9.8979 9.47901 9.21026 8.79137C8.52263 8.10374 8.13632 7.17111 8.13632 6.19865C8.13632 5.22619 8.52263 4.29356 9.21026 3.60592C9.8979 2.91829 10.8305 2.53198 11.803 2.53198Z" fill="#B3B3B3"/>
</g>
<defs>
<clipPath id="clip0_694_451">
<rect width="22" height="22" fill="white" transform="translate(0.802979 0.69873)"/>
</clipPath>
</defs>
</svg>
