<svg width="23" height="23" viewBox="0 0 23 23" fill="none" xmlns="http://www.w3.org/2000/svg">
<g clip-path="url(#clip0_696_1171)">
<path d="M11.7801 10.782C12.9957 10.782 14.1615 11.2649 15.021 12.1244C15.8805 12.984 16.3634 14.1497 16.3634 15.3653V20.8653H7.19676V15.3653C7.19676 14.1497 7.67964 12.984 8.53918 12.1244C9.39872 11.2649 10.5645 10.782 11.7801 10.782ZM5.62742 13.5375C5.48154 14.0295 5.39537 14.5373 5.37076 15.05L5.36342 15.3653V20.8653H2.61342V16.7403C2.61324 15.9498 2.90495 15.187 3.43259 14.5983C3.96023 14.0095 4.68665 13.6364 5.47251 13.5503L5.62834 13.5375H5.62742ZM17.9328 13.5375C18.7485 13.5872 19.5146 13.9463 20.0746 14.5414C20.6347 15.1366 20.9466 15.923 20.9468 16.7403V20.8653H18.1968V15.3653C18.1968 14.7301 18.1051 14.1168 17.9328 13.5375ZM5.82176 8.03198C6.42954 8.03198 7.01244 8.27343 7.44221 8.7032C7.87198 9.13297 8.11342 9.71586 8.11342 10.3236C8.11342 10.9314 7.87198 11.5143 7.44221 11.9441C7.01244 12.3739 6.42954 12.6153 5.82176 12.6153C5.21397 12.6153 4.63107 12.3739 4.2013 11.9441C3.77153 11.5143 3.53009 10.9314 3.53009 10.3236C3.53009 9.71586 3.77153 9.13297 4.2013 8.7032C4.63107 8.27343 5.21397 8.03198 5.82176 8.03198ZM17.7384 8.03198C18.3462 8.03198 18.9291 8.27343 19.3589 8.7032C19.7886 9.13297 20.0301 9.71586 20.0301 10.3236C20.0301 10.9314 19.7886 11.5143 19.3589 11.9441C18.9291 12.3739 18.3462 12.6153 17.7384 12.6153C17.1306 12.6153 16.5477 12.3739 16.118 11.9441C15.6882 11.5143 15.4468 10.9314 15.4468 10.3236C15.4468 9.71586 15.6882 9.13297 16.118 8.7032C16.5477 8.27343 17.1306 8.03198 17.7384 8.03198ZM11.7801 2.53198C12.7525 2.53198 13.6852 2.91829 14.3728 3.60592C15.0604 4.29356 15.4468 5.22619 15.4468 6.19865C15.4468 7.17111 15.0604 8.10374 14.3728 8.79137C13.6852 9.47901 12.7525 9.86532 11.7801 9.86532C10.8076 9.86532 9.875 9.47901 9.18736 8.79137C8.49973 8.10374 8.11342 7.17111 8.11342 6.19865C8.11342 5.22619 8.49973 4.29356 9.18736 3.60592C9.875 2.91829 10.8076 2.53198 11.7801 2.53198Z" fill="#004F9E"/>
</g>
<defs>
<clipPath id="clip0_696_1171">
<rect width="22" height="22" fill="white" transform="translate(0.78009 0.69873)"/>
</clipPath>
</defs>
</svg>
