<svg width="121" height="32" viewBox="0 0 121 32" fill="none" xmlns="http://www.w3.org/2000/svg">
<rect x="46.0079" y="13.4517" width="49.538" height="6.02006" rx="3.01003" transform="rotate(0.0241325 46.0079 13.4517)" fill="#D9D9D9"/>
<path d="M46.0297 16.4343C46.0304 14.772 47.3786 13.4249 49.041 13.4256L58.2651 13.4295L58.2626 19.4495L49.0385 19.4456C47.3761 19.4449 46.029 18.0967 46.0297 16.4343Z" fill="#D40000"/>
<path d="M95.5446 16.4827C95.5453 14.8203 94.1983 13.4721 92.5359 13.4714L83.8276 13.4677L83.825 19.4878L92.5333 19.4914C94.1957 19.4921 95.5439 18.1451 95.5446 16.4827Z" fill="#0081B9"/>
<rect x="58.265" y="13.457" width="12.7813" height="6.02164" transform="rotate(0.0241325 58.265 13.457)" fill="#EF7200"/>
<rect x="71.0463" y="13.4624" width="12.7813" height="6.02164" transform="rotate(0.0241325 71.0463 13.4624)" fill="#00A61B"/>
<path d="M2.41145 13.0851L2.4098 16.9851L3.5898 16.9856L3.59145 13.0856L2.41145 13.0851ZM1.17937 18.0146L1.18188 12.0446L4.81188 12.0461L4.80937 18.0161L1.17937 18.0146ZM7.57228 11.0973L8.82228 11.0978L8.8184 20.3078L7.5684 20.3073L7.57035 15.6773L6.80035 15.6769L6.79858 19.8969L5.56858 19.8964L5.57222 11.2464L6.80222 11.2469L6.8008 14.6169L7.5708 14.6173L7.57228 11.0973ZM14.2709 12.4701C13.0609 12.4696 12.2908 12.8293 12.2905 13.4893C12.2902 14.1593 13.0601 14.5196 14.2701 14.5201C15.4701 14.5206 16.2402 14.1609 16.2405 13.4909C16.2408 12.8309 15.4709 12.4706 14.2709 12.4701ZM14.2696 15.5701C12.2996 15.5693 10.94 14.7587 10.9405 13.4887C10.941 12.2387 12.3014 11.4193 14.2714 11.4201C16.2314 11.4209 17.601 12.2415 17.6005 13.4915C17.6 14.7615 16.2296 15.5709 14.2696 15.5701ZM18.4593 16.2619L18.4589 17.3219L14.9189 17.3204L14.9176 20.3304L13.5976 20.3298L13.5989 17.3198L10.1189 17.3183L10.1193 16.2583L18.4593 16.2619ZM29.5349 11.8665L29.5344 12.8565L22.0344 12.8534L22.0349 11.8634L25.1349 11.8647L25.1352 11.0747L26.4552 11.0752L26.4549 11.8652L29.5349 11.8665ZM23.9623 17.8842L23.9618 19.1442L29.0318 19.1463L29.0314 20.1663L22.6414 20.1636L22.6423 17.8836L23.9623 17.8842ZM24.0637 14.5142C24.0636 14.8442 24.6035 14.9944 25.7935 14.9949C26.9935 14.9955 27.5336 14.8457 27.5337 14.5157C27.5339 14.1757 26.9939 14.0355 25.7939 14.0349C24.6039 14.0344 24.0639 14.1742 24.0637 14.5142ZM26.4529 16.4252L29.9629 16.4267L29.9625 17.4467L21.6225 17.4432L21.6229 16.4232L25.1329 16.4247L25.1332 15.8947C23.5832 15.784 22.7134 15.3136 22.7137 14.5136C22.7141 13.6036 23.8443 13.1141 25.7943 13.1149C27.7543 13.1158 28.8841 13.6062 28.8837 14.5162C28.8834 15.3162 28.0132 15.7859 26.4532 15.8952L26.4529 16.4252ZM36.3127 15.0594L35.7023 16.0891C34.6824 15.7887 33.9727 15.1784 33.553 14.3882C33.1426 15.268 32.4024 15.9477 31.3122 16.2773L30.6826 15.257C32.1628 14.8076 32.8233 13.7279 32.8637 12.6679L31.0337 12.6672L31.0342 11.6172L36.0042 11.6192L36.0037 12.6692L34.2037 12.6685C34.2533 13.6485 34.8829 14.6488 36.3127 15.0594ZM36.771 19.1796L36.7713 18.3996L33.3713 18.3981L33.371 19.1781L36.771 19.1796ZM36.7718 17.3796L36.7721 16.5696L38.0821 16.5701L38.0806 20.2201L32.0706 20.2176L32.0721 16.5676L33.3721 16.5681L33.3718 17.3781L36.7718 17.3796ZM39.3036 13.0706L39.3031 14.1606L38.0831 14.1601L38.0822 16.2101L36.7622 16.2096L36.7644 11.1296L38.0844 11.1301L38.0836 13.0701L39.3036 13.0706Z" fill="#D40000"/>
<path d="M107.076 16.8645L108.646 16.8652L108.647 15.0652L107.047 15.0645C107.107 15.3645 107.137 15.6945 107.137 16.0445C107.136 16.3345 107.116 16.6145 107.076 16.8645ZM104.756 18.1435C105.436 18.1438 105.896 17.414 105.897 16.044C105.897 14.684 105.437 13.9538 104.757 13.9535C104.087 13.9533 103.627 14.6831 103.627 16.0431C103.626 17.4131 104.086 18.1433 104.756 18.1435ZM108.648 12.1152L109.968 12.1157L109.964 21.3557L108.644 21.3552L108.646 17.9352L106.766 17.9344C106.355 18.8342 105.645 19.3539 104.755 19.3435C103.385 19.343 102.376 18.0725 102.377 16.0425C102.377 14.0225 103.388 12.763 104.758 12.7635C105.588 12.7639 106.278 13.2142 106.687 14.0043L108.647 14.0052L108.648 12.1152ZM115.587 13.4881C114.377 13.4876 113.607 13.8473 113.606 14.4973C113.606 15.1573 114.376 15.5076 115.586 15.5081C116.786 15.5086 117.556 15.1589 117.556 14.4989C117.557 13.8489 116.787 13.4886 115.587 13.4881ZM115.586 16.5581C113.616 16.5573 112.256 15.7567 112.256 14.4967C112.257 13.2467 113.617 12.4373 115.587 12.4381C117.547 12.4389 118.917 13.2495 118.916 14.4995C118.916 15.7595 117.546 16.5589 115.586 16.5581ZM119.775 17.2499L119.775 18.3199L117.845 18.319L117.844 21.329L116.504 21.3285L116.505 18.3185L114.655 18.3177L114.654 21.3277L113.324 21.3271L113.325 18.3171L111.435 18.3163L111.435 17.2463L119.775 17.2499Z" fill="#0081B9"/>
</svg>
