<svg width="15" height="15" viewBox="0 0 15 15" fill="none" xmlns="http://www.w3.org/2000/svg">
<g clip-path="url(#clip0_264_427)">
<path d="M1.26257 13.4027C1.26257 12.165 1.75424 10.978 2.62941 10.1029C3.50458 9.22771 4.69156 8.73604 5.92924 8.73604C7.16692 8.73604 8.3539 9.22771 9.22907 10.1029C10.1042 10.978 10.5959 12.165 10.5959 13.4027H1.26257ZM5.92924 8.15271C3.99549 8.15271 2.42924 6.58646 2.42924 4.65271C2.42924 2.71896 3.99549 1.15271 5.92924 1.15271C7.86299 1.15271 9.42924 2.71896 9.42924 4.65271C9.42924 6.58646 7.86299 8.15271 5.92924 8.15271ZM10.2243 9.45529C11.1166 9.68463 11.9138 10.1896 12.5024 10.8984C13.091 11.6071 13.4411 12.4835 13.5027 13.4027H11.7626C11.7626 11.8802 11.1792 10.4942 10.2243 9.45529ZM9.04424 8.12763C9.53307 7.6904 9.924 7.15482 10.1914 6.55598C10.4588 5.95713 10.5967 5.30854 10.5959 4.65271C10.5971 3.85556 10.3932 3.07151 10.0038 2.37596C10.6645 2.50872 11.2589 2.86618 11.6858 3.38757C12.1128 3.90897 12.346 4.56213 12.3459 5.23604C12.3461 5.65165 12.2574 6.06249 12.0858 6.44102C11.9142 6.81955 11.6637 7.15704 11.3511 7.43086C11.0384 7.70468 10.6708 7.9085 10.273 8.02867C9.87514 8.14884 9.4562 8.18258 9.04424 8.12763Z" fill="white"/>
</g>
<defs>
<clipPath id="clip0_264_427">
<rect width="14" height="14" fill="white" transform="translate(0.0959473 0.569397)"/>
</clipPath>
</defs>
</svg>
