<svg width="21" height="28" viewBox="0 0 21 28" fill="none" xmlns="http://www.w3.org/2000/svg">
<circle cx="10.1286" cy="13.9084" r="10.1286" fill="#F5F5F5"/>
<path d="M8.47782 16.2676V16.061C8.48188 15.3518 8.54469 14.7864 8.66627 14.365C8.79189 13.9435 8.97426 13.6031 9.21335 13.3437C9.45245 13.0844 9.74018 12.8493 10.0765 12.6386C10.3278 12.4765 10.5527 12.3083 10.7513 12.1341C10.9499 11.9598 11.1079 11.7673 11.2254 11.5566C11.3429 11.3418 11.4017 11.1027 11.4017 10.8393C11.4017 10.5597 11.3348 10.3145 11.2011 10.1038C11.0674 9.89304 10.887 9.73093 10.6601 9.61746C10.4372 9.50399 10.19 9.44726 9.91849 9.44726C9.65508 9.44726 9.40585 9.50602 9.1708 9.62354C8.93576 9.73701 8.74326 9.90722 8.59332 10.1342C8.44338 10.357 8.36233 10.6346 8.35017 10.967H5.87003C5.8903 10.1564 6.08482 9.48778 6.45359 8.96096C6.82237 8.43008 7.3107 8.03496 7.91858 7.7756C8.52645 7.51218 9.19714 7.38048 9.93065 7.38048C10.7371 7.38048 11.4503 7.51421 12.0704 7.78168C12.6904 8.04509 13.1767 8.42805 13.5293 8.93056C13.8818 9.43308 14.0581 10.0389 14.0581 10.7481C14.0581 11.2223 13.9791 11.6437 13.8211 12.0125C13.6671 12.3772 13.4503 12.7014 13.1706 12.9851C12.891 13.2647 12.5607 13.518 12.1798 13.7449C11.8596 13.9354 11.5962 14.134 11.3896 14.3407C11.1869 14.5473 11.035 14.7864 10.9336 15.058C10.8364 15.3295 10.7857 15.6638 10.7817 16.061V16.2676H8.47782ZM9.68142 20.158C9.27617 20.158 8.92968 20.0162 8.64195 19.7325C8.35827 19.4448 8.21846 19.1003 8.22252 18.6991C8.21846 18.302 8.35827 17.9616 8.64195 17.6779C8.92968 17.3942 9.27617 17.2524 9.68142 17.2524C10.0664 17.2524 10.4048 17.3942 10.6966 17.6779C10.9884 17.9616 11.1363 18.302 11.1403 18.6991C11.1363 18.9666 11.0654 19.2118 10.9276 19.4347C10.7938 19.6535 10.6176 19.8298 10.3987 19.9635C10.1799 20.0932 9.94078 20.158 9.68142 20.158Z" fill="#D0D0D0"/>
</svg>
