<svg width="23" height="23" viewBox="0 0 23 23" fill="none" xmlns="http://www.w3.org/2000/svg">
<g clip-path="url(#clip0_81_975)">
<path d="M2.26904 4.26274C2.26904 4.01962 2.36435 3.78646 2.53401 3.61455C2.70366 3.44265 2.93376 3.34607 3.17369 3.34607H19.4574C19.6973 3.34607 19.9274 3.44265 20.097 3.61455C20.2667 3.78646 20.362 4.01962 20.362 4.26274V9.3044C19.7622 9.3044 19.1869 9.54585 18.7628 9.97562C18.3387 10.4054 18.1004 10.9883 18.1004 11.5961C18.1004 12.2039 18.3387 12.7868 18.7628 13.2165C19.1869 13.6463 19.7622 13.8877 20.362 13.8877V18.9294C20.362 19.1725 20.2667 19.4057 20.097 19.5776C19.9274 19.7495 19.6973 19.8461 19.4574 19.8461H3.17369C2.93376 19.8461 2.70366 19.7495 2.53401 19.5776C2.36435 19.4057 2.26904 19.1725 2.26904 18.9294V4.26274ZM7.77383 18.0127C7.86707 17.7442 8.04029 17.5115 8.26958 17.347C8.49887 17.1824 8.77292 17.094 9.0539 17.094C9.33488 17.094 9.60893 17.1824 9.83822 17.347C10.0675 17.5115 10.2407 17.7442 10.334 18.0127H18.5527V15.2921C17.8731 14.9508 17.3011 14.4239 16.9013 13.7709C16.5014 13.1179 16.2895 12.3646 16.2895 11.5961C16.2895 10.8275 16.5014 10.0743 16.9013 9.42124C17.3011 8.7682 17.8731 8.24134 18.5527 7.90007V5.1794H10.334C10.2407 5.44798 10.0675 5.68061 9.83822 5.84517C9.60893 6.00973 9.33488 6.09811 9.0539 6.09811C8.77292 6.09811 8.49887 6.00973 8.26958 5.84517C8.04029 5.68061 7.86707 5.44798 7.77383 5.1794H4.07834V18.0127H7.77383ZM9.0539 10.6794C8.69401 10.6794 8.34886 10.5345 8.09438 10.2767C7.8399 10.0188 7.69693 9.66908 7.69693 9.3044C7.69693 8.93973 7.8399 8.58999 8.09438 8.33213C8.34886 8.07427 8.69401 7.9294 9.0539 7.9294C9.41379 7.9294 9.75894 8.07427 10.0134 8.33213C10.2679 8.58999 10.4109 8.93973 10.4109 9.3044C10.4109 9.66908 10.2679 10.0188 10.0134 10.2767C9.75894 10.5345 9.41379 10.6794 9.0539 10.6794ZM9.0539 15.2627C8.69401 15.2627 8.34886 15.1179 8.09438 14.86C7.8399 14.6021 7.69693 14.2524 7.69693 13.8877C7.69693 13.5231 7.8399 13.1733 8.09438 12.9155C8.34886 12.6576 8.69401 12.5127 9.0539 12.5127C9.41379 12.5127 9.75894 12.6576 10.0134 12.9155C10.2679 13.1733 10.4109 13.5231 10.4109 13.8877C10.4109 14.2524 10.2679 14.6021 10.0134 14.86C9.75894 15.1179 9.41379 15.2627 9.0539 15.2627Z" fill="#3694A8"/>
</g>
<defs>
<clipPath id="clip0_81_975">
<rect width="21.7115" height="22" fill="white" transform="translate(0.459717 0.596191)"/>
</clipPath>
</defs>
</svg>
