<svg width="23" height="23" viewBox="0 0 23 23" fill="none" xmlns="http://www.w3.org/2000/svg">
<g opacity="0.3" clip-path="url(#clip0_81_1715)">
<path d="M2.26904 4.21354C2.26904 3.97043 2.36435 3.73727 2.53401 3.56536C2.70366 3.39345 2.93376 3.29688 3.17369 3.29688H19.4574C19.6973 3.29688 19.9274 3.39345 20.097 3.56536C20.2667 3.73727 20.362 3.97043 20.362 4.21354V9.25521C19.7622 9.25521 19.1869 9.49665 18.7628 9.92642C18.3387 10.3562 18.1004 10.9391 18.1004 11.5469C18.1004 12.1547 18.3387 12.7376 18.7628 13.1673C19.1869 13.5971 19.7622 13.8385 20.362 13.8385V18.8802C20.362 19.1233 20.2667 19.3565 20.097 19.5284C19.9274 19.7003 19.6973 19.7969 19.4574 19.7969H3.17369C2.93376 19.7969 2.70366 19.7003 2.53401 19.5284C2.36435 19.3565 2.26904 19.1233 2.26904 18.8802V4.21354ZM7.77383 17.9635C7.86707 17.695 8.04029 17.4623 8.26958 17.2978C8.49887 17.1332 8.77292 17.0448 9.0539 17.0448C9.33488 17.0448 9.60893 17.1332 9.83822 17.2978C10.0675 17.4623 10.2407 17.695 10.334 17.9635H18.5527V15.2429C17.8731 14.9016 17.3011 14.3747 16.9013 13.7217C16.5014 13.0687 16.2895 12.3154 16.2895 11.5469C16.2895 10.7783 16.5014 10.0251 16.9013 9.37205C17.3011 8.719 17.8731 8.19215 18.5527 7.85087V5.13021H10.334C10.2407 5.39879 10.0675 5.63141 9.83822 5.79598C9.60893 5.96054 9.33488 6.04892 9.0539 6.04892C8.77292 6.04892 8.49887 5.96054 8.26958 5.79598C8.04029 5.63141 7.86707 5.39879 7.77383 5.13021H4.07834V17.9635H7.77383ZM9.0539 10.6302C8.69401 10.6302 8.34886 10.4853 8.09438 10.2275C7.8399 9.96962 7.69693 9.61988 7.69693 9.25521C7.69693 8.89054 7.8399 8.5408 8.09438 8.28294C8.34886 8.02507 8.69401 7.88021 9.0539 7.88021C9.41379 7.88021 9.75894 8.02507 10.0134 8.28294C10.2679 8.5408 10.4109 8.89054 10.4109 9.25521C10.4109 9.61988 10.2679 9.96962 10.0134 10.2275C9.75894 10.4853 9.41379 10.6302 9.0539 10.6302ZM9.0539 15.2135C8.69401 15.2135 8.34886 15.0687 8.09438 14.8108C7.8399 14.553 7.69693 14.2032 7.69693 13.8385C7.69693 13.4739 7.8399 13.1241 8.09438 12.8663C8.34886 12.6084 8.69401 12.4635 9.0539 12.4635C9.41379 12.4635 9.75894 12.6084 10.0134 12.8663C10.2679 13.1241 10.4109 13.4739 10.4109 13.8385C10.4109 14.2032 10.2679 14.553 10.0134 14.8108C9.75894 15.0687 9.41379 15.2135 9.0539 15.2135Z" fill="black"/>
</g>
<defs>
<clipPath id="clip0_81_1715">
<rect width="21.7115" height="22" fill="white" transform="translate(0.459717 0.546875)"/>
</clipPath>
</defs>
</svg>
