<svg width="23" height="23" viewBox="0 0 23 23" fill="none" xmlns="http://www.w3.org/2000/svg">
<g clip-path="url(#clip0_81_907)">
<path d="M2.26904 3.76957C2.26904 3.52646 2.36435 3.2933 2.53401 3.12139C2.70366 2.94948 2.93376 2.85291 3.17369 2.85291H19.4574C19.6973 2.85291 19.9274 2.94948 20.097 3.12139C20.2667 3.2933 20.362 3.52646 20.362 3.76957V8.81124C19.7622 8.81124 19.1869 9.05268 18.7628 9.48245C18.3387 9.91222 18.1004 10.4951 18.1004 11.1029C18.1004 11.7107 18.3387 12.2936 18.7628 12.7234C19.1869 13.1531 19.7622 13.3946 20.362 13.3946V18.4362C20.362 18.6794 20.2667 18.9125 20.097 19.0844C19.9274 19.2563 19.6973 19.3529 19.4574 19.3529H3.17369C2.93376 19.3529 2.70366 19.2563 2.53401 19.0844C2.36435 18.9125 2.26904 18.6794 2.26904 18.4362V3.76957ZM7.77383 17.5196C7.86707 17.251 8.04029 17.0184 8.26958 16.8538C8.49887 16.6892 8.77292 16.6009 9.0539 16.6009C9.33488 16.6009 9.60893 16.6892 9.83822 16.8538C10.0675 17.0184 10.2407 17.251 10.334 17.5196H18.5527V14.7989C17.8731 14.4576 17.3011 13.9308 16.9013 13.2777C16.5014 12.6247 16.2895 11.8714 16.2895 11.1029C16.2895 10.3344 16.5014 9.58112 16.9013 8.92808C17.3011 8.27503 17.8731 7.74818 18.5527 7.40691V4.68624H10.334C10.2407 4.95482 10.0675 5.18744 9.83822 5.35201C9.60893 5.51657 9.33488 5.60495 9.0539 5.60495C8.77292 5.60495 8.49887 5.51657 8.26958 5.35201C8.04029 5.18744 7.86707 4.95482 7.77383 4.68624H4.07834V17.5196H7.77383ZM9.0539 10.1862C8.69401 10.1862 8.34886 10.0414 8.09438 9.78351C7.8399 9.52565 7.69693 9.17591 7.69693 8.81124C7.69693 8.44657 7.8399 8.09683 8.09438 7.83897C8.34886 7.5811 8.69401 7.43624 9.0539 7.43624C9.41379 7.43624 9.75894 7.5811 10.0134 7.83897C10.2679 8.09683 10.4109 8.44657 10.4109 8.81124C10.4109 9.17591 10.2679 9.52565 10.0134 9.78351C9.75894 10.0414 9.41379 10.1862 9.0539 10.1862ZM9.0539 14.7696C8.69401 14.7696 8.34886 14.6247 8.09438 14.3668C7.8399 14.109 7.69693 13.7592 7.69693 13.3946C7.69693 13.0299 7.8399 12.6802 8.09438 12.4223C8.34886 12.1644 8.69401 12.0196 9.0539 12.0196C9.41379 12.0196 9.75894 12.1644 10.0134 12.4223C10.2679 12.6802 10.4109 13.0299 10.4109 13.3946C10.4109 13.7592 10.2679 14.109 10.0134 14.3668C9.75894 14.6247 9.41379 14.7696 9.0539 14.7696Z" fill="#004F9E"/>
</g>
<defs>
<clipPath id="clip0_81_907">
<rect width="21.7115" height="22" fill="white" transform="translate(0.459717 0.103027)"/>
</clipPath>
</defs>
</svg>
