<svg width="18" height="19" viewBox="0 0 18 19" fill="none" xmlns="http://www.w3.org/2000/svg">
<g clip-path="url(#clip0_81_1733)">
<path d="M3 11.7146H4.5V15.4646H13.5V3.4646H4.5V7.2146H3V2.7146C3 2.51569 3.07902 2.32492 3.21967 2.18427C3.36032 2.04362 3.55109 1.9646 3.75 1.9646H14.25C14.4489 1.9646 14.6397 2.04362 14.7803 2.18427C14.921 2.32492 15 2.51569 15 2.7146V16.2146C15 16.4135 14.921 16.6043 14.7803 16.7449C14.6397 16.8856 14.4489 16.9646 14.25 16.9646H3.75C3.55109 16.9646 3.36032 16.8856 3.21967 16.7449C3.07902 16.6043 3 16.4135 3 16.2146V11.7146ZM7.5 8.7146V6.4646L11.25 9.4646L7.5 12.4646V10.2146H1.5V8.7146H7.5Z" fill="#A9A9A9"/>
</g>
<defs>
<clipPath id="clip0_81_1733">
<rect width="18" height="18" fill="white" transform="translate(0 0.4646)"/>
</clipPath>
</defs>
</svg>
