<svg width="25" height="23" viewBox="0 0 25 23" fill="none" xmlns="http://www.w3.org/2000/svg">
<g clip-path="url(#clip0_81_1721)">
<path d="M20.2637 20.7134H18.3033V18.88C18.3033 18.1507 17.9935 17.4512 17.442 16.9355C16.8906 16.4198 16.1426 16.13 15.3627 16.13H9.48155C8.70165 16.13 7.9537 16.4198 7.40224 16.9355C6.85077 17.4512 6.54096 18.1507 6.54096 18.88V20.7134H4.58057V18.88C4.58057 17.6645 5.09692 16.4987 6.01603 15.6391C6.93514 14.7796 8.18173 14.2967 9.48155 14.2967H15.3627C16.6625 14.2967 17.9091 14.7796 18.8282 15.6391C19.7474 16.4987 20.2637 17.6645 20.2637 18.88V20.7134ZM12.4221 12.4634C11.6498 12.4634 10.885 12.3211 10.1715 12.0447C9.45797 11.7683 8.80963 11.3632 8.26352 10.8525C7.7174 10.3417 7.28419 9.73543 6.98864 9.06814C6.69308 8.40085 6.54096 7.68565 6.54096 6.96338C6.54096 6.24111 6.69308 5.52591 6.98864 4.85862C7.28419 4.19133 7.7174 3.58501 8.26352 3.07429C8.80963 2.56357 9.45797 2.15844 10.1715 1.88204C10.885 1.60564 11.6498 1.46338 12.4221 1.46338C13.9819 1.46338 15.4778 2.04284 16.5808 3.07429C17.6837 4.10574 18.3033 5.50469 18.3033 6.96338C18.3033 8.42207 17.6837 9.82102 16.5808 10.8525C15.4778 11.8839 13.9819 12.4634 12.4221 12.4634ZM12.4221 10.63C13.462 10.63 14.4593 10.2437 15.1945 9.5561C15.9298 8.86847 16.3429 7.93584 16.3429 6.96338C16.3429 5.99092 15.9298 5.05829 15.1945 4.37065C14.4593 3.68302 13.462 3.29671 12.4221 3.29671C11.3823 3.29671 10.385 3.68302 9.64972 4.37065C8.91443 5.05829 8.50135 5.99092 8.50135 6.96338C8.50135 7.93584 8.91443 8.86847 9.64972 9.5561C10.385 10.2437 11.3823 10.63 12.4221 10.63Z" fill="#004F9E"/>
</g>
<defs>
<clipPath id="clip0_81_1721">
<rect width="23.5247" height="22" fill="white" transform="translate(0.65979 0.546875)"/>
</clipPath>
</defs>
</svg>
