<svg width="25" height="23" viewBox="0 0 25 23" fill="none" xmlns="http://www.w3.org/2000/svg">
<g opacity="0.3" clip-path="url(#clip0_81_1041)">
<path d="M20.2637 20.7629H18.3033V18.9296C18.3033 18.2003 17.9935 17.5008 17.442 16.9851C16.8906 16.4693 16.1426 16.1796 15.3627 16.1796H9.48155C8.70165 16.1796 7.9537 16.4693 7.40224 16.9851C6.85077 17.5008 6.54096 18.2003 6.54096 18.9296V20.7629H4.58057V18.9296C4.58057 17.714 5.09692 16.5482 6.01603 15.6887C6.93514 14.8292 8.18173 14.3463 9.48155 14.3463H15.3627C16.6625 14.3463 17.9091 14.8292 18.8282 15.6887C19.7474 16.5482 20.2637 17.714 20.2637 18.9296V20.7629ZM12.4221 12.5129C11.6498 12.5129 10.885 12.3707 10.1715 12.0943C9.45797 11.8179 8.80963 11.4127 8.26352 10.902C7.7174 10.3913 7.28419 9.78499 6.98864 9.1177C6.69308 8.45041 6.54096 7.73521 6.54096 7.01294C6.54096 6.29067 6.69308 5.57547 6.98864 4.90818C7.28419 4.24089 7.7174 3.63457 8.26352 3.12385C8.80963 2.61313 9.45797 2.208 10.1715 1.9316C10.885 1.6552 11.6498 1.51294 12.4221 1.51294C13.9819 1.51294 15.4778 2.0924 16.5808 3.12385C17.6837 4.1553 18.3033 5.55425 18.3033 7.01294C18.3033 8.47163 17.6837 9.87058 16.5808 10.902C15.4778 11.9335 13.9819 12.5129 12.4221 12.5129ZM12.4221 10.6796C13.462 10.6796 14.4593 10.2933 15.1945 9.60566C15.9298 8.91803 16.3429 7.9854 16.3429 7.01294C16.3429 6.04048 15.9298 5.10785 15.1945 4.42021C14.4593 3.73258 13.462 3.34627 12.4221 3.34627C11.3823 3.34627 10.385 3.73258 9.64972 4.42021C8.91443 5.10785 8.50135 6.04048 8.50135 7.01294C8.50135 7.9854 8.91443 8.91803 9.64972 9.60566C10.385 10.2933 11.3823 10.6796 12.4221 10.6796Z" fill="#09121F"/>
</g>
<defs>
<clipPath id="clip0_81_1041">
<rect width="23.5247" height="22" fill="white" transform="translate(0.65979 0.596191)"/>
</clipPath>
</defs>
</svg>
