<svg width="24" height="25" viewBox="0 0 24 25" fill="none" xmlns="http://www.w3.org/2000/svg">
<g clip-path="url(#clip0_81_1761)">
<path d="M5 18.9507H19V11.9817C19 8.09868 15.866 4.95068 12 4.95068C8.134 4.95068 5 8.09868 5 11.9817V18.9507ZM12 2.95068C16.97 2.95068 21 6.99368 21 11.9817V20.9507H3V11.9817C3 6.99368 7.03 2.95068 12 2.95068ZM9.5 21.9507H14.5C14.5 22.6137 14.2366 23.2496 13.7678 23.7185C13.2989 24.1873 12.663 24.4507 12 24.4507C11.337 24.4507 10.7011 24.1873 10.2322 23.7185C9.76339 23.2496 9.5 22.6137 9.5 21.9507Z" fill="#09121F"/>
</g>
<defs>
<clipPath id="clip0_81_1761">
<rect width="24" height="24" fill="white" transform="translate(0 0.950684)"/>
</clipPath>
</defs>
</svg>
