<svg width="21" height="23" viewBox="0 0 21 23" fill="none" xmlns="http://www.w3.org/2000/svg">
<g clip-path="url(#clip0_391_563)">
<path d="M16.382 20.3029H4.61812C3.94956 20.3029 3.30837 20.0132 2.83563 19.4975C2.36288 18.9818 2.09729 18.2823 2.09729 17.5529V2.88627C2.09729 2.64316 2.18582 2.41 2.3434 2.23809C2.50098 2.06618 2.71471 1.9696 2.93757 1.9696H14.7015C14.9243 1.9696 15.138 2.06618 15.2956 2.23809C15.4532 2.41 15.5417 2.64316 15.5417 2.88627V13.8863H18.9028V17.5529C18.9028 18.2823 18.6373 18.9818 18.1645 19.4975C17.6918 20.0132 17.0506 20.3029 16.382 20.3029ZM15.5417 15.7196V17.5529C15.5417 17.7961 15.6303 18.0292 15.7878 18.2011C15.9454 18.373 16.1592 18.4696 16.382 18.4696C16.6049 18.4696 16.8186 18.373 16.9762 18.2011C17.1338 18.0292 17.2223 17.7961 17.2223 17.5529V15.7196H15.5417ZM13.8612 18.4696V3.80294H3.77785V17.5529C3.77785 17.7961 3.86637 18.0292 4.02396 18.2011C4.18154 18.373 4.39527 18.4696 4.61812 18.4696H13.8612ZM5.4584 6.55294H12.1806V8.38627H5.4584V6.55294ZM5.4584 10.2196H12.1806V12.0529H5.4584V10.2196ZM5.4584 13.8863H9.65979V15.7196H5.4584V13.8863Z" fill="#004F9E"/>
</g>
<defs>
<clipPath id="clip0_391_563">
<rect width="20.1667" height="22" fill="white" transform="translate(0.416748 0.13623)"/>
</clipPath>
</defs>
</svg>
