<svg width="21" height="23" viewBox="0 0 21 23" fill="none" xmlns="http://www.w3.org/2000/svg">
<g opacity="0.3" clip-path="url(#clip0_81_978)">
<path d="M16.382 20.7629H4.61812C3.94956 20.7629 3.30837 20.4732 2.83563 19.9574C2.36288 19.4417 2.09729 18.7422 2.09729 18.0129V3.34623C2.09729 3.10312 2.18582 2.86996 2.3434 2.69805C2.50098 2.52614 2.71471 2.42957 2.93757 2.42957H14.7015C14.9243 2.42957 15.138 2.52614 15.2956 2.69805C15.4532 2.86996 15.5417 3.10312 15.5417 3.34623V14.3462H18.9028V18.0129C18.9028 18.7422 18.6373 19.4417 18.1645 19.9574C17.6918 20.4732 17.0506 20.7629 16.382 20.7629ZM15.5417 16.1796V18.0129C15.5417 18.256 15.6303 18.4892 15.7878 18.6611C15.9454 18.833 16.1592 18.9296 16.382 18.9296C16.6049 18.9296 16.8186 18.833 16.9762 18.6611C17.1338 18.4892 17.2223 18.256 17.2223 18.0129V16.1796H15.5417ZM13.8612 18.9296V4.2629H3.77785V18.0129C3.77785 18.256 3.86637 18.4892 4.02396 18.6611C4.18154 18.833 4.39527 18.9296 4.61812 18.9296H13.8612ZM5.4584 7.0129H12.1806V8.84623H5.4584V7.0129ZM5.4584 10.6796H12.1806V12.5129H5.4584V10.6796ZM5.4584 14.3462H9.65979V16.1796H5.4584V14.3462Z" fill="#09121F"/>
</g>
<defs>
<clipPath id="clip0_81_978">
<rect width="20.1667" height="22" fill="white" transform="translate(0.416748 0.596191)"/>
</clipPath>
</defs>
</svg>
