<svg width="24" height="25" viewBox="0 0 24 25" fill="none" xmlns="http://www.w3.org/2000/svg">
<g opacity="0.5" clip-path="url(#clip0_81_1727)">
<path d="M3.34006 17.2676C2.91733 16.5366 2.58873 15.7551 2.36206 14.9416C2.85537 14.6907 3.26965 14.3083 3.55909 13.8365C3.84852 13.3648 4.00183 12.8222 4.00203 12.2688C4.00224 11.7153 3.84934 11.1726 3.56026 10.7006C3.27118 10.2287 2.85718 9.84591 2.36406 9.59465C2.8161 7.96013 3.67679 6.4676 4.86506 5.25764C5.32915 5.55937 5.86768 5.72681 6.42104 5.74143C6.9744 5.75604 7.52101 5.61728 8.00039 5.34048C8.47977 5.06368 8.87321 4.65964 9.13719 4.17309C9.40116 3.68653 9.52537 3.13642 9.49606 2.58365C11.1382 2.15927 12.8613 2.15996 14.5031 2.58565C14.474 3.13841 14.5985 3.68843 14.8626 4.17485C15.1268 4.66127 15.5204 5.06512 15.9999 5.34171C16.4794 5.61829 17.026 5.75683 17.5793 5.742C18.1327 5.72716 18.6711 5.55953 19.1351 5.25764C19.7141 5.84764 20.2281 6.51865 20.6601 7.26765C21.0931 8.01665 21.4171 8.79765 21.6381 9.59365C21.1448 9.84455 20.7305 10.227 20.441 10.6988C20.1516 11.1705 19.9983 11.7131 19.9981 12.2665C19.9979 12.82 20.1508 13.3627 20.4399 13.8346C20.7289 14.3066 21.1429 14.6894 21.6361 14.9406C21.184 16.5752 20.3233 18.0677 19.1351 19.2776C18.671 18.9759 18.1324 18.8085 17.5791 18.7939C17.0257 18.7792 16.4791 18.918 15.9997 19.1948C15.5204 19.4716 15.1269 19.8756 14.8629 20.3622C14.599 20.8488 14.4748 21.3989 14.5041 21.9516C12.862 22.376 11.1388 22.3753 9.49706 21.9496C9.52611 21.3969 9.40166 20.8469 9.13748 20.3604C8.8733 19.874 8.4797 19.4702 8.00023 19.1936C7.52076 18.917 6.97412 18.7785 6.42079 18.7933C5.86746 18.8081 5.32902 18.9758 4.86506 19.2776C4.27405 18.6746 3.76166 17.9992 3.34006 17.2676ZM9.00006 17.4636C10.0657 18.0783 10.8669 19.0647 11.2501 20.2336C11.7491 20.2806 12.2501 20.2816 12.7491 20.2346C13.1325 19.0655 13.9341 18.0791 15.0001 17.4646C16.0653 16.8483 17.3206 16.6471 18.5251 16.8996C18.8151 16.4916 19.0651 16.0566 19.2731 15.6016C18.4525 14.6851 17.9992 13.4979 18.0001 12.2676C18.0001 11.0076 18.4701 9.83065 19.2731 8.93365C19.0636 8.47879 18.8125 8.04428 18.5231 7.63565C17.3193 7.88795 16.0649 7.68712 15.0001 7.07165C13.9344 6.45702 13.1332 5.47063 12.7501 4.30165C12.2511 4.25464 11.7501 4.25365 11.2511 4.30065C10.8677 5.46979 10.0661 6.4562 9.00006 7.07065C7.93484 7.68696 6.67954 7.88816 5.47506 7.63565C5.18563 8.04393 4.93519 8.47851 4.72706 8.93365C5.54763 9.8502 6.00094 11.0374 6.00006 12.2676C6.00006 13.5276 5.53006 14.7046 4.72706 15.6016C4.93653 16.0565 5.1876 16.491 5.47706 16.8996C6.68078 16.6473 7.93527 16.8482 9.00006 17.4636ZM12.0001 15.2676C11.2044 15.2676 10.4413 14.9516 9.87874 14.389C9.31613 13.8264 9.00006 13.0633 9.00006 12.2676C9.00006 11.472 9.31613 10.7089 9.87874 10.1463C10.4413 9.58372 11.2044 9.26765 12.0001 9.26765C12.7957 9.26765 13.5588 9.58372 14.1214 10.1463C14.684 10.7089 15.0001 11.472 15.0001 12.2676C15.0001 13.0633 14.684 13.8264 14.1214 14.389C13.5588 14.9516 12.7957 15.2676 12.0001 15.2676ZM12.0001 13.2676C12.2653 13.2676 12.5196 13.1623 12.7072 12.9748C12.8947 12.7872 13.0001 12.5329 13.0001 12.2676C13.0001 12.0024 12.8947 11.7481 12.7072 11.5605C12.5196 11.373 12.2653 11.2676 12.0001 11.2676C11.7348 11.2676 11.4805 11.373 11.293 11.5605C11.1054 11.7481 11.0001 12.0024 11.0001 12.2676C11.0001 12.5329 11.1054 12.7872 11.293 12.9748C11.4805 13.1623 11.7348 13.2676 12.0001 13.2676Z" fill="#09121F"/>
</g>
<defs>
<clipPath id="clip0_81_1727">
<rect width="24" height="24" fill="white" transform="translate(0 0.267578)"/>
</clipPath>
</defs>
</svg>
