<svg width="151" height="150" viewBox="0 0 151 150" fill="none" xmlns="http://www.w3.org/2000/svg">
<path d="M117.324 69.9464C112.806 44.8297 113.104 46.1894 112.974 45.9592C112.78 45.6209 112.415 45.6307 112.074 45.6764C111.117 45.8054 79.2527 49.9672 78.7742 50.0264C78.6738 50.0391 78.5818 50.0888 78.5162 50.1659C78.9947 50.3639 78.9415 50.9774 79.0675 52.0942L80.8495 67.6124C81.2245 67.6567 81.9535 67.6259 83.3875 67.8374C84.1513 67.9241 84.8959 68.1341 85.5925 68.4592C86.2437 68.8125 86.7827 69.3415 87.1482 69.986C87.5136 70.6305 87.6907 71.3647 87.6595 72.1049C87.6603 72.1972 87.6973 72.2854 87.7625 72.3507C87.8277 72.4159 87.916 72.4529 88.0082 72.4537C88.7957 72.4237 89.584 72.4124 90.3722 72.4214C90.4644 72.4201 90.5525 72.3828 90.6176 72.3175C90.6827 72.2523 90.7198 72.1641 90.721 72.0719C90.685 66.5632 89.4265 57.2437 93.6407 53.1434C95.5472 51.2887 98.6245 51.3389 100.766 52.7504C105.774 56.0504 105.831 65.3287 106.33 71.1697C106.331 71.2618 106.369 71.3497 106.434 71.4148C106.499 71.4799 106.587 71.5171 106.679 71.5184C110.162 71.2934 113.624 70.8592 117.08 70.3747C117.278 70.3499 117.353 70.1114 117.324 69.9464Z" fill="#004F9E"/>
<path d="M79.0675 52.0912C78.8733 50.3834 79.0255 50.0144 77.7348 50.1449C76.51 50.2687 72.9535 50.7239 61.6698 51.9269C60.9948 43.5839 61.8775 34.0424 56.023 30.0569C50.7363 26.4569 43.669 29.4449 43.4073 39.3359C43.3458 41.6729 43.4515 42.0637 44.1423 54.4514C37.1815 55.3184 24.2808 57.5932 20.0515 63.1844C19.2797 64.2261 18.726 65.4128 18.4233 66.6734C18.1207 67.9341 18.0754 69.2428 18.2901 70.5213C18.5048 71.7999 18.9752 73.022 19.6731 74.1146C20.371 75.2071 21.282 76.1478 22.3518 76.8802C13.4388 81.3929 14.7325 92.2552 22.6668 95.6039C21.5355 96.6293 20.6438 97.8911 20.0553 99.2999C18.6693 102.86 20.7198 108.416 26.914 110.712C30.256 111.95 33.9423 111.987 37.444 111.612C41.1865 111.268 44.8853 110.552 48.4855 109.474C51.6573 108.463 55.0105 106.826 56.5788 103.723C59.554 103.145 62.533 102.589 65.5105 102.026C64.2405 100.864 63.3412 99.3538 62.9247 97.6836C62.5083 96.0135 62.5932 94.2576 63.169 92.6354C63.6475 91.3762 64.4398 90.2602 65.4708 89.3932C66.426 88.5412 67.5089 87.8443 68.68 87.3277C66.235 85.7947 64.6158 84.0817 64.0818 81.2129C63.6793 78.7078 64.1994 76.1418 65.5458 73.9912C68.644 68.8049 74.8458 67.0559 80.8098 67.2622L79.0675 52.0912Z" fill="#EBF2F2"/>
<path d="M146.381 111.78C146.279 111.161 139.112 67.905 138.999 67.317C138.993 67.2057 138.961 67.0973 138.907 66.9999C138.853 66.9025 138.777 66.8186 138.686 66.7545C138.594 66.6905 138.489 66.6482 138.379 66.6309C138.269 66.6136 138.156 66.6218 138.049 66.6548C136.814 66.843 125.664 68.7068 125.068 68.8035C125.031 68.8115 124.995 68.8272 124.964 68.8497C124.933 68.8722 124.907 68.9009 124.888 68.934C125.431 69.1178 124.829 66.582 132.743 115.674C132.818 116.131 133.028 116.728 132.661 117.084C132.739 117.134 132.832 117.153 132.923 117.139C136.338 116.498 142.462 115.332 145.854 114.473C146.096 114.446 146.325 114.346 146.51 114.188C146.867 113.797 146.614 113.175 146.381 111.78Z" fill="#004F9E"/>
<path d="M132.831 116.802C132.883 116.425 132.853 116.041 132.743 115.677C132.529 114.35 125.543 70.9725 125.451 70.392C125.39 70.002 125.402 69.2205 124.989 68.979C124.282 68.5658 116.364 70.5593 106.68 71.1735C106.179 65.3453 106.168 56.1893 101.147 52.593C98.8218 50.9273 95.4085 50.874 93.334 52.9605C89.0928 57.2265 90.343 66.6855 90.3723 72.0765C89.584 72.066 88.7958 72.0765 88.0083 72.1088C88.03 71.4906 87.9219 70.8747 87.6909 70.3008C87.46 69.727 87.1112 69.208 86.6673 68.7773C85.616 67.9638 84.3383 67.4966 83.0103 67.44C76.1433 66.5573 68.2488 68.4315 65.0785 74.8478C63.933 77.0464 63.6431 79.5916 64.2648 81.9915C64.9638 84.4703 66.4983 85.962 68.68 87.33C63.1825 89.7623 61.33 94.7843 63.5478 99.3915C65.2038 102.828 68.704 104.466 72.4765 105.213C61.7575 109.301 64.1455 125.088 83.3298 124.349C94.8003 123.904 120.621 119.439 131.886 117.336C132.271 117.262 132.687 117.263 132.831 116.802Z" fill="white"/>
<path d="M4.36526 95.1172C3.96476 95.3205 4.31801 95.9235 4.71776 95.7172L13.6285 91.1895C14.029 90.9862 13.6758 90.3832 13.276 90.5895L4.36526 95.1172Z" fill="white"/>
<path d="M14.2915 93.1619L8.17674 101.003C7.90374 101.353 8.39424 101.851 8.67024 101.497L14.785 93.6554C15.058 93.3051 14.5675 92.8079 14.2915 93.1619Z" fill="white"/>
<path d="M88.102 31.2997C88.0641 31.2467 88.0122 31.2054 87.9521 31.1805C87.892 31.1555 87.8261 31.1479 87.7619 31.1584C87.6977 31.1689 87.6377 31.1972 87.5887 31.2401C87.5397 31.2829 87.5037 31.3386 87.4847 31.4009C87.4592 31.4839 87.4654 31.5734 87.502 31.6521L92.239 39.5144C92.2899 39.5846 92.3652 39.6333 92.4501 39.6509C92.535 39.6685 92.6234 39.6538 92.698 39.6096C92.7727 39.5659 92.8285 39.4959 92.8545 39.4133C92.8806 39.3307 92.875 39.2414 92.839 39.1626L88.102 31.2997Z" fill="#004F9E"/>
<path d="M94.7358 25.9665V38.4577C94.7428 38.5455 94.7827 38.6274 94.8474 38.6871C94.9121 38.7468 94.9969 38.7799 95.0849 38.7799C95.1729 38.7799 95.2578 38.7468 95.3224 38.6871C95.3871 38.6274 95.427 38.5455 95.434 38.4577V25.9665C95.427 25.8787 95.3871 25.7969 95.3224 25.7371C95.2578 25.6774 95.1729 25.6443 95.0849 25.6443C94.9969 25.6443 94.9121 25.6774 94.8474 25.7371C94.7827 25.7969 94.7428 25.8787 94.7358 25.9665Z" fill="#004F9E"/>
<path d="M102.724 31.2997L97.462 39.1627C97.2115 39.5377 97.816 39.8864 98.062 39.5144L103.327 31.6499C103.578 31.2749 102.973 30.9277 102.724 31.2997Z" fill="#004F9E"/>
<path d="M112.971 45.9592C112.763 45.5969 112.371 45.6359 112.014 45.6839C111.039 45.8159 64.1777 51.6592 61.6697 51.9269C61.3345 47.7614 61.3855 43.2967 60.7922 39.3742C60.199 35.4517 58.954 32.0527 56.023 30.0569C53.0687 28.0454 49.438 28.0027 46.7162 30.4949C43.7747 33.1897 43.3105 37.2982 43.4125 41.4314C43.4597 43.3214 43.6247 45.2167 43.726 46.9814L44.1422 54.4492C37.1815 55.3184 24.2807 57.5932 20.0515 63.1844C19.2797 64.2261 18.7259 65.4128 18.4233 66.6734C18.1207 67.934 18.0753 69.2427 18.2901 70.5213C18.5048 71.7998 18.9752 73.0219 19.6731 74.1145C20.3709 75.2071 21.282 76.1477 22.3517 76.8802C13.4387 81.3929 14.7235 92.2484 22.6667 95.6039C19.9547 98.1787 18.9077 100.994 20.1805 104.448C20.7855 105.915 21.7004 107.235 22.8625 108.316C24.0247 109.397 25.4067 110.214 26.914 110.712C30.256 111.95 33.9422 111.987 37.444 111.612C41.1865 111.268 44.8853 110.552 48.4855 109.474C51.6572 108.463 55.0105 106.826 56.5787 103.723C59.554 103.145 62.596 102.58 65.5735 102.017C65.3668 101.828 65.1686 101.629 64.9795 101.422C55.5902 103.198 56.1985 103.038 56.0477 103.237C55.9248 103.442 55.8132 103.654 55.7132 103.872C53.662 107.338 49.0382 108.766 45.1637 109.647C41.8742 110.397 36.2695 111.279 32.5337 111.087C24.0302 110.65 20.2112 105.724 20.3447 101.311C20.4415 98.1142 23.4265 95.9429 23.5772 95.7029C23.6126 95.6578 23.6365 95.6047 23.6467 95.5483C23.6569 95.4919 23.6531 95.4338 23.6357 95.3792C23.6183 95.3245 23.5879 95.2749 23.547 95.2348C23.506 95.1946 23.4559 95.165 23.401 95.1487C15.5575 92.2702 13.951 81.4522 23.218 77.2334C23.2692 77.2018 23.3114 77.1577 23.3407 77.1052C23.37 77.0527 23.3854 76.9935 23.3854 76.9334C23.3854 76.8733 23.37 76.8141 23.3407 76.7616C23.3114 76.7091 23.2692 76.665 23.218 76.6334C22.1738 76.0062 21.2679 75.1734 20.5553 74.1855C19.8428 73.1975 19.3384 72.0751 19.0729 70.8863C18.8073 69.6975 18.7861 68.4672 19.0106 67.2699C19.235 66.0727 19.7004 64.9335 20.3785 63.9216C24.244 58.2487 37.6727 55.9357 44.5082 55.1017C44.6007 55.0999 44.6888 55.0622 44.754 54.9965C44.8191 54.9308 44.856 54.8424 44.857 54.7499C44.7355 52.5652 44.1932 43.8389 44.1227 41.6587C44.017 38.4224 44.1917 34.9379 46.1342 32.2012C47.0452 30.8094 48.4561 29.8208 50.0753 29.4397C51.6945 29.0586 53.3982 29.3142 54.8342 30.1537C58.1222 31.8914 59.4842 35.4037 60.1187 39.4904C60.7532 43.5772 60.6437 48.2489 60.9992 52.3079C61.0142 52.4804 61.1492 52.6784 61.3487 52.6574C79.3247 50.7419 78.1427 50.7232 78.2192 50.8409C78.268 50.9159 78.1442 50.1427 80.1152 67.3004C80.3485 67.3004 80.5817 67.3057 80.815 67.3139C78.763 49.4407 78.9475 50.9174 78.904 50.7187C83.62 50.1622 112.296 46.3222 112.374 46.3432L116.689 70.1332C116.919 70.1009 117.149 70.0732 117.379 70.0409C112.835 44.7637 113.095 46.1737 112.971 45.9592Z" fill="black"/>
<path d="M53.929 78.7276C60.013 76.2248 61.504 66.8123 52.8122 63.9863C47.767 62.3453 42.154 63.4501 36.9295 64.4813C36.4892 64.5676 36.6752 65.2411 37.1147 65.1563C41.6822 64.2563 46.4635 63.3016 51.103 64.2601C52.963 64.5773 54.703 65.3941 56.1347 66.6226C58.9337 69.2251 58.9315 73.8181 55.7897 76.7266C54.2147 78.1868 52.6187 78.5018 50.2795 79.0336C41.443 81.0421 35.0545 79.6658 26.4295 77.4061C26.3852 77.3939 26.3389 77.3906 26.2933 77.3963C26.2477 77.402 26.2036 77.4167 26.1637 77.4394C26.1238 77.4621 26.0887 77.4925 26.0605 77.5288C26.0323 77.5651 26.0115 77.6066 25.9994 77.6509C25.9872 77.6952 25.9839 77.7415 25.9896 77.7871C25.9953 77.8327 26.01 77.8768 26.0327 77.9167C26.0555 77.9566 26.0858 77.9917 26.1221 78.0199C26.1584 78.0481 26.1999 78.0689 26.2442 78.0811C36.5537 80.7863 42.5522 81.8393 52.7942 79.1071C55.2512 79.7513 57.0362 81.1058 57.7442 83.5126C58.588 86.3671 57.6617 88.6283 55.435 90.4966C51.742 93.5948 46.3487 94.2413 41.4385 94.8465C37.5468 95.338 33.6323 95.6286 29.7107 95.7173C29.623 95.7244 29.5411 95.7642 29.4814 95.8289C29.4217 95.8936 29.3885 95.9784 29.3885 96.0664C29.3885 96.1545 29.4217 96.2393 29.4814 96.304C29.5411 96.3687 29.623 96.4085 29.7107 96.4156C35.17 96.3196 45.2485 95.4406 50.458 93.9068C51.3142 93.8908 52.1635 94.0631 52.9458 94.4116C53.7281 94.7601 54.4242 95.2763 54.985 95.9236C55.6597 96.7919 56.1131 97.8114 56.3061 98.894C56.4991 99.9767 56.4259 101.09 56.0927 102.138C55.9427 102.563 56.6177 102.745 56.7677 102.324C57.9595 98.9768 56.2562 94.2458 51.9482 93.3721C53.2206 92.8473 54.4192 92.159 55.5137 91.3246C57.8252 89.5456 59.1332 87.2558 58.648 84.3331C58.4757 83.0468 57.9402 81.8362 57.1044 80.8434C56.2686 79.8506 55.1671 79.1166 53.929 78.7276Z" fill="black"/>
<path d="M138.907 66.969C138.654 66.465 138.026 66.6585 137.593 66.729C128.939 68.1315 114.88 70.6515 106.679 71.1705C106.143 64.935 106.13 53.4667 98.9732 51.5827C97.9992 51.2985 96.9678 51.2743 95.9816 51.5126C94.9953 51.7509 94.0887 52.2434 93.352 52.941C89.1002 57.1935 90.343 66.657 90.3722 72.0735C89.5841 72.0637 88.7958 72.0745 88.0082 72.1057C87.9992 69.6592 86.7002 68.1015 83.9965 67.5885C82.3893 67.3164 80.7588 67.2071 79.1297 67.2622C74.518 67.4062 69.67 68.8192 66.712 72.3622C64.8777 74.473 63.8893 77.1877 63.937 79.9837C64.1005 83.4382 65.833 85.545 68.6785 87.3337C65.5757 88.704 62.9545 91.305 62.6785 94.7977C62.5734 96.1393 62.7738 97.4873 63.2646 98.7403C63.7554 99.9933 64.5237 101.119 65.512 102.032C67.4937 103.719 69.9056 104.821 72.478 105.216C61.6735 109.341 64.303 125.091 83.3312 124.352C96.3062 123.849 135.239 117.083 145.524 114.562C145.991 114.448 146.601 114.394 146.682 113.812C146.704 113.641 139.031 67.2172 138.907 66.969ZM132.184 116.569C132.134 116.659 106.548 120.94 103.659 121.369C98.5457 122.119 93.4165 122.821 88.2692 123.299C83.9822 123.697 79.6375 124.026 75.448 122.815C68.248 120.734 65.9642 115.697 67.1455 111.48C67.8722 108.886 70.1252 106.482 74.0057 105.447C74.3162 105.364 74.3605 104.827 74.0057 104.772C70.5827 104.266 66.7652 103.122 64.7365 100.087C63.8086 98.7509 63.3233 97.1569 63.3489 95.53C63.3744 93.9032 63.9096 92.3252 64.879 91.0185C66.1147 89.5274 67.7236 88.3905 69.5417 87.7237C69.6064 87.7035 69.664 87.6652 69.7077 87.6134C69.7514 87.5616 69.7794 87.4984 69.7885 87.4312C69.7974 87.364 69.7867 87.2956 69.7577 87.2342C69.7287 87.1729 69.6826 87.1213 69.625 87.0855C68.3555 86.3969 67.2167 85.4909 66.2605 84.4087C64.1447 81.8182 63.8605 77.4255 66.7292 73.4587C70.2925 68.5282 77.6792 67.26 83.6042 68.2252C84.2905 68.31 84.9565 68.5177 85.5685 68.8402C86.1735 69.2165 86.6584 69.7579 86.9657 70.4007C87.2731 71.0435 87.3902 71.7608 87.3032 72.468C87.3042 72.5603 87.3414 72.6485 87.4067 72.7138C87.4721 72.779 87.5604 72.8159 87.6527 72.8167C88.6757 72.7667 89.7001 72.7527 90.724 72.7747C90.8161 72.7735 90.9041 72.7364 90.9693 72.6713C91.0344 72.6061 91.0716 72.5181 91.0727 72.426C91.0817 66.9097 89.8802 59.0947 93.0782 54.3667C93.6895 53.4022 94.6067 52.6707 95.683 52.2892C97.1371 51.8659 98.6989 52.0246 100.038 52.7317C105.557 55.5975 105.509 66.0067 106.011 71.547C106.013 71.6388 106.051 71.7263 106.116 71.7912C106.181 71.8562 106.268 71.8936 106.36 71.8957C112.171 71.5492 118.946 70.467 124.66 69.591C124.625 70.2585 132.226 116.493 132.184 116.569ZM145.943 113.729C145.211 114.075 134.536 116.129 132.869 116.439C132.866 116.364 125.336 69.5415 125.315 69.4665C139.367 67.1925 138.319 67.2352 138.304 67.3972C138.289 67.5592 146.099 113.656 145.943 113.729Z" fill="black"/>
<path d="M98.9298 103.575L93.9925 103.875C93.5463 103.902 93.5425 104.6 93.9925 104.573L98.9298 104.273C99.376 104.25 99.379 103.552 98.9298 103.575Z" fill="black"/>
<path d="M79.939 74.2035C82.0497 73.7457 84.1865 73.4176 86.3373 73.221C86.6088 73.056 86.5578 72.546 86.1738 72.576C84.01 72.7065 81.862 73.026 79.7538 73.5307C79.3195 73.6312 79.504 74.3047 79.939 74.2035Z" fill="black"/>
<path d="M90.6467 87.825C84.5777 88.8337 78.1765 89.277 72.2717 87.639C72.2048 87.6196 72.1336 87.6207 72.0673 87.6423C72.0011 87.6638 71.9428 87.7047 71.9001 87.7598C71.8573 87.8148 71.8321 87.8814 71.8276 87.9509C71.8231 88.0204 71.8396 88.0897 71.875 88.1497C71.8977 88.1897 71.9281 88.2247 71.9644 88.2529C72.0007 88.2811 72.0422 88.3019 72.0865 88.314C78.181 90.0052 84.589 89.538 90.8312 88.5007C91.2745 88.425 91.087 87.75 90.6467 87.825Z" fill="black"/>
<path d="M87.5778 104.346C84.4892 104.722 81.3742 104.835 78.2665 104.684C77.8165 104.654 77.8165 105.353 78.2665 105.381C81.3745 105.533 84.4893 105.42 87.5778 105.044C88.0195 105 88.0248 104.298 87.5778 104.346Z" fill="black"/>
<path d="M99.2178 87.183L94.9315 87.864C94.489 87.9338 94.6765 88.6065 95.1168 88.539L99.4038 87.8588C99.8463 87.786 99.658 87.1133 99.2178 87.183Z" fill="black"/>
<path d="M4.36526 95.1172C3.96476 95.3205 4.31801 95.9235 4.71776 95.7172L13.6285 91.1895C14.029 90.9862 13.6758 90.3832 13.276 90.5895L4.36526 95.1172Z" fill="black"/>
<path d="M14.2915 93.1619L8.17674 101.003C7.90374 101.353 8.39424 101.851 8.67024 101.497L14.785 93.6554C15.058 93.3051 14.5675 92.8079 14.2915 93.1619Z" fill="black"/>
<path d="M88.102 31.2997C88.0641 31.2467 88.0122 31.2054 87.9521 31.1805C87.892 31.1555 87.8261 31.1479 87.7619 31.1584C87.6977 31.1689 87.6377 31.1972 87.5887 31.2401C87.5397 31.2829 87.5037 31.3386 87.4847 31.4009C87.4592 31.4839 87.4654 31.5734 87.502 31.6521L92.239 39.5144C92.2899 39.5846 92.3652 39.6333 92.4501 39.6509C92.535 39.6685 92.6234 39.6538 92.698 39.6096C92.7727 39.5659 92.8285 39.4959 92.8545 39.4133C92.8806 39.3307 92.875 39.2414 92.839 39.1626L88.102 31.2997Z" fill="black"/>
<path d="M94.7358 25.9665V38.4577C94.7428 38.5455 94.7827 38.6274 94.8474 38.6871C94.9121 38.7468 94.9969 38.7799 95.0849 38.7799C95.1729 38.7799 95.2578 38.7468 95.3224 38.6871C95.3871 38.6274 95.427 38.5455 95.434 38.4577V25.9665C95.427 25.8787 95.3871 25.7969 95.3224 25.7371C95.2578 25.6774 95.1729 25.6443 95.0849 25.6443C94.9969 25.6443 94.9121 25.6774 94.8474 25.7371C94.7827 25.7969 94.7428 25.8787 94.7358 25.9665Z" fill="black"/>
<path d="M102.724 31.2997L97.462 39.1627C97.2115 39.5377 97.816 39.8864 98.062 39.5144L103.327 31.6499C103.578 31.2749 102.973 30.9277 102.724 31.2997Z" fill="black"/>
</svg>
