<svg width="242" height="50" viewBox="0 0 242 50" fill="none" xmlns="http://www.w3.org/2000/svg">
<path d="M67.1365 34.6421L70.8865 33.4116C70.8996 33.4116 70.9256 33.5093 70.9647 33.7046C71.0037 33.8999 71.0688 34.1603 71.16 34.4858C71.2641 34.7983 71.4009 35.1499 71.5701 35.5405C71.7524 35.9181 72.0128 36.3022 72.3514 36.6929C72.6899 37.0705 73.0871 37.4155 73.5428 37.728C74.5584 38.4442 75.8214 38.8022 77.3318 38.8022C78.8423 38.8022 79.949 38.4312 80.6522 37.689C81.3683 36.9468 81.7264 36.0679 81.7264 35.0522C81.7264 34.0236 81.6222 33.1968 81.4139 32.5718C81.2055 31.9338 80.841 31.3804 80.3201 30.9116C79.4477 30.1304 77.9373 29.4272 75.7889 28.8022C71.9998 27.6955 69.5649 25.9832 68.4842 23.6655C67.9243 22.4546 67.6443 21.0288 67.6443 19.3882C67.6443 18.008 68.1326 16.6603 69.1092 15.3452C70.8149 13.1707 73.2368 12.0835 76.3748 12.0835C78.8618 12.0835 80.8996 12.8322 82.4881 14.3296C83.6209 15.3843 84.4673 16.7124 85.0272 18.314L85.3983 19.3491C85.5154 19.6616 85.5936 19.8634 85.6326 19.9546L81.824 21.3022C80.9647 18.5679 79.6235 16.8817 77.8006 16.2437C77.3449 16.0874 76.8696 16.0093 76.3748 16.0093C73.6665 16.0093 72.3123 17.4025 72.3123 20.189C72.3123 21.465 72.6899 22.4416 73.4451 23.1187C74.0701 23.7046 74.8904 24.1668 75.9061 24.5054L76.8436 24.8179C77.3774 25.0002 77.6704 25.0978 77.7225 25.1108L78.5818 25.4038C80.8084 26.1851 82.3123 26.8752 83.0936 27.4741C84.2394 28.3595 84.9881 29.1733 85.3397 29.9155C86.0428 31.439 86.3943 33.047 86.3943 34.7397C86.3943 36.0679 86.0167 37.4155 85.2615 38.7827C84.2459 40.6187 82.6378 41.8231 80.4373 42.396C79.591 42.6174 78.6665 42.728 77.6639 42.728C76.6613 42.728 75.7173 42.6369 74.8318 42.4546C73.9595 42.2723 73.2042 42.0249 72.5662 41.7124C71.9282 41.3999 71.3423 41.0418 70.8084 40.6382C70.2746 40.2345 69.8253 39.8114 69.4608 39.3687C69.0962 38.9129 68.7772 38.4637 68.5037 38.021C68.2303 37.5653 68.0089 37.1356 67.8397 36.7319C67.6834 36.3283 67.5532 35.9702 67.449 35.6577C67.3449 35.3452 67.2667 35.0978 67.2147 34.9155C67.1756 34.7332 67.1496 34.6421 67.1365 34.6421ZM104.617 26.771V42.2202H100.437V27.8647C100.437 26.9272 100.151 26.1851 99.5779 25.6382C99.018 25.0783 98.3475 24.7983 97.5662 24.7983C96.785 24.7983 96.0102 25.0327 95.242 25.5015C94.4738 25.9572 93.9009 26.4129 93.5233 26.8687V42.2202H89.3436V12.6304H93.5233V23.8022C95.216 22.1095 96.9738 21.2632 98.7967 21.2632C100.437 21.2632 101.798 21.6929 102.879 22.5522C104.038 23.4767 104.617 24.883 104.617 26.771ZM112.058 36.9077C112.058 37.6759 112.247 38.2358 112.625 38.5874C113.002 38.9259 113.471 39.0952 114.031 39.0952C114.591 39.0952 115.008 39.0627 115.281 38.9976C115.568 38.9325 115.847 38.8348 116.121 38.7046L116.844 38.3335C117.052 38.2163 117.286 38.0535 117.547 37.8452L118.113 37.396C118.217 37.3049 118.387 37.1551 118.621 36.9468L118.972 36.6147V31.7905C116.056 32.4676 114.148 33.1968 113.25 33.978C112.456 34.6812 112.058 35.6577 112.058 36.9077ZM119.558 42.2202C119.168 41.9858 118.972 41.3804 118.972 40.4038L118.601 40.8335C117.482 42.0314 115.88 42.6304 113.797 42.6304C111.271 42.6304 109.539 41.7384 108.601 39.9546C108.12 39.0692 107.879 38.047 107.879 36.8882C107.879 35.7293 108.081 34.7007 108.484 33.8022C108.901 32.8908 109.571 32.09 110.496 31.3999C112.176 30.1499 115.001 29.1278 118.972 28.3335C118.972 27.409 118.94 26.8426 118.875 26.6343C118.823 26.4259 118.758 26.2306 118.68 26.0483C118.614 25.866 118.53 25.7293 118.426 25.6382C118.321 25.534 118.191 25.4233 118.035 25.3062C117.879 25.189 117.696 25.1043 117.488 25.0522C116.98 24.922 116.414 24.8569 115.789 24.8569C115.177 24.8569 114.597 24.9546 114.051 25.1499C113.517 25.3322 113.087 25.5405 112.762 25.7749C112.449 26.0093 112.163 26.2827 111.902 26.5952C111.564 27.0119 111.323 27.3765 111.18 27.689L108.445 26.0093C109.018 24.8244 109.513 24.0366 109.93 23.646C110.346 23.2424 110.756 22.8973 111.16 22.6108C111.564 22.3244 111.993 22.0965 112.449 21.9272C113.543 21.5236 114.656 21.3218 115.789 21.3218C116.922 21.3218 117.82 21.3869 118.484 21.5171C119.161 21.6343 119.799 21.8556 120.398 22.1812C121.01 22.4937 121.512 22.9168 121.902 23.4507C122.735 24.6095 123.152 26.3022 123.152 28.5288V39.3101C123.152 39.6746 123.217 40.189 123.347 40.853C123.491 41.5171 123.621 41.9728 123.738 42.2202H119.558ZM127.019 42.2202V21.6147H131.199V24.4468C131.251 24.3817 131.368 24.2124 131.551 23.939L132.019 23.2358C132.983 21.9207 134.571 21.2632 136.785 21.2632C137.019 21.2632 137.254 21.2827 137.488 21.3218V24.8179C135.118 24.8569 133.413 25.5145 132.371 26.7905C131.902 27.3634 131.512 28.0991 131.199 28.9976V42.2202H127.019ZM142.586 29.4858H149.812C149.812 28.4702 149.637 27.5913 149.285 26.8491C148.608 25.4819 147.67 24.7983 146.472 24.7983C145.756 24.7983 145.125 24.9611 144.578 25.2866C144.044 25.5991 143.64 26.0093 143.367 26.5171C142.846 27.4676 142.586 28.4572 142.586 29.4858ZM139.305 38.2358C138.901 37.3374 138.614 36.4194 138.445 35.4819C138.289 34.5314 138.211 33.34 138.211 31.9077C138.211 30.4624 138.38 29.0627 138.719 27.7085C139.057 26.3543 139.493 25.2801 140.027 24.4858C140.561 23.6785 141.206 23.0275 141.961 22.5327C143.25 21.6864 144.767 21.2632 146.512 21.2632C148.152 21.2632 149.584 21.7515 150.808 22.728C153.1 24.577 154.194 28.008 154.09 33.021H142.39C142.39 35.6512 143.087 37.422 144.48 38.3335C145.196 38.8022 145.945 39.0366 146.726 39.0366C147.521 39.0366 148.178 38.939 148.699 38.7437C149.22 38.5483 149.637 38.327 149.949 38.0796C150.262 37.8322 150.548 37.5457 150.808 37.2202C151.16 36.7645 151.401 36.3739 151.531 36.0483L154.187 37.7671C153.224 39.4468 152.195 40.6447 151.101 41.3608C149.89 42.1681 148.556 42.5718 147.097 42.5718C145.652 42.5718 144.415 42.383 143.387 42.0054C142.371 41.6278 141.538 41.1265 140.887 40.5015C140.249 39.8765 139.721 39.1213 139.305 38.2358ZM172.156 20.4429C172.156 17.8517 169.982 16.5562 165.633 16.5562H162.41V25.4429H165.633C167.638 25.4429 169.226 25.0132 170.398 24.1538C171.57 23.2814 172.156 22.0444 172.156 20.4429ZM157.742 42.2202V12.6304H167.84C171.512 12.6304 174.083 13.6851 175.555 15.7944C176.401 17.0184 176.824 18.5093 176.824 20.2671C176.824 23.3921 175.874 25.814 173.972 27.5327C172.579 28.7697 170.743 29.3882 168.465 29.3882H162.41V42.2202H157.742ZM180.262 42.2788V12.6304H184.441V42.2788H180.262ZM192.215 36.9077C192.215 37.6759 192.403 38.2358 192.781 38.5874C193.159 38.9259 193.627 39.0952 194.187 39.0952C194.747 39.0952 195.164 39.0627 195.437 38.9976C195.724 38.9325 196.004 38.8348 196.277 38.7046L197 38.3335C197.208 38.2163 197.443 38.0535 197.703 37.8452L198.269 37.396C198.374 37.3049 198.543 37.1551 198.777 36.9468L199.129 36.6147V31.7905C196.212 32.4676 194.305 33.1968 193.406 33.978C192.612 34.6812 192.215 35.6577 192.215 36.9077ZM199.715 42.2202C199.324 41.9858 199.129 41.3804 199.129 40.4038L198.758 40.8335C197.638 42.0314 196.036 42.6304 193.953 42.6304C191.427 42.6304 189.695 41.7384 188.758 39.9546C188.276 39.0692 188.035 38.047 188.035 36.8882C188.035 35.7293 188.237 34.7007 188.64 33.8022C189.057 32.8908 189.728 32.09 190.652 31.3999C192.332 30.1499 195.157 29.1278 199.129 28.3335C199.129 27.409 199.096 26.8426 199.031 26.6343C198.979 26.4259 198.914 26.2306 198.836 26.0483C198.771 25.866 198.686 25.7293 198.582 25.6382C198.478 25.534 198.347 25.4233 198.191 25.3062C198.035 25.189 197.853 25.1043 197.644 25.0522C197.137 24.922 196.57 24.8569 195.945 24.8569C195.333 24.8569 194.754 24.9546 194.207 25.1499C193.673 25.3322 193.243 25.5405 192.918 25.7749C192.605 26.0093 192.319 26.2827 192.058 26.5952C191.72 27.0119 191.479 27.3765 191.336 27.689L188.601 26.0093C189.174 24.8244 189.669 24.0366 190.086 23.646C190.502 23.2424 190.913 22.8973 191.316 22.6108C191.72 22.3244 192.15 22.0965 192.605 21.9272C193.699 21.5236 194.812 21.3218 195.945 21.3218C197.078 21.3218 197.976 21.3869 198.64 21.5171C199.318 21.6343 199.956 21.8556 200.555 22.1812C201.166 22.4937 201.668 22.9168 202.058 23.4507C202.892 24.6095 203.308 26.3022 203.308 28.5288V39.3101C203.308 39.6746 203.374 40.189 203.504 40.853C203.647 41.5171 203.777 41.9728 203.894 42.2202H199.715ZM206.18 32.064C206.18 27.9754 207.071 25.0653 208.855 23.3335C210.262 21.9533 212.228 21.2632 214.754 21.2632C217.293 21.2632 219.278 22.3309 220.711 24.4663C221.18 25.1564 221.505 25.8009 221.687 26.3999L218.152 27.9624C218.048 26.8947 217.612 26.0483 216.844 25.4233C216.323 25.0067 215.678 24.7983 214.91 24.7983C211.876 24.7983 210.359 27.1616 210.359 31.8882C210.359 34.2189 210.756 35.9963 211.551 37.2202C212.345 38.4312 213.504 39.0366 215.027 39.0366C216.095 39.0366 216.961 38.646 217.625 37.8647C218.198 37.1877 218.614 36.465 218.875 35.6968L222.078 37.103C221.778 38.2619 221.14 39.3621 220.164 40.4038C218.797 41.8491 217.045 42.5718 214.91 42.5718C209.09 42.5718 206.18 39.0692 206.18 32.064ZM228.719 29.4858H235.945C235.945 28.4702 235.769 27.5913 235.418 26.8491C234.741 25.4819 233.803 24.7983 232.605 24.7983C231.889 24.7983 231.258 24.9611 230.711 25.2866C230.177 25.5991 229.773 26.0093 229.5 26.5171C228.979 27.4676 228.719 28.4572 228.719 29.4858ZM225.437 38.2358C225.034 37.3374 224.747 36.4194 224.578 35.4819C224.422 34.5314 224.344 33.34 224.344 31.9077C224.344 30.4624 224.513 29.0627 224.851 27.7085C225.19 26.3543 225.626 25.2801 226.16 24.4858C226.694 23.6785 227.338 23.0275 228.094 22.5327C229.383 21.6864 230.9 21.2632 232.644 21.2632C234.285 21.2632 235.717 21.7515 236.941 22.728C239.233 24.577 240.327 28.008 240.222 33.021H228.523C228.523 35.6512 229.22 37.422 230.613 38.3335C231.329 38.8022 232.078 39.0366 232.859 39.0366C233.653 39.0366 234.311 38.939 234.832 38.7437C235.353 38.5483 235.769 38.327 236.082 38.0796C236.394 37.8322 236.681 37.5457 236.941 37.2202C237.293 36.7645 237.534 36.3739 237.664 36.0483L240.32 37.7671C239.357 39.4468 238.328 40.6447 237.234 41.3608C236.023 42.1681 234.689 42.5718 233.23 42.5718C231.785 42.5718 230.548 42.383 229.519 42.0054C228.504 41.6278 227.67 41.1265 227.019 40.5015C226.381 39.8765 225.854 39.1213 225.437 38.2358Z" fill="#004F9E"/>
<path fill-rule="evenodd" clip-rule="evenodd" d="M11.0465 33.981C9.14153 32.1028 8.20089 29.6159 8.22896 27.1366C8.00567 24.6794 8.73803 22.1379 10.4722 20.1179L14.8738 14.9906V13.11C14.8738 10.1096 12.4415 7.67721 9.44106 7.67721C6.44061 7.67721 4.00827 10.1096 4.00827 13.11V39.7793C4.00827 42.7797 6.44061 45.2121 9.44106 45.2121C12.4415 45.2121 14.8738 42.7797 14.8738 39.7793V37.7546L11.0465 33.981ZM13.8061 23.4174C12.8265 24.411 12.3061 25.6855 12.2431 26.9774C12.4092 28.2672 13.0345 29.5023 14.0989 30.416C14.3449 30.6272 14.6043 30.8126 14.8738 30.9725V30.9694C15.6717 31.4149 17.6859 32.0344 18.8821 31.5728V31.5904C19.9748 31.3378 20.9995 30.7469 21.7861 29.8306L24.6691 26.4723L21.5155 23.3629C20.7674 22.6254 19.8602 22.1482 18.9062 21.9304C18.9059 21.929 18.9058 21.9283 18.9058 21.9283C18.3733 21.771 16.5278 21.6425 14.9231 22.5561C14.9064 22.5656 14.89 22.5755 14.8738 22.5858V22.5744C14.4924 22.8046 14.1333 23.0857 13.8061 23.4174ZM9.44106 49.2203C14.052 49.2203 17.891 45.9148 18.7174 41.5441L23.0635 45.8292C26.7838 49.4972 32.7732 49.4548 36.4412 45.7345C40.1092 42.0142 40.0669 36.0248 36.3466 32.3568L30.1473 26.2446L35.8197 19.637C39.2228 15.6729 38.768 9.70063 34.8039 6.29756C30.8398 2.8945 24.8675 3.3493 21.4645 7.3134L18.5683 10.687C17.4986 6.64689 13.8176 3.66895 9.44106 3.66895C4.22691 3.66895 0 7.89585 0 13.11V39.7793C0 44.9934 4.22691 49.2203 9.44106 49.2203ZM33.5324 35.2111L27.5302 29.2931L24.8274 32.4415C23.247 34.2825 21.1123 35.3666 18.8821 35.6589V36.0776L25.8777 42.9749C28.0216 45.0887 31.4732 45.0643 33.587 42.9204C35.7008 40.7764 35.6764 37.3249 33.5324 35.2111ZM24.3296 20.5087L27.2862 23.4237L32.7784 17.0261C34.7395 14.7417 34.4775 11.3 32.193 9.33887C29.9086 7.37775 26.4669 7.63984 24.5058 9.92427L18.8821 16.4751V17.8603C20.8694 18.1117 22.793 18.9937 24.3296 20.5087Z" fill="#004F9E"/>
<circle cx="46.266" cy="5.3989" r="5.3989" fill="#004F9E"/>
</svg>
