<svg width="52" height="50" viewBox="0 0 52 50" fill="none" xmlns="http://www.w3.org/2000/svg">
<path fill-rule="evenodd" clip-rule="evenodd" d="M11.0465 33.981C9.14153 32.1028 8.20089 29.6159 8.22896 27.1366C8.00567 24.6794 8.73803 22.1379 10.4722 20.1179L14.8738 14.9906V13.11C14.8738 10.1096 12.4415 7.67721 9.44106 7.67721C6.44061 7.67721 4.00827 10.1096 4.00827 13.11V39.7793C4.00827 42.7797 6.44061 45.2121 9.44106 45.2121C12.4415 45.2121 14.8738 42.7797 14.8738 39.7793V37.7546L11.0465 33.981ZM13.8061 23.4174C12.8265 24.411 12.3061 25.6855 12.2431 26.9774C12.4092 28.2672 13.0345 29.5023 14.0989 30.416C14.3449 30.6272 14.6043 30.8126 14.8738 30.9725V30.9694C15.6717 31.4149 17.6859 32.0344 18.8821 31.5728V31.5904C19.9748 31.3378 20.9995 30.7469 21.7861 29.8306L24.6691 26.4723L21.5155 23.3629C20.7674 22.6254 19.8602 22.1482 18.9062 21.9304C18.9059 21.929 18.9058 21.9283 18.9058 21.9283C18.3733 21.771 16.5278 21.6425 14.9231 22.5561C14.9064 22.5656 14.89 22.5755 14.8738 22.5858V22.5744C14.4924 22.8046 14.1333 23.0857 13.8061 23.4174ZM9.44106 49.2203C14.052 49.2203 17.891 45.9148 18.7174 41.5441L23.0635 45.8292C26.7838 49.4972 32.7732 49.4548 36.4412 45.7345C40.1092 42.0142 40.0669 36.0248 36.3466 32.3568L30.1473 26.2446L35.8197 19.637C39.2228 15.6729 38.768 9.70063 34.8039 6.29756C30.8398 2.8945 24.8675 3.3493 21.4645 7.3134L18.5683 10.687C17.4986 6.64689 13.8176 3.66895 9.44106 3.66895C4.22691 3.66895 0 7.89585 0 13.11V39.7793C0 44.9934 4.22691 49.2203 9.44106 49.2203ZM33.5324 35.2111L27.5302 29.2931L24.8274 32.4415C23.247 34.2825 21.1123 35.3666 18.8821 35.6589V36.0776L25.8777 42.9749C28.0216 45.0887 31.4732 45.0643 33.587 42.9204C35.7008 40.7764 35.6764 37.3249 33.5324 35.2111ZM24.3296 20.5087L27.2862 23.4237L32.7784 17.0261C34.7395 14.7417 34.4775 11.3 32.193 9.33887C29.9086 7.37775 26.4669 7.63984 24.5058 9.92427L18.8821 16.4751V17.8603C20.8694 18.1117 22.793 18.9937 24.3296 20.5087Z" fill="#004F9E"/>
<circle cx="46.266" cy="5.3989" r="5.3989" fill="#004F9E"/>
</svg>
